<?xml version="1.0" encoding="utf-8"?>
<!-- Generator: Adobe Illustrator 24.1.2, SVG Export Plug-In . SVG Version: 6.00 Build 0)  -->
<svg version="1.1" id="svg8092" xmlns="http://www.w3.org/2000/svg" xmlns:xlink="http://www.w3.org/1999/xlink" x="0px" y="0px"
	 viewBox="0 0 138 40" style="enable-background:new 0 0 138 40;" xml:space="preserve">
<style type="text/css">
	.st0{fill:#FFFFFF;}
	.st1{opacity:0;fill:#EEC218;}
</style>
<g id="logo" transform="translate(-1.7904383e-4,9.9926053e-4)">
	<g id="g8095">
		<g id="g8097">
			<path id="path8099" class="st0" d="M66.1,30.3h-4.2c0,0,0,0,0,0l-3.7-4.5l-3.7,4.5c0,0,0,0,0,0H51c0,0,0,0-0.1,0c0,0,0,0,0-0.1
				l5.4-6.6L51,17c0,0,0,0,0-0.1c0,0,0,0,0,0h4.3c0,0,0,0,0,0l3.2,4l3.3-4c0,0,0,0,0,0h3.5c0,0,0,0,0.1,0c0,0,0,0,0,0.1l-5.1,6.1
				L66.1,30.3C66.1,30.2,66.1,30.3,66.1,30.3C66.1,30.3,66.1,30.3,66.1,30.3C66.1,30.3,66.1,30.3,66.1,30.3z"/>
			<path id="path8101" class="st0" d="M95.2,24.5C95.2,24.5,95.2,24.5,95.2,24.5l-9.8,0c0.2,2.3,1.7,3.6,4.1,3.6
				c1.5,0,3-0.5,5.2-1.7c0,0,0.1,0,0.1,0.1l0,3c0,0,0,0,0,0c-2,0.9-4.1,1.5-5.7,1.5l0,0c-4.2,0-7.2-3.1-7.2-7.3s3-7.3,7.2-7.3
				c3.8,0,6.3,2.6,6.3,6.1C95.3,23.1,95.2,24.4,95.2,24.5z M89.1,19.3c-1.9,0-3.2,1.1-3.5,3.1h6.4v-0.1
				C91.9,20.7,90.8,19.3,89.1,19.3L89.1,19.3z"/>
			<path id="path8103" class="st0" d="M113.2,30.3C113.2,30.3,113.2,30.3,113.2,30.3L113.2,17c0,0,0,0,0-0.1h3.5c0,0,0,0,0,0.1v13.3
				c0,0,0,0.1-0.1,0.1H113.2z M115,14.2c-1.2,0-2.2-1-2.2-2.1c0-1.2,1-2.2,2.2-2.2c1.2,0,2.2,1,2.2,2.2
				C117.1,13.2,116.2,14.2,115,14.2C115,14.2,115,14.2,115,14.2z"/>
			<path id="path8105" class="st0" d="M73.4,16.4c-1,0-2,0.2-3,0.5h-3.5c0,0,0,0,0,0.1v21.7c1.1-0.1,2.3-0.5,3.6-1.4v-6.6
				c0.9,0.1,1.6,0.2,2.3,0.2c4.8,0,7.9-2.9,7.9-7.3C80.6,19.4,77.7,16.4,73.4,16.4z M72.5,28.3c-0.6,0-1.3-0.1-2-0.3l0-8.5
				c0.9-0.3,1.6-0.4,2.4-0.4c2.4,0,4.1,1.8,4.1,4.5C76.9,26.4,75.2,28.3,72.5,28.3z"/>
			<path id="path8107" class="st0" d="M106.8,9.9v6.9c-1-0.3-1.9-0.4-2.8-0.4c-4.2,0-7.3,3.1-7.3,7.3c0,4.2,2.8,7.2,6.6,7.2
				c1.3,0,2.6-0.3,4-1.1l0,1.2c1-0.2,2.1-0.6,3.2-1.3V8.5C109.4,8.6,108.1,9,106.8,9.9z M106.8,27.2c-1.1,0.6-2.1,0.8-3,0.8
				c-2.2,0-3.5-1.5-3.5-4.1c0-3,1.7-4.9,4.2-4.9c0.7,0,1.4,0.2,2.2,0.6V27.2z"/>
			<path id="path8109" class="st0" d="M132.6,16.8c0-0.1-0.1-0.1-0.2-0.1l-2.8,0c-0.1,0-0.2,0.1-0.2,0.2v0.5h-0.1
				c-1.3-0.6-2.4-0.8-3.5-0.8c-3.9,0-7,3.3-7,7.4c0,4.2,2.8,7,6.9,7c1.1,0,2.5-0.1,3.8-1.6V31c0.9-0.2,2-0.6,3.1-1.3
				C132.6,29.7,132.6,16.8,132.6,16.8z M129,27.2c-1.1,0.6-2,0.9-2.8,0.9c-2.3,0-3.7-1.5-3.7-4.1c0-2.9,1.6-4.9,4.1-4.9
				c0.7,0,1.4,0.3,2.4,0.8V27.2z"/>
			<path id="path8111" class="st0" d="M41.3,27l8.8,0c-0.1,1-0.5,2.1-1.2,3.3h-7.6l-1.5,0c0,0-0.1,0-0.1,0c-1.1,0-2-0.9-2.2-2
				c0,0,0,0,0,0v-9v-8.4c0,0,0,0,0,0c0.1-1.1,1-2,2.2-2c0,0,0.1,0,0.1,0l10.3,0c-0.1,1-0.5,2.2-1.2,3.3h-7.6v4.7h7.5
				c0,0,0.1,0,0.1,0.1v3.3c0,0,0,0.1-0.1,0.1h-7.5L41.3,27C41.3,27,41.3,27,41.3,27z"/>
		</g>
		<g id="g8113">
			<path id="path8115" class="st0" d="M30.2,27.4c-0.9,0-1.7,0.7-1.7,1.7c0,1,0.7,1.7,1.7,1.7c0.9,0,1.6-0.7,1.6-1.7
				C31.9,28,31.1,27.4,30.2,27.4z M30.2,30.6c-0.9,0-1.4-0.7-1.4-1.5c0-0.9,0.6-1.5,1.4-1.5c0.8,0,1.4,0.6,1.4,1.5
				C31.7,29.9,31,30.6,30.2,30.6z"/>
			<path id="path8117" class="st0" d="M31,28.6c0-0.4-0.2-0.6-0.7-0.6h-0.8v2h0.3v-0.9h0.3l0.5,0.9h0.4l-0.6-0.9
				C30.8,29.1,31,29,31,28.6z M29.9,28.9v-0.6h0.4c0.2,0,0.5,0,0.5,0.3c0,0.3-0.2,0.3-0.5,0.3L29.9,28.9L29.9,28.9z"/>
		</g>
		<g id="g8119">
			<path id="path8121" class="st0" d="M135.5,15.9c-0.9,0-1.7,0.7-1.7,1.7c0,1,0.7,1.7,1.7,1.7c0.9,0,1.6-0.7,1.6-1.7
				C137.1,16.6,136.3,15.9,135.5,15.9z M135.5,19.1c-0.9,0-1.4-0.7-1.4-1.5c0-0.9,0.6-1.5,1.4-1.5c0.8,0,1.4,0.6,1.4,1.5
				C136.9,18.5,136.2,19.1,135.5,19.1z"/>
			<path id="path8123" class="st0" d="M136.2,17.2c0-0.4-0.2-0.6-0.7-0.6h-0.8v2h0.3v-0.9h0.3l0.5,0.9h0.4l-0.6-0.9
				C136,17.7,136.2,17.6,136.2,17.2L136.2,17.2z M135.1,17.5v-0.6h0.4c0.2,0,0.5,0,0.5,0.3c0,0.3-0.2,0.3-0.5,0.3L135.1,17.5
				L135.1,17.5z"/>
		</g>
		<g id="g8125">
			<path id="path8127" class="st0" d="M18.9,12.2l-0.6-1.8l-5.4-7.2l1-0.2l9.4,8.1l5.5-1.6c0.6-0.2,1.4-0.2,1.9-0.2
				c-1.7-3.7-4.9-6.8-9.1-8.3C13.2-2,4.2,2.3,1.2,10.6c-0.9,2.6-1.1,5.2-0.7,7.7l13.2-4.6L18.9,12.2z"/>
			<path id="path8129" class="st0" d="M31.2,10.6c-0.5,0.3-1.2,0.7-1.9,1l-5.5,1.6L20.1,25l-1,0.3l0.8-9l-0.4-1.9l-5.2,1.5L0.6,19.1
				c1.1,5.3,4.8,9.8,10.2,11.8c8.3,2.9,17.3-1.4,20.3-9.6C32.4,17.7,32.3,13.9,31.2,10.6z"/>
			<path id="path8131" class="st1" d="M19.5,14.4l0.4,1.9l-0.8,9l1-0.3l3.7-11.8l5.5-1.6c0.7-0.2,1.4-0.6,1.9-1
				c-0.2-0.5-0.4-1-0.6-1.4c-0.6,0-1.3,0-1.9,0.2L23.1,11l-9.4-8.1l-1,0.2l5.4,7.2l0.6,1.8l-5.2,1.5L0.5,18.3c0,0.3,0.1,0.5,0.1,0.8
				l13.7-3.2L19.5,14.4z"/>
		</g>
	</g>
</g>
</svg>
