<?xml version="1.0" encoding="utf-8"?>
<!-- Generator: Adobe Illustrator 24.1.2, SVG Export Plug-In . SVG Version: 6.00 Build 0)  -->
<svg version="1.1" xmlns="http://www.w3.org/2000/svg" xmlns:xlink="http://www.w3.org/1999/xlink" x="0px" y="0px"
	 viewBox="0 0 265 202" style="enable-background:new 0 0 265 202;" xml:space="preserve">
<style type="text/css">
	.st0{fill:#020202;}
	.st1{fill:#FFFFFF;}
	.st2{fill:#010101;}
</style>
<g id="Layer_2">
	<rect x="-285" y="-27" class="st0" width="265" height="253"/>
</g>
<g id="Layer_1">
	<path class="st1" d="M-21.5,184.4l-3.3-15.6c-1.4-6.6-8.7-16.8-16.5-23l-31.8-25.2c-5.3-4.2-9.8-5.7-12.6-3.9
		c-1.1,0.6-2.7,2.2-2.2,5.8c0-0.3-0.2-0.6-0.2-1.1c0-0.6-0.2-1.4,0-2.2c0-0.2,0.2-0.5,0.2-0.6c0-0.2,0.2-0.5,0.2-0.6
		c0.2-0.5,0.3-0.8,0.6-1.1c0.6-0.8,1.4-1.3,2.4-1.6c0.9-0.3,2-0.2,3.1,0c2.2,0.6,4.4,1.9,6.4,3.3c1.1,0.8,2,1.6,3.1,2.5
		c1.1,0.8,2.2,1.7,3.3,2.7c4.4,3.6,9.3,7.4,14,11.2c2.4,1.9,4.7,3.8,7.1,5.7c1.1,0.9,2.4,1.9,3.5,2.8s2.4,1.9,3.5,2.7
		c2.2,1.9,4.1,3.8,5.8,5.8c1.7,2,3.3,3.9,4.6,5.8c1.3,1.9,2.4,3.8,3.1,5.3c0.8,1.7,1.4,3.1,1.7,4.6c0.3,1.3,0.5,2.4,0.6,3
		c0.2,0.6,0.3,1.1,0.3,1.1s0-0.3-0.2-1.1c-0.2-0.6-0.3-1.7-0.6-3c-0.3-1.3-0.8-2.8-1.6-4.6c-0.8-1.7-1.9-3.5-3.1-5.5
		c-1.3-1.9-2.8-3.9-4.6-5.8c-1.7-2-3.6-3.9-5.8-5.8c-1.1-0.9-2.2-1.9-3.5-2.7c-1.1-0.9-2.4-1.9-3.5-2.8c-2.4-1.9-4.7-3.8-7.1-5.7
		c-4.7-3.8-9.6-7.6-14-11.2c-1.1-0.9-2.2-1.7-3.3-2.7c-1.1-0.8-2.2-1.7-3.1-2.5c-2.2-1.6-4.4-2.8-6.6-3.3c-1.1-0.3-2.2-0.3-3.3,0
		c-1.1,0.3-1.9,0.9-2.5,1.6c-0.3,0.3-0.5,0.8-0.6,1.3c-0.2,0.2-0.2,0.5-0.2,0.6s-0.2,0.5-0.2,0.6c-0.2,0.8-0.2,1.6,0,2.2
		c0,0.5,0.2,0.8,0.2,1.1c-0.2,0.3-0.3,0.5-0.6,0.9l-0.2,0.2l-0.5-0.3c0.2-0.5,0.2-0.8,0.3-1.1c0.2-0.6,0.2-0.9,0.2-0.9
		s-0.2,0.3-0.3,0.9c0,0.3-0.2,0.6-0.3,0.9l-0.9-0.6c0,0,0,0,0.2-0.2c0.6-0.6,1.3-1.1,1.9-1.6c0,0,0-0.2-0.2-0.2
		c-0.3,0.3-0.6,0.5-1.1,0.8c-0.3,0.3-0.8,0.6-1.1,0.9l-6.6-4.4c-1.4-0.8-3-0.9-4.4-0.2l-14.9-9.6c0.2-1.6-0.6-3.1-2-3.9l-10.2-6.6
		c-0.6-0.5-1.4-0.6-2-0.6c-0.5,0-0.9,0-1.4,0.2l-8.3-5.3c0,0.2,0,0.3,0,0.6l7.7,4.9c-0.2,0-0.3,0.2-0.5,0.2l-7.2-4.7
		c0,1.9-0.9,3.8-2.5,4.9l5.2,3.3c0.2,0.2,0.5,0.2,0.8,0.3c0.2,0.2,0.3,0.2,0.5,0.3c0.2,0,0.5,0.2,0.6,0.3c0.2,0,0.2,0,0.3,0
		c0.2,0,0.2,0,0.3,0c0.2,0,0.2,0,0.3,0c0.2,0,0.2,0,0.3,0l0.3-0.2c0.2,0,0.2-0.2,0.3-0.2c0.2-0.2,0.3-0.3,0.6-0.3
		c0-0.2,0.2-0.2,0.2-0.3l0.2-0.2c0,0,0-0.2,0.2-0.2c0.2-0.2,0.2-0.3,0.3-0.5c0-0.2,0-0.2,0.2-0.3c0-0.2,0-0.2,0-0.2
		c0-0.2,0-0.3,0-0.3c0-0.2,0-0.3,0-0.3s0,0.2,0,0.3c0,0.2,0,0.3,0,0.5c0,0.2,0,0.2,0,0.3c0,0.2,0,0.2,0,0.3s-0.2,0.5-0.2,0.6
		c-0.2,0.2-0.3,0.5-0.5,0.6c-0.2,0.2-0.2,0.2-0.3,0.3l-0.2,0.2l-0.2,0.2c-0.2,0-0.2,0.2-0.3,0.2l-0.3,0.2c-0.2,0-0.3,0-0.5,0
		c-0.2,0-0.3,0-0.5,0c-0.2,0-0.3,0-0.3,0s0,0,0,0.2c0.2,0.9,0.6,1.7,1.4,2.4c0.2,0,0.3,0,0.5,0.2c0.2,0,0.3,0,0.6,0
		c0.2,0,0.5,0,0.6,0c0.3,0,0.5-0.2,0.8-0.2c0.3-0.2,0.5-0.2,0.8-0.3c0.2,0,0.3-0.2,0.3-0.2c0.2,0,0.2-0.2,0.3-0.3
		c0.2-0.2,0.5-0.3,0.6-0.6c0.2-0.2,0.2-0.2,0.3-0.3c0-0.2,0.2-0.3,0.2-0.3c0-0.2,0.2-0.3,0.2-0.3c0-0.2,0-0.3,0.2-0.3
		c0.2-0.3,0.2-0.5,0.2-0.6s0-0.5,0-0.6c0-0.2,0-0.2,0-0.3v-0.2c0-0.3,0-0.5,0-0.5s0,0.2,0.2,0.5v0.2c0,0.2,0,0.2,0,0.3
		c0,0.2,0.2,0.5,0,0.6c0,0.3,0,0.5,0,0.8c0,0.2,0,0.3-0.2,0.5c0,0.2-0.2,0.3-0.2,0.5c0,0.2-0.2,0.3-0.2,0.5
		c-0.2,0.2-0.2,0.3-0.3,0.3c-0.2,0.3-0.5,0.5-0.6,0.6c-0.2,0.2-0.3,0.2-0.3,0.3c-0.2,0.2-0.3,0.2-0.5,0.3c-0.3,0.2-0.6,0.3-0.8,0.3
		c-0.6,0.2-1.1,0.2-1.6,0.2c-0.2,0-0.5-0.2-0.6-0.2c0,0,0,0-0.2,0l0.2,0.2l9,5.8c-0.2-0.2-0.3-0.2-0.3-0.2s0.2,0,0.3,0.2
		c0.2,0,0.3,0.2,0.5,0.2c0.2,0,0.3,0.2,0.6,0.2c0.2,0,0.5,0.2,0.6,0.2c0.3,0,0.5,0,0.8,0c0.3,0,0.5,0,0.8-0.2c0.2,0,0.3,0,0.5-0.2
		c0.2,0,0.3-0.2,0.3-0.2c0.3-0.2,0.5-0.3,0.8-0.5c0.2-0.2,0.2-0.2,0.3-0.3c0.2-0.2,0.2-0.2,0.3-0.3c0.2-0.2,0.2-0.2,0.3-0.3
		c0-0.2,0.2-0.2,0.2-0.3c0.2-0.2,0.2-0.5,0.3-0.6c0.2-0.2,0.2-0.5,0.2-0.6s0-0.2,0-0.3v-0.2c0-0.3,0-0.5,0-0.5s0,0.2,0,0.5v0.2
		c0,0.2,0,0.2,0,0.3s0,0.5-0.2,0.6c0,0.2-0.2,0.5-0.3,0.8c0,0.2-0.2,0.2-0.2,0.3c-0.2,0.2-0.2,0.3-0.3,0.3c-0.2,0.2-0.2,0.2-0.3,0.3
		c-0.2,0.2-0.2,0.2-0.3,0.3c-0.3,0.2-0.5,0.3-0.8,0.5c-0.2,0-0.3,0.2-0.5,0.2s-0.3,0.2-0.5,0.2c-0.3,0.2-0.6,0.2-0.9,0.2
		c-0.6,0-1.1-0.2-1.6-0.3c0,0-0.2,0-0.2-0.2l0.5,0.3c1.1,0.6,2.2,0.8,3.3,0.5l15.9,10.2h0.2c0.2,0,0.2,0,0.3,0c0.2,0,0.2,0,0.3,0
		l0.3-0.2c0.2,0,0.2-0.2,0.3-0.2c0.2-0.2,0.3-0.3,0.6-0.3c0-0.2,0.2-0.2,0.2-0.3l0.2-0.2c0,0,0-0.2,0.2-0.2c0.2-0.2,0.2-0.3,0.3-0.5
		c0-0.2,0-0.2,0.2-0.3c0-0.2,0-0.2,0-0.2c0-0.2,0-0.3,0-0.3c0-0.2,0-0.3,0-0.3s0,0.2,0,0.3c0,0.2,0,0.3,0,0.5c0,0.2,0,0.2,0,0.3
		c0,0.2,0,0.2,0,0.3s-0.2,0.5-0.2,0.6c-0.2,0.2-0.3,0.5-0.5,0.6s-0.2,0.2-0.3,0.3l-0.2,0.2l-0.2,0.2c-0.2,0-0.2,0.2-0.3,0.2
		l-0.3,0.2c-0.2,0-0.3,0-0.5,0s-0.2,0-0.3,0c0.3,0.9,0.8,1.9,1.7,2.5l0,0l0,0c0.2,0,0.5,0,0.6,0c0.3,0,0.5-0.2,0.8-0.2
		c0.3-0.2,0.5-0.2,0.8-0.3c0.2,0,0.3-0.2,0.3-0.2c0.2,0,0.2-0.2,0.3-0.3c0.2-0.2,0.5-0.3,0.6-0.6c0.2-0.2,0.2-0.2,0.3-0.3
		c0-0.2,0.2-0.3,0.2-0.3c0-0.2,0.2-0.3,0.2-0.3c0-0.2,0-0.3,0.2-0.3c0.2-0.3,0.2-0.5,0.2-0.6c0-0.2,0-0.5,0-0.6s0-0.2,0-0.3V122
		c0-0.3,0-0.5,0-0.5s0,0.2,0.2,0.3v0.2c0,0.2,0,0.2,0,0.3s0.2,0.5,0,0.6c0,0.3,0,0.5,0,0.8c0,0.2,0,0.3-0.2,0.5
		c0,0.2-0.2,0.3-0.2,0.5s-0.2,0.3-0.2,0.5c-0.2,0.2-0.2,0.3-0.3,0.3c-0.2,0.3-0.5,0.5-0.6,0.6c-0.2,0.2-0.3,0.2-0.3,0.3
		c-0.2,0.2-0.3,0.2-0.5,0.3c-0.3,0.2-0.6,0.3-0.8,0.3c-0.5,0.2-0.8,0.2-1.1,0.2l12.9,8.2h-0.2c0,0,0.2,0.2,0.5,0.2
		c0.2,0,0.3,0.2,0.5,0.2c0.2,0.2,0.5,0.2,0.6,0.2c0.3,0,0.5,0.2,0.8,0.2c0.3,0,0.6,0,0.9,0h0.3h0.2c0.2,0,0.3-0.2,0.5-0.2
		c0.3-0.2,0.6-0.3,0.8-0.5c0.3-0.2,0.5-0.3,0.6-0.6c0.2-0.2,0.5-0.2,0.6-0.3c-0.2,0.2-0.2,0.5-0.3,0.6c-0.5,0.8-1.3,1.3-2,1.6
		l1.4,6.8c0.3,1.3,0.8,2.5,1.4,3.9v0.2c-0.2,0.3-0.3,0.9-0.6,1.6c-0.3,0.6-0.5,1.6-0.8,2.5c-0.2,0.5-0.3,0.9-0.5,1.6
		c-0.9-1.7-1.7-3.6-2.5-5.3c-0.6-1.9-1.3-3.6-1.7-5.5c0-0.2,0.2-0.3,0.2-0.3c0.2-0.8,0.5-1.4,0.6-2c0.5-1.3,0.9-2.2,1.3-3.1h-0.2
		c-0.3,0.8-0.9,1.9-1.4,3c-0.2,0.5-0.5,1.1-0.6,1.7c0-0.2,0-0.2,0-0.3c-0.5-1.9-0.8-3.8-0.9-5.5l-0.6-0.3c0.2,1.9,0.3,3.9,0.8,6
		c0.2,0.5,0.2,0.9,0.3,1.4c-0.2,0.5-0.3,0.9-0.5,1.3c-0.2,0.8-0.5,1.6-0.8,2.5c-0.2,0.5-0.2,0.9-0.3,1.3c-0.2,0.5-0.2,0.9-0.3,1.4
		c-0.2,0.8-0.3,1.4-0.5,2.2c0-0.2-0.2-0.5-0.2-0.6c-0.2-0.6-0.3-1.3-0.6-1.9c-0.2-0.6-0.3-1.3-0.5-1.9c0-0.3-0.2-0.6-0.2-0.9
		c0-0.3-0.2-0.6-0.2-0.9c-0.2-0.6-0.3-1.3-0.3-1.9c-0.2-1.3-0.3-2.4-0.3-3.5c0-0.6,0-1.1,0-1.7c0-0.5,0-1.1,0-1.6c0-0.5,0-0.8,0-1.3
		c0-0.2,0.2-0.3,0.2-0.5c0.2-0.5,0.3-0.8,0.5-1.3l-0.5-0.3c0,0,0,0.2-0.2,0.2c0-0.2,0-0.2,0-0.3l-0.3-0.2c0,0.2,0,0.3,0,0.5
		c0,0.3-0.2,0.8-0.2,1.1c-0.8,1.9-1.6,3.9-2.2,6.1c-0.2,0.6-0.3,1.1-0.5,1.7s-0.3,1.1-0.5,1.7c-0.3,1.3-0.5,2.4-0.6,3.6
		c0-0.5-0.2-0.9-0.2-1.3c0-0.3,0-0.8,0-1.1s0-0.6,0-1.1c0-0.6,0-1.4,0-2c0.2-1.3,0.2-2.7,0.3-3.8c0.2-0.6,0.2-1.3,0.3-1.7
		c0.2-0.6,0.3-1.1,0.3-1.6c0.2-0.5,0.3-1.1,0.3-1.6c0.2-0.5,0.3-0.9,0.5-1.4c0-0.2,0.2-0.5,0.2-0.6l-0.2-0.2
		c-0.2,0.2-0.2,0.5-0.3,0.6c-0.2,0.5-0.3,0.9-0.5,1.4c-0.2,0.5-0.3,0.9-0.5,1.6c-0.2,0.5-0.3,1.1-0.5,1.6c-0.2,0.6-0.2,1.1-0.3,1.7
		c-0.3,1.3-0.3,2.5-0.5,3.9c-0.2,0.6,0,1.4,0,2c0,0.3,0,0.8,0,1.1s0,0.8,0,1.1c0,0.8,0.2,1.4,0.2,2.2v0.6l0.2,0.6c0,0.2,0,0.3,0,0.5
		c-0.2,1.7-0.3,3.5-0.3,5.3c0,1.4,0,2.7,0.2,4.1c0,1.4,0.3,2.7,0.5,4.1c0.2,0.6,0.3,1.3,0.3,2l0.2,0.9v0.2l0,0l0,0l0,0v0.3l0.2,0.5
		c0.2,0.6,0.3,1.3,0.6,1.9c0.3,0.6,0.5,1.3,0.8,1.9c0.2,0.5,0.3,0.8,0.6,1.3c-0.5-0.8-0.8-1.4-1.3-2.2c-0.9-1.9-1.9-3.9-2.7-6
		c-0.8-2-1.4-4.1-1.7-6c-0.5-2-0.8-4.1-0.9-6c-0.2-2-0.2-3.9,0-5.8c0.3-3.8,1.1-7.4,2.4-10.4c0.8-2,1.7-3.8,2.8-5.3l-0.6-0.5
		c-1.1,1.6-2.2,3.5-3,5.5c-1.4,3.1-2.4,6.8-2.8,10.7c-0.3,3.9-0.2,8.2,0.6,12.3c0.5,2,1.1,4.2,1.7,6.3c0.8,2,1.6,4.1,2.7,6.1
		c2,3.9,4.6,7.9,7.6,11.3c3,3.5,6.3,6.6,9.8,9.4c1.9,1.4,3.8,2.5,5.7,3.6c2,0.9,4.1,1.9,6.1,2.5c4.1,1.3,8.3,1.7,12.3,1.7
		s7.6-0.5,11-1.3c3.3-0.8,6.3-1.6,9-2.7c1.1-0.5,2.2-0.8,3.1-1.3c0.6-0.3,1.4-0.5,1.9-0.8c1.1-0.5,2-0.9,2.8-1.3
		c2,0.5,3.8,0.3,5-0.5C-22.5,190.7-20.6,188.8-21.5,184.4z M-117.3,108c-0.2-1.1-0.8-2.2-1.9-2.8l-10.2-6.6
		c-1.1-0.6-2.2-0.8-3.3-0.5l-0.2-0.2c0.6-0.3,1.3-0.5,1.9-0.3c0.6,0,1.3,0.3,1.9,0.6l10.2,6.6c1.1,0.8,1.7,2,1.7,3.3L-117.3,108z
		 M-88.4,123.6c0.2-0.3,0.3-0.6,0.5-0.8c0,0.2,0.2,0.3,0.2,0.6l0,0c0,0.2,0,0.2,0,0.3l0.2,0.8l-0.9-0.6
		C-88.6,123.6-88.4,123.6-88.4,123.6z M-97.8,118.8c-1.1-0.6-2.2-0.8-3.3-0.5l-0.2-0.2c1.3-0.5,2.7-0.5,3.8,0.3l10.2,6.6l0.2,0.6
		L-97.8,118.8z M-41.2,151.2c0.2,0.2,0.5,0.5,0.8,0.6c0.3,0.3,0.6,0.5,0.9,0.9c0.3,0.3,0.6,0.6,1.1,1.1c0.5,0.3,0.8,0.8,1.3,1.3
		c0.5,0.5,0.8,0.9,1.3,1.4c0.3,0.5,0.8,0.9,1.3,1.4c0.5,0.5,0.8,0.9,1.1,1.6c0.3,0.5,0.8,0.9,1.1,1.6c0.3,0.5,0.6,0.9,0.9,1.4
		c0.3,0.5,0.5,0.9,0.8,1.4c0.2,0.5,0.5,0.8,0.6,1.1c0.2,0.3,0.3,0.6,0.5,0.9c0.2,0.5,0.3,0.8,0.3,0.8s-0.2-0.3-0.5-0.8
		c-0.2-0.3-0.3-0.5-0.5-0.9c-0.2-0.3-0.5-0.6-0.6-1.1c-0.3-0.5-0.5-0.8-0.8-1.3c-0.3-0.5-0.6-0.9-0.9-1.4c-0.3-0.5-0.6-0.9-1.1-1.4
		c-0.3-0.5-0.8-0.9-1.1-1.6c-0.3-0.5-0.8-0.9-1.1-1.4s-0.8-0.9-1.1-1.4c-0.3-0.5-0.8-0.9-1.1-1.3c-0.3-0.5-0.8-0.8-1.1-1.1
		C-40.3,152.2-40.9,151.6-41.2,151.2c-0.5-0.3-0.6-0.6-0.6-0.6S-41.5,150.8-41.2,151.2z M-83.2,122.6v-0.2c-0.2-1.1-0.2-1.6,0-1.7
		c0.5-0.2,2.8,0.2,7.2,3.6l31.8,25.2c6.8,5.3,13.5,14.8,14.8,20.3l3.3,15.6v0.2c0.3,1.4,0,1.9,0,1.9c-0.5,0.3-2.8,0-7.1-3.1
		l-31.5-23.6c-6.8-5-13.4-14-14.6-19.5L-83.2,122.6z M-45.5,181c0,0.2-0.2,0.5-0.2,0.8c-0.2,0.3-0.2,0.6-0.3,1.1
		c-0.2,0.3-0.2,0.8-0.3,1.3c-0.2,0.5-0.2,0.9-0.2,1.4c0,0.2,0,0.3,0,0.3c-0.3,0-0.5,0-0.8,0c-1.6,0-3.1-0.2-4.9-0.3
		c0-0.2,0-0.5,0-0.6c0-0.6,0-1.4,0-2c0-0.6,0-1.3,0-1.9c0-0.6,0-1.1,0.2-1.6c0,0,0,0,0.2,0c0.3,0,0.8,0.2,1.1,0.2
		c0.6,0.2,1.3,0.2,1.9,0.3c0.9,0.2,1.6,0.2,2.2,0.2l7.2,5.5c-0.3,0-0.6,0.2-1.1,0.2s-1.1,0.2-1.7,0.2c-0.9,0.2-2,0.2-3.1,0.2
		c0-0.2,0-0.2,0-0.3c0-0.5,0-0.9,0-1.4s0-0.8,0.2-1.3c0-0.6,0.2-1.3,0.2-1.7C-45.5,181-45.5,181-45.5,181z M-46.6,191.5v0.2
		c-0.8,0-1.6,0.2-2.5,0.2c-0.9,0-1.9,0-2.8,0c0-0.3,0-0.8-0.2-1.1c0-0.6-0.2-1.3-0.2-2c0-0.6,0-1.4-0.2-2c0-0.3,0-0.6,0-0.9
		c1.7,0.2,3.5,0.2,4.9,0.2c0.3,0,0.5,0,0.8,0c0,0.3,0,0.5,0,0.8c0,0.5,0,1.1-0.2,1.6c0,0.5,0,1.1,0,1.6
		C-46.7,190.4-46.6,191-46.6,191.5z M-59.6,181.9c0,0.6,0,1.4,0,2c-0.3-0.2-0.6-0.2-0.9-0.3c-1.3-0.5-2.5-0.9-3.6-1.4
		c-0.2-0.2-0.5-0.2-0.6-0.3c-0.2-0.8-0.2-1.6-0.2-2.5c0-0.9-0.2-2-0.2-3c0-0.5,0-0.9,0-1.4c0-0.3,0-0.5,0-0.8
		c0.5,0.3,0.9,0.5,1.4,0.8c0.9,0.5,1.9,0.9,2.8,1.4c0.5,0.2,1.1,0.5,1.6,0.6c-0.2,0.8-0.2,1.4-0.2,2.2
		C-59.5,180.2-59.6,181-59.6,181.9z M-60.7,175.9c-0.9-0.5-1.9-0.9-2.8-1.6c-0.6-0.3-1.1-0.6-1.7-1.1c0-0.8,0-1.6,0.2-2.2
		c0-0.8,0.2-1.4,0.2-2s0.2-1.1,0.2-1.6s0.2-0.8,0.2-1.1l6.4,4.7c0,0.2-0.2,0.5-0.2,0.8c-0.2,0.3-0.2,0.8-0.3,1.3
		c0,0.3-0.2,0.5-0.2,0.8s-0.2,0.6-0.2,0.9c0,0.5-0.2,0.9-0.2,1.6C-59.8,176.4-60.2,176.1-60.7,175.9z M-65,167.4
		c-0.2,0.5-0.2,0.9-0.3,1.6c0,0.3-0.2,0.6-0.2,0.9c0,0.3-0.2,0.8-0.2,1.1s-0.2,0.8-0.2,1.3c0,0.2,0,0.5,0,0.6
		c-0.2-0.2-0.3-0.2-0.5-0.3c-0.9-0.6-1.9-1.4-2.8-2c-0.8-0.6-1.6-1.3-2.4-2l0,0c0-0.5,0-0.9,0-1.4s0-0.8,0-1.3c0-0.5,0-0.8,0.2-1.1
		c0-0.8,0.2-1.3,0.2-1.9c0.2-0.6,0.2-1.3,0.2-1.4c1.1,1.1,2.4,2,3.6,3l2.7,2C-64.6,166.7-64.8,167-65,167.4z M-65.9,179.4
		c0,0.6,0,1.3,0.2,1.9c0,0-0.2,0-0.2-0.2c-0.6-0.3-1.3-0.6-1.9-0.9s-1.3-0.8-1.7-1.1c-0.3-0.2-0.6-0.3-0.9-0.6
		c-0.2-0.2-0.5-0.3-0.6-0.5c0-0.5-0.2-0.9-0.2-1.6c-0.2-1.1-0.2-2.2-0.3-3.3c0-0.5,0-1.1,0-1.6c0-0.5,0-1.1,0-1.6c0-0.2,0-0.2,0-0.3
		c0.6,0.5,1.3,1.1,1.9,1.6c0.5,0.3,0.9,0.8,1.4,1.1c0.5,0.3,0.9,0.6,1.4,0.9c0.3,0.2,0.6,0.3,0.9,0.5c0,0.8-0.2,1.7-0.2,2.7
		C-65.9,177.4-66.1,178.3-65.9,179.4z M-71.3,162.9c-0.2,0.5-0.3,1.1-0.3,1.9c0,0.3-0.2,0.8-0.2,1.1c0,0.5-0.2,0.8-0.2,1.3
		c0,0.3,0,0.6-0.2,0.9c-0.8-0.8-1.7-1.6-2.5-2.5c-0.5-0.5-0.9-0.9-1.3-1.4c-0.5-0.5-0.8-0.9-1.3-1.4c-0.3-0.5-0.8-0.8-1.1-1.3v-0.2
		c0-0.5,0.2-1.1,0.2-1.6c0-0.5,0.2-0.9,0.2-1.4c0-0.5,0.2-0.8,0.2-1.3c0-0.3,0.2-0.8,0.2-0.9c0.2-0.8,0.3-1.4,0.3-1.7
		c1.9,2.5,4.1,4.9,6.3,6.9C-70.9,161.6-71.1,162.1-71.3,162.9z M-77.9,163.4c0.5,0.5,0.8,0.9,1.3,1.4c0.5,0.5,0.9,0.9,1.3,1.4
		c0.9,1.1,2,2,3,2.8c0,0.3,0,0.6,0,0.8c0,0.5,0,1.1,0,1.6c0,0.5,0,1.1,0,1.6c0,1.1,0,2.2,0.2,3.5c0,0.2,0,0.5,0,0.6
		c-0.3-0.3-0.6-0.5-1.1-0.8c-0.6-0.5-1.1-0.9-1.7-1.4c-0.3-0.3-0.6-0.5-0.8-0.8l-0.8-0.8c-0.5-0.5-1.1-1.1-1.6-1.6
		c-0.2-1.1-0.2-2.4-0.3-3.5c0-0.6,0-1.3,0-1.9c0-0.3,0-0.6,0-0.9s0-0.6,0-0.9c0-0.6,0-1.3,0-1.7v-0.2C-78.2,163-78,163.2-77.9,163.4
		z M-78.2,177c0.3,1.4,0.6,2.8,1.1,4.1c0.2,0.8,0.5,1.6,0.8,2.5l-0.6-0.5c-0.3-0.3-0.6-0.6-1.1-0.8l-0.9-0.8l-0.5-0.5
		c-0.2-0.2-0.3-0.3-0.5-0.5c-0.6-0.6-1.3-1.3-1.9-1.9l-0.6-0.6c0-0.2-0.2-0.3-0.2-0.5c-0.5-1.6-0.9-3.3-1.3-4.9
		c-0.3-1.7-0.6-3.3-0.8-5c0-0.8-0.2-1.7-0.2-2.5c0.9,1.4,2,2.8,3.1,4.1c0.9,1.1,1.9,2.2,2.8,3.1c0,0.2,0,0.3,0,0.3
		C-78.6,174.2-78.3,175.6-78.2,177z M-76.1,180.8c-0.5-1.3-0.8-2.7-1.1-4.1c-0.2-1.1-0.5-2.2-0.6-3.5c0.3,0.3,0.5,0.5,0.8,0.8
		l0.8,0.8c0.3,0.3,0.6,0.5,0.8,0.8c0.6,0.5,1.1,0.9,1.7,1.4c0.6,0.5,1.1,0.8,1.7,1.3c0,0.6,0.2,1.1,0.3,1.7c0.3,1.1,0.5,2.4,0.8,3.5
		c0.3,1.1,0.6,2.2,0.9,3.3c0.2,0.3,0.2,0.5,0.3,0.8c-1.7-0.9-3.6-2-5.3-3.1C-75.3,183.3-75.8,182.1-76.1,180.8z M-70.2,183.3
		c-0.3-1.1-0.5-2.2-0.6-3.5c0-0.3,0-0.5-0.2-0.8c0.3,0.2,0.6,0.3,0.9,0.6c0.6,0.3,1.3,0.8,1.9,1.1c0.6,0.3,1.3,0.6,1.9,0.9
		c0.2,0.2,0.5,0.2,0.6,0.3c0,0.2,0,0.2,0,0.3c0.2,0.9,0.3,2,0.5,3c0.2,0.9,0.5,1.9,0.6,2.8c0.2,0.5,0.3,0.9,0.5,1.4v0.2
		c-0.2,0-0.3-0.2-0.6-0.2c-0.8-0.3-1.6-0.5-2.4-0.8c-0.6-0.3-1.3-0.5-1.9-0.8c-0.2-0.5-0.3-0.9-0.5-1.6
		C-69.5,185.5-69.8,184.4-70.2,183.3z M-64.3,185.2c-0.2-0.9-0.3-1.7-0.5-2.7c0.2,0,0.2,0.2,0.3,0.2c1.3,0.6,2.5,0.9,3.8,1.4
		c0.3,0.2,0.8,0.3,1.1,0.3c0.2,0.8,0.2,1.6,0.3,2.4c0,0.8,0.3,1.6,0.5,2.4c0,0.3,0.2,0.8,0.2,1.1c0,0.2,0,0.3,0.2,0.6
		c0,0.2,0,0.2,0,0.3c-0.5-0.2-0.9-0.2-1.6-0.3c-0.8-0.2-1.6-0.3-2.4-0.6c-0.3-0.2-0.6-0.2-0.9-0.3c0-0.2-0.2-0.5-0.2-0.8
		c-0.2-0.5-0.2-0.9-0.3-1.4C-63.9,187.3-64.2,186.3-64.3,185.2z M-58.5,184.7c1.7,0.5,3.5,0.8,5.2,0.9c0.2,0,0.3,0,0.3,0
		c0,0.3,0,0.6,0,0.9c0,0.6,0.2,1.4,0.2,2c0,0.6,0.2,1.4,0.2,2c0,0.3,0.2,0.6,0.2,0.9c-1.6,0-3.3-0.2-5-0.5l0,0
		c0-0.2-0.2-0.3-0.2-0.5c0-0.2,0-0.3-0.2-0.6c0-0.3-0.2-0.8-0.2-1.1c-0.2-0.8-0.3-1.6-0.3-2.4C-58.4,186.2-58.5,185.5-58.5,184.7z
		 M-52.7,180.8c-0.2,0.6-0.2,1.3-0.2,1.9c0,0.6-0.2,1.3-0.2,2c0,0.2,0,0.3,0,0.6c-0.2,0-0.2,0-0.3,0c-1.7-0.3-3.5-0.6-5.2-1.1
		c0-0.8,0-1.6,0-2.4s0-1.6,0-2.4c0-0.5,0-0.8,0-1.1s0-0.6,0-0.8c0.2,0,0.3,0.2,0.5,0.2c0.9,0.3,1.7,0.6,2.7,0.8
		c0.5,0.2,0.8,0.2,1.3,0.3s0.8,0.2,1.3,0.3c0.2,0,0.3,0,0.5,0.2l0,0C-52.5,179.7-52.7,180.2-52.7,180.8z M-53,178.8
		c-0.3-0.2-0.8-0.2-1.1-0.3c-0.5-0.2-0.8-0.2-1.3-0.3c-0.8-0.3-1.7-0.6-2.5-0.9c-0.2-0.2-0.5-0.2-0.6-0.3c0-0.6,0-1.3,0.2-1.7
		c0-0.3,0-0.6,0-0.9s0-0.6,0.2-0.8c0-0.5,0.2-0.9,0.2-1.3s0-0.5,0-0.8l6.3,4.7c0,0.2-0.2,0.3-0.2,0.6c0,0.3-0.2,0.6-0.3,1.1
		c0,0.2-0.2,0.5-0.2,0.6s0,0.3,0,0.5C-52.7,178.8-52.8,178.8-53,178.8z M-51.7,176.7c0-0.3,0-0.5,0-0.6l4.9,3.6
		c-0.5,0-1.3-0.2-2-0.2c-0.6-0.2-1.1-0.2-1.9-0.3c-0.3,0-0.6-0.2-1.1-0.2h-0.2c0-0.5,0-0.8,0.2-1.1C-51.9,177.4-51.7,177-51.7,176.7
		z M-44.2,177.5c-2.5-1.9-5.7-4.1-8.8-6.6c-3.1-2.4-6.6-5-10.1-7.6c-1.7-1.3-3.5-2.7-5-4.1c-1.6-1.4-3-3-4.2-4.4
		c-1.3-1.6-2.5-3.1-3.5-4.6c-1.1-1.6-1.9-3-2.7-4.4s-1.3-2.8-1.7-4.1c-0.5-1.3-0.6-2.4-0.8-3.3c-0.3-1.9-0.6-2.8-0.6-2.8
		s0.3,1.1,0.6,2.8c0.2,0.9,0.5,2,0.9,3.3c0.5,1.3,1.1,2.5,1.7,3.9c0.8,1.4,1.7,2.8,2.7,4.4c1.1,1.6,2.2,3,3.6,4.6
		c1.3,1.6,2.7,3,4.2,4.4s3.1,2.7,4.9,3.9c3.5,2.5,6.8,5.2,10.1,7.6c3.1,2.4,6.1,4.7,8.8,6.6c5,3.9,8.5,6.6,8.5,6.6
		S-39,181.3-44.2,177.5z M-83.8,152.2c0.2-0.6,0.2-1.1,0.3-1.6c0.3-0.9,0.5-1.9,0.6-2.7c0.2-0.8,0.3-1.3,0.5-1.7V146
		c1.3,2.7,3,5.5,5,8.3c-0.2,0.3-0.3,0.8-0.5,1.7c0,0.3-0.2,0.6-0.3,0.9c0,0.3-0.2,0.8-0.3,1.3c-0.2,0.5-0.2,0.9-0.3,1.4
		c0,0.3-0.2,0.8-0.2,1.3c-0.3-0.3-0.6-0.8-0.8-1.1c-0.5-0.5-0.8-1.1-1.1-1.6c-0.3-0.5-0.8-1.1-1.1-1.6c-0.3-0.5-0.6-1.1-0.9-1.6
		c-0.3-0.5-0.6-1.1-0.9-1.6c-0.2-0.2-0.3-0.5-0.3-0.6C-84,152.5-84,152.3-83.8,152.2z M-84.2,154.1c0.3,0.5,0.5,0.9,0.8,1.4
		c0.3,0.5,0.6,1.1,0.9,1.7c0.3,0.5,0.8,1.1,1.1,1.6c0.3,0.5,0.6,1.1,1.1,1.6c0.5,0.6,0.9,1.3,1.4,1.9c0,0.3,0,0.5-0.2,0.8
		c0,0.6-0.2,1.1-0.2,1.7c0,0.3,0,0.6,0,0.9s0,0.6,0,0.9c0,0.6,0,1.3,0,2s0,1.6,0.2,2.4c-0.6-0.8-1.4-1.6-2-2.4
		c-1.4-1.7-2.7-3.5-3.9-5.2c0-0.2,0-0.5,0-0.6c0-1.6,0-3.1,0.2-4.6C-84.6,156.6-84.5,155.3-84.2,154.1z M-90.8,151.1
		c0.2-0.9,0.3-1.9,0.5-2.8c0-0.5,0.2-0.9,0.3-1.4c0.2-0.5,0.2-0.9,0.3-1.3c0.2-0.8,0.5-1.7,0.6-2.5c0-0.2,0.2-0.3,0.2-0.6
		c0.3,1.4,0.8,3,1.4,4.4c0.8,2.2,1.7,4.2,2.8,6.3c0,0.2-0.2,0.3-0.2,0.6c-0.3,1.3-0.5,2.7-0.6,4.1c-0.2,1.3-0.3,2.7-0.3,4.1
		c-0.2-0.3-0.3-0.6-0.6-0.9c-1.6-2.5-2.8-5.2-3.9-7.7c-0.3-0.6-0.5-1.1-0.6-1.7C-90.8,151.6-90.8,151.4-90.8,151.1z M-91.1,154.1
		c0-0.2,0-0.3,0-0.5c0,0.2,0,0.2,0.2,0.3c1.1,2.7,2.4,5.3,3.9,7.9c0.5,0.6,0.8,1.4,1.3,2c0,1.3,0,2.7,0.2,3.9c0.2,1.7,0.5,3.5,0.8,5
		c0.3,1.3,0.6,2.5,0.9,3.8c-2.4-2.5-4.4-5.3-6.3-8.2c-0.2-0.2-0.3-0.5-0.5-0.6c0-0.3-0.2-0.6-0.2-0.8c-0.3-2.2-0.5-4.2-0.6-6.4
		C-91.2,158.2-91.2,156.1-91.1,154.1z M-97.1,147c0.2-1.3,0.5-2.5,0.6-3.6c0.2-0.6,0.3-1.1,0.5-1.7s0.3-1.1,0.5-1.7
		c0.5-1.6,0.9-3,1.4-4.4c0,0.5,0,0.9,0,1.6c0,0.5,0,1.1,0,1.7c0,1.1,0.2,2.4,0.3,3.6c0,0.6,0.2,1.3,0.3,1.9c0,0.3,0.2,0.6,0.2,0.9
		c0,0.3,0.2,0.6,0.2,0.9c0.3,1.9,0.9,3.9,1.7,6c0,0.2,0,0.3-0.2,0.5c0,0.5-0.2,0.9-0.2,1.6c-0.2,2-0.3,4.2-0.3,6.3
		c0,1.7,0.2,3.5,0.3,5.2c-1.1-2-2.2-4.2-3-6.4c-0.3-0.8-0.6-1.6-0.8-2.4c-0.3-0.8-0.5-1.6-0.8-2.4c-0.3-1.6-0.8-3-1.1-4.6
		C-97.2,149-97.2,147.9-97.1,147z M-79.4,189.9c-0.5-0.3-0.8-0.6-1.3-0.9l-1.3-1.1c-0.8-0.8-1.6-1.4-2.4-2.2
		c-1.4-1.4-2.8-2.8-4.1-4.2c-0.9-1.3-1.9-2.5-2.8-3.9c-1.4-2.2-2.5-4.4-3.5-6.9c-0.2-0.6-0.5-1.3-0.6-1.9c-0.2-0.6-0.3-1.3-0.6-1.9
		l-0.2-0.5V166l0,0l0,0l0,0v-0.2l-0.2-0.9c-0.2-0.6-0.3-1.3-0.3-2c-0.2-1.3-0.3-2.7-0.5-3.9c-0.2-1.3-0.2-2.7-0.2-3.9
		c0-0.6,0-1.4,0-2c0.2,0.6,0.3,1.4,0.5,2c0.5,1.6,0.9,3.1,1.6,4.7c1.1,2.8,2.4,5.7,4.1,8.3c0.2,0.8,0.3,1.6,0.5,2.4
		c0.2,0.5,0.3,1.1,0.3,1.6l0.2,0.8l0.2,0.5v0.2c0,0.2,0,0.2,0,0.2c0.6,2,1.4,4.1,2.5,6c0.9,1.9,2,3.5,3.3,5c1.1,1.4,2.4,2.8,3.5,3.9
		c0.8,0.8,1.6,1.6,2.4,2.2C-78.8,190.3-79.1,190.1-79.4,189.9z M-73.9,193.2c-0.8-0.5-1.7-0.9-2.5-1.4c-0.3-0.3-0.6-0.5-0.9-0.8
		c-0.9-0.9-2-2-3.1-3.1c-1.1-1.3-2.2-2.5-3.3-4.1c-1.1-1.6-2.2-3.1-3.1-5c-0.9-1.7-1.7-3.8-2.4-5.8v-0.2v-0.2l-0.2-0.5l-0.2-0.8
		c-0.2-0.5-0.3-1.1-0.3-1.6v-0.2c1.7,2.7,3.6,5.2,5.8,7.6l1.1,1.3c0.5,1.3,0.9,2.7,1.6,3.8c0.6,1.4,1.4,2.8,2.2,4.1
		c0.3,0.6,0.8,1.3,1.3,1.7c0.5,0.6,0.8,1.1,1.3,1.6c0.5,0.5,0.8,0.9,1.3,1.4c0.5,0.5,0.8,0.8,1.1,1.3c0.3,0.3,0.8,0.6,1.1,0.9
		c0,0,0.2,0,0.2,0.2C-73.6,193.6-73.8,193.4-73.9,193.2z M-72.7,194c-0.2-0.2-0.5-0.5-0.6-0.6c-0.3-0.3-0.6-0.6-0.9-1.1
		c-0.3-0.3-0.6-0.8-1.1-1.3c-0.3-0.5-0.8-0.9-1.1-1.4c-0.8-1.1-1.6-2.2-2.2-3.5c-0.8-1.3-1.4-2.7-2-4.1c-0.3-0.6-0.6-1.4-0.8-2
		c0.5,0.3,0.8,0.8,1.3,1.1c0.2,0.2,0.3,0.3,0.5,0.5l0.5,0.5l1.1,0.8c0.3,0.3,0.6,0.6,1.1,0.8l1.1,0.8c0.2,0.2,0.5,0.3,0.6,0.5l0,0
		c0.3,0.6,0.6,1.3,0.8,1.7c0.2,0.3,0.3,0.6,0.5,0.9c0.2,0.3,0.3,0.6,0.5,0.8c0.3,0.5,0.6,1.1,0.9,1.6c0.3,0.5,0.6,0.9,0.9,1.4
		c0.3,0.5,0.6,0.9,0.9,1.3c0.3,0.3,0.6,0.8,0.9,1.1c0.3,0.3,0.5,0.6,0.8,0.9c0.2,0.2,0.3,0.5,0.5,0.6C-70.3,195-71.4,194.5-72.7,194
		z M-68.3,195.8c-0.2,0-0.3-0.2-0.5-0.2l0,0c-0.2-0.3-0.5-0.5-0.6-0.8c-0.2-0.3-0.5-0.6-0.6-0.9c-0.3-0.3-0.5-0.8-0.8-1.1
		c-0.3-0.5-0.5-0.8-0.8-1.3c-0.3-0.5-0.6-0.9-0.8-1.4c-0.3-0.5-0.5-1.1-0.8-1.6c-0.2-0.3-0.3-0.5-0.5-0.8c-0.2-0.3-0.3-0.6-0.3-0.9
		c-0.2-0.2-0.2-0.5-0.3-0.6c1.7,1.1,3.3,2,5.2,2.8c0,0.2,0.2,0.3,0.2,0.3c0.2,0.3,0.2,0.5,0.3,0.6c0.2,0.5,0.5,0.9,0.6,1.4
		c0.2,0.5,0.5,0.8,0.6,1.3c0.2,0.3,0.5,0.8,0.6,1.1c0.2,0.3,0.5,0.6,0.6,0.9c0.2,0.3,0.3,0.6,0.5,0.8c0.2,0.3,0.3,0.5,0.5,0.6
		c0.2,0.2,0.3,0.5,0.5,0.6C-65.9,196.4-67,196.1-68.3,195.8z M-64.6,196.7c-0.2-0.2-0.3-0.5-0.5-0.8c-0.2-0.2-0.3-0.5-0.5-0.8
		c-0.2-0.3-0.3-0.6-0.5-0.9c-0.2-0.3-0.3-0.6-0.5-0.9c-0.2-0.3-0.3-0.8-0.5-1.1c-0.2-0.5-0.3-0.8-0.6-1.3c-0.2-0.5-0.3-0.9-0.5-1.4
		c0-0.2-0.2-0.3-0.2-0.5c0.3,0.2,0.8,0.3,1.1,0.5c0.8,0.3,1.6,0.6,2.4,0.8c0.3,0.2,0.8,0.3,1.1,0.3v0.2c0.2,0.5,0.3,0.8,0.5,1.3
		c0.2,0.3,0.3,0.8,0.5,1.1c0.2,0.3,0.3,0.6,0.5,0.9c0.2,0.3,0.3,0.6,0.5,0.9c0.2,0.3,0.3,0.5,0.5,0.8c0.2,0.3,0.3,0.5,0.3,0.6
		c0.2,0.3,0.3,0.5,0.5,0.8C-62,197.2-63.2,197-64.6,196.7z M-56.5,197.6c-1.3,0-2.7-0.2-4.1-0.3c-0.2-0.2-0.2-0.5-0.3-0.8
		c-0.2-0.2-0.2-0.5-0.3-0.6c-0.2-0.3-0.2-0.5-0.3-0.8c-0.2-0.3-0.3-0.6-0.3-0.9c-0.2-0.3-0.3-0.6-0.3-1.1c-0.2-0.3-0.3-0.8-0.3-1.1
		c-0.2-0.3-0.2-0.6-0.3-0.9c0.2,0,0.3,0,0.5,0.2c0.8,0.2,1.6,0.3,2.4,0.5c0.6,0.2,1.3,0.2,1.9,0.3c0.2,0.5,0.3,1.1,0.5,1.6
		c0.2,0.3,0.2,0.6,0.3,0.9c0.2,0.3,0.2,0.5,0.3,0.8c0.2,0.5,0.3,0.9,0.5,1.3c0.3,0.6,0.5,1.1,0.5,1.1s-0.2-0.5-0.3-1.1
		c-0.2-0.3-0.2-0.8-0.3-1.3c0-0.3-0.2-0.5-0.2-0.8c0-0.3-0.2-0.6-0.2-0.9c-0.2-0.5-0.2-0.9-0.3-1.3c1.7,0.2,3.5,0.3,5,0.3
		c0,0.2,0,0.2,0,0.3c0.2,0.6,0.3,1.1,0.3,1.7c0,0.3,0.2,0.5,0.2,0.8c0,0.2,0.2,0.5,0.2,0.6c0.2,0.5,0.3,0.8,0.3,1.1
		c0.2,0.3,0.2,0.5,0.2,0.6C-52.8,197.6-54.6,197.6-56.5,197.6z M-45.8,196.7c-1.7,0.3-3.5,0.5-5.3,0.6c0-0.2,0-0.3-0.2-0.6
		c0-0.3-0.2-0.6-0.2-1.1c0-0.2,0-0.5-0.2-0.6c0-0.2,0-0.5-0.2-0.8c0-0.5-0.2-1.1-0.2-1.6v-0.2c0.9,0,1.9,0,2.8-0.2
		c0.8,0,1.7-0.2,2.5-0.2c0,0.3,0,0.5,0,0.8c0,0.5,0.2,0.9,0.2,1.3c0,0.3,0.2,0.8,0.2,1.1c0,0.3,0.2,0.6,0.2,0.8
		C-45.8,196.4-45.8,196.7-45.8,196.7s0-0.3,0-0.8c0-0.5,0-1.1,0-1.9c0-0.3,0-0.8,0-1.3c0-0.3,0-0.5,0-0.8c1.4-0.2,2.8-0.5,4.1-0.6
		c0.8-0.2,1.4-0.3,2.2-0.5c0,0.5,0,0.8,0,1.3c0,0.3,0,0.6,0,0.9c0,0.3,0,0.6,0,0.8c0,0.5,0,0.9,0,1.3v0.2
		C-41.5,195.9-43.6,196.4-45.8,196.7z M-39.6,190.6c-0.6,0.2-1.4,0.3-2.2,0.5c-1.3,0.2-2.5,0.5-3.9,0.6v-0.2c0-0.9,0-2,0-3
		c0-0.8,0-1.6,0.2-2.4c1.3,0,2.2-0.2,3.1-0.3c0.6,0,1.3-0.2,1.7-0.2c0.5,0,0.8-0.2,1.3-0.2l0.6,0.5c0,0.2,0,0.3-0.2,0.5
		c0,0.3-0.2,0.5-0.2,0.8s-0.2,0.6-0.2,0.9c-0.2,0.6-0.2,1.3-0.3,2C-39.5,190.3-39.5,190.4-39.6,190.6z M-38.8,187.3
		c0-0.3,0-0.6,0.2-0.8c0-0.2,0-0.3,0-0.5l2.8,2c0.6,0.5,1.1,0.8,1.6,1.1c-0.6,0.2-1.3,0.3-2,0.6c-0.8,0.2-1.7,0.5-2.8,0.6
		c0-0.2,0-0.2,0-0.3c0-0.6,0.2-1.4,0.2-2C-38.8,187.7-38.8,187.4-38.8,187.3z M-37,194.5c-0.8,0.3-1.7,0.5-2.7,0.8v-0.2
		c0-0.3,0-0.8,0.2-1.3c0-0.3,0-0.5,0-0.8s0-0.6,0.2-0.9c0-0.5,0-0.9,0.2-1.4c1.1-0.3,2-0.5,2.8-0.8c0.8-0.2,1.4-0.5,2-0.6
		c0,0,0,0,0.2,0c0.6,0.3,1.1,0.6,1.6,0.9c0,0.2,0,0.2,0,0.3c-0.2,0.6-0.2,1.3-0.2,1.7c0,0.3,0,0.6,0,0.8
		C-34,193.6-35.4,194-37,194.5z M-30.4,192.1c-0.8,0.3-1.6,0.6-2.4,0.9c0-0.2,0.2-0.3,0.2-0.6c0.2-0.5,0.3-1.1,0.3-1.7v-0.2
		c0.9,0.5,1.9,0.9,2.7,1.1C-29.7,191.8-30,192-30.4,192.1z M-21.7,186.9c-0.2,0.8-0.3,1.6-0.8,2.2c-0.5,0.6-1.1,1.3-1.9,1.7
		c-0.8,0.3-1.7,0.5-2.5,0.5c-0.9,0-1.7-0.2-2.5-0.5c-0.8-0.2-1.6-0.6-2.4-0.9c-1.4-0.8-2.7-1.6-3.8-2.4c-1.1-0.8-1.9-1.4-2.4-1.9
		c-0.6-0.5-0.9-0.8-0.9-0.8s1.4,0.9,3.5,2.4c0.5,0.3,1.1,0.8,1.7,1.1c0.6,0.3,1.3,0.8,2,1.1c0.8,0.3,1.4,0.6,2.2,0.9
		c0.8,0.2,1.6,0.3,2.4,0.5c0.8,0,1.6-0.2,2.4-0.5c0.8-0.3,1.4-0.9,1.7-1.6c0.5-0.6,0.6-1.4,0.8-2c0.2-0.6,0.2-1.4,0.2-2
		c-0.2-1.3-0.3-2.4-0.5-3c-0.2-0.8-0.2-1.1-0.2-1.1s0.2,0.5,0.3,1.1c0.2,0.3,0.2,0.8,0.3,1.3c0.2,0.5,0.3,1.1,0.3,1.7
		C-21.7,185.4-21.7,186.2-21.7,186.9z"/>
	<path class="st1" d="M-234.1,35.1c0,0.2-0.2,0.5-0.3,0.8c0,0.2-0.2,0.2-0.2,0.3c-0.2,0.2-0.2,0.3-0.3,0.3c-0.2,0.2-0.2,0.2-0.3,0.3
		c-0.2,0.2-0.2,0.2-0.3,0.3c-0.3,0.2-0.5,0.3-0.8,0.5c-0.2,0-0.3,0.2-0.5,0.2h-0.2l33.2,21.2c0.3-1.3,0.9-2.5,1.9-3.6
		c0.3-0.3,0.8-0.8,1.3-0.9l-32.9-20.8c0-0.2,0-0.3,0-0.5l33.4,21.2c0.2-0.2,0.3-0.2,0.5-0.2l-33.8-21.7c-0.2-1.3-0.8-2.4-1.9-3.1
		l-41.4-26.6c-1.6-0.9-3.6-0.9-5,0.3c-0.2,0.2-0.6,0.3-0.9,1.1c-0.3,0.2-0.5,0.5-0.6,0.8c-0.6,0.9-0.8,2-0.6,3s0.6,1.7,1.4,2.4
		c0.2,0,0.2,0,0.3,0.2c0.2,0,0.5,0.2,0.6,0.2c0.3,0,0.5,0,0.8,0s0.5,0,0.8-0.2c0.2,0,0.3,0,0.5-0.2c0.2,0,0.3-0.2,0.3-0.2
		c0.3-0.2,0.5-0.3,0.8-0.5c0.2-0.2,0.2-0.2,0.3-0.3c0.2-0.2,0.2-0.2,0.3-0.3s0.2-0.2,0.3-0.3c0-0.2,0.2-0.2,0.2-0.3
		c0.2-0.2,0.2-0.5,0.3-0.6s0.2-0.5,0.2-0.6c0-0.2,0-0.2,0-0.3V6.8c0-0.3,0-0.5,0-0.5s0,0.2,0,0.5V7c0,0.2,0,0.2,0,0.3
		c0,0.2,0,0.5-0.2,0.6c0,0.2-0.2,0.5-0.3,0.8c0,0.2-0.2,0.2-0.2,0.3c-0.2,0.2-0.2,0.3-0.3,0.3c-0.2,0.2-0.2,0.2-0.3,0.3
		s-0.2,0.2-0.3,0.3c-0.3,0.2-0.5,0.3-0.8,0.5c-0.2,0-0.3,0.2-0.5,0.2c-0.2,0-0.3,0.2-0.5,0.2c0,0.3-0.3,0.3-0.6,0.3s-0.6,0-0.9-0.2
		l41.2,26.4c-0.2,0-0.2-0.2-0.2-0.2s0.2,0,0.3,0.2c0.2,0,0.3,0.2,0.5,0.2s0.3,0.2,0.6,0.2c0.2,0,0.5,0.2,0.6,0.2c0.3,0,0.5,0,0.8,0
		s0.5,0,0.8-0.2c0.2,0,0.3,0,0.5-0.2c0.2,0,0.3-0.2,0.3-0.2c0.3-0.2,0.5-0.3,0.8-0.5c0.2-0.2,0.2-0.2,0.3-0.3
		c0.2-0.2,0.2-0.2,0.3-0.3c0.2-0.2,0.2-0.2,0.3-0.3c0-0.2,0.2-0.2,0.2-0.3c0.2-0.2,0.2-0.5,0.3-0.6c0.2-0.2,0.2-0.5,0.2-0.6
		c0-0.2,0-0.2,0-0.3v-0.2c0-0.3,0-0.5,0-0.5s0,0,0,0.2v0.2l0,0v0.2c0,0.2,0,0.2,0,0.3C-233.9,34.8-233.9,35-234.1,35.1z
		 M-234.1,33.3c-0.2-1.1-0.8-2.2-1.9-2.8l-41.7-26.7c-1.1-0.6-2.4-0.8-3.5-0.5c1.3-0.8,2.8-0.8,4.1,0l41.4,26.7
		c1.3,0.8,1.9,2.2,1.7,3.5L-234.1,33.3z"/>
	<g id="Light_Logo">
		<g>
			<path class="st1" d="M-121.1,59.8c-4.2-2-2.5-11.8,10.4-14.3c18.9-3.6,42.8,28.6-9.4,42.9c0,0,15.1-4.7,21.2-12.9
				c11.6-15.4-3.8-23.8-9.8-21.2C-115.5,57.5-115.9,62.4-121.1,59.8z"/>
			<path class="st1" d="M-225.6,59.8c4.2-2,2.5-11.8-10.4-14.3c-18.9-3.6-42.8,28.6,9.4,42.9c0,0-15.1-4.7-21.2-12.9
				c-11.6-15.4,3.8-23.8,9.8-21.2C-231.2,57.5-230.8,62.4-225.6,59.8z"/>
		</g>
		<path class="st1" d="M-125.5,59.4c-1.6-21.2-14.5-35.1-35.7-37.9c-2-0.3-6.6-0.6-12.1-0.8c-5.3,0-9.9,0.5-12.1,0.8
			c-11.3,1.4-20.5,6.1-26.6,13.4c-5.3,6.3-8.5,14.6-9.3,24.5c-2,26.7,25,46.9,25,46.9s-20.6-28.5-8.2-39.5
			c13.5-12.1,28.5,2,31.1,4.7c2.7-2.7,17.8-16.8,31.1-4.7c12.4,11.2-8.3,39.5-8.3,39.5S-123.6,86.1-125.5,59.4z"/>
		<g>
			<path class="st1" d="M-163.9,87.5c0,0,7.1-17.1,16-4.4C-147.9,83-149.6,89.4-163.9,87.5z"/>
			<path class="st1" d="M-182.9,87.5c0,0-7.1-17.1-16-4.4C-198.8,83-197.1,89.4-182.9,87.5z"/>
		</g>
		<path class="st1" d="M-173.5,126.4c-6.8-0.3-15.1-1.9-25-5.5c0.5,6.3,6.9,12.7,25,16.2l0,0l0,0c18.1-3.6,24.5-9.9,25-16.2
			C-158.2,124.5-166.6,125.9-173.5,126.4z"/>
		<path class="st1" d="M-193,121.5c1.1,0.2,2.2,0.3,3.1,0.5c1.1,0.2,2.2,0.3,3.3,0.5c4.2,0.5,8.7,0.6,13.1,0.6
			c4.4,0,8.7-0.3,13.1-0.8c4.1-0.5,8.2-1.3,12.1-2c0.9-14.3-25-30.7-25-30.7s-26.1,16.5-25,30.8C-196.6,120.9-194.7,121.2-193,121.5
			z"/>
		<g>
			<path class="st2" d="M-171.6,109.1c0,0,0.6-2.8,2.7-3.3c2-0.5,2.5-3.5,2.5-3.5S-165.3,110.3-171.6,109.1z"/>
			<path class="st2" d="M-175.1,109.1c0,0-0.6-2.8-2.7-3.3c-2-0.5-2.5-3.5-2.5-3.5S-181.4,110.3-175.1,109.1z"/>
		</g>
		<g>
			<path class="st1" d="M-150.5,106.2c0,0,21.1,24.5-22.8,30.8c0,0,46.4,2.8,31.6-39L-150.5,106.2z"/>
			<path class="st1" d="M-196.2,106.2c0,0-21.1,24.5,22.8,30.8c0,0-46.4,2.8-31.6-39L-196.2,106.2z"/>
		</g>
		<path class="st1" d="M-180.6,22.2c0,0,6.4,0.2,6-4.4c-0.5-4.6-6.6-6.3-11.8-2.2c0,0,6.3-8.8,16-3.6c8.7,4.7,1.7,14,1.7,14"/>
	</g>
	<path d="M263.3,184.4l-3.3-15.6c-1.4-6.6-8.7-16.8-16.5-23l-31.8-25.2c-5.3-4.2-9.8-5.7-12.6-3.9c-1.1,0.6-2.7,2.2-2.2,5.8
		c0-0.3-0.2-0.6-0.2-1.1c0-0.6-0.2-1.4,0-2.2c0-0.2,0.2-0.5,0.2-0.6s0.2-0.5,0.2-0.6c0.2-0.5,0.3-0.8,0.6-1.1
		c0.6-0.8,1.4-1.3,2.4-1.6c0.9-0.3,2-0.2,3.1,0c2.2,0.6,4.4,1.9,6.4,3.3c1.1,0.8,2,1.6,3.1,2.5c1.1,0.8,2.2,1.7,3.3,2.7
		c4.4,3.6,9.3,7.4,14,11.2c2.4,1.9,4.7,3.8,7.1,5.7c1.1,0.9,2.4,1.9,3.5,2.8c1.1,0.9,2.4,1.9,3.5,2.7c2.2,1.9,4.1,3.8,5.8,5.8
		c1.7,2,3.3,3.9,4.6,5.8c1.3,1.9,2.4,3.8,3.1,5.3c0.8,1.7,1.4,3.1,1.7,4.6c0.3,1.3,0.5,2.4,0.6,3c0.2,0.6,0.3,1.1,0.3,1.1
		s0-0.3-0.2-1.1c-0.2-0.6-0.3-1.7-0.6-3c-0.3-1.3-0.8-2.8-1.6-4.6c-0.8-1.7-1.9-3.5-3.1-5.5c-1.3-1.9-2.8-3.9-4.6-5.8
		c-1.7-2-3.6-3.9-5.8-5.8c-1.1-0.9-2.2-1.9-3.5-2.7c-1.1-0.9-2.4-1.9-3.5-2.8c-2.4-1.9-4.7-3.8-7.1-5.7c-4.7-3.8-9.6-7.6-14-11.2
		c-1.1-0.9-2.2-1.7-3.3-2.7c-1.1-0.8-2.2-1.7-3.1-2.5c-2.2-1.6-4.4-2.8-6.6-3.3c-1.1-0.3-2.2-0.3-3.3,0c-1.1,0.3-1.9,0.9-2.5,1.6
		c-0.3,0.3-0.5,0.8-0.6,1.3c-0.2,0.2-0.2,0.5-0.2,0.6c0,0.2-0.2,0.5-0.2,0.6c-0.2,0.8-0.2,1.6,0,2.2c0,0.5,0.2,0.8,0.2,1.1
		c-0.2,0.3-0.3,0.5-0.6,0.9l-0.2,0.2l-0.5-0.3c0.2-0.5,0.2-0.8,0.3-1.1c0.2-0.6,0.2-0.9,0.2-0.9s-0.2,0.3-0.3,0.9
		c0,0.3-0.2,0.6-0.3,0.9l-0.9-0.6c0,0,0,0,0.2-0.2c0.6-0.6,1.3-1.1,1.9-1.6c0,0,0-0.2-0.2-0.2c-0.3,0.3-0.6,0.5-1.1,0.8
		c-0.3,0.3-0.8,0.6-1.1,0.9l-6.6-4.4c-1.4-0.8-3-0.9-4.4-0.2l-14.9-9.6c0.2-1.6-0.6-3.1-2-3.9l-10.2-6.6c-0.6-0.5-1.4-0.6-2-0.6
		c-0.5,0-0.9,0-1.4,0.2l-8.3-5.3c0,0.2,0,0.3,0,0.6l7.7,4.9c-0.2,0-0.3,0.2-0.5,0.2l-7.2-4.7c0,1.9-0.9,3.8-2.5,4.9l5.2,3.3
		c0.2,0.2,0.5,0.2,0.8,0.3c0.2,0.2,0.3,0.2,0.5,0.3c0.2,0,0.5,0.2,0.6,0.3c0.2,0,0.2,0,0.3,0c0.2,0,0.2,0,0.3,0c0.2,0,0.2,0,0.3,0
		c0.2,0,0.2,0,0.3,0l0.3-0.2c0.2,0,0.2-0.2,0.3-0.2c0.2-0.2,0.3-0.3,0.6-0.3c0-0.2,0.2-0.2,0.2-0.3l0.2-0.2c0,0,0-0.2,0.2-0.2
		c0.2-0.2,0.2-0.3,0.3-0.5c0-0.2,0-0.2,0.2-0.3c0-0.2,0-0.2,0-0.2c0-0.2,0-0.3,0-0.3c0-0.2,0-0.3,0-0.3s0,0.2,0,0.3s0,0.3,0,0.5
		c0,0.2,0,0.2,0,0.3s0,0.2,0,0.3c0,0.2-0.2,0.5-0.2,0.6c-0.2,0.2-0.3,0.5-0.5,0.6c-0.2,0.2-0.2,0.2-0.3,0.3l-0.2,0.2l-0.2,0.2
		c-0.2,0-0.2,0.2-0.3,0.2l-0.3,0.2c-0.2,0-0.3,0-0.5,0c-0.2,0-0.3,0-0.5,0c-0.2,0-0.3,0-0.3,0s0,0,0,0.2c0.2,0.9,0.6,1.7,1.4,2.4
		c0.2,0,0.3,0,0.5,0.2c0.2,0,0.3,0,0.6,0c0.2,0,0.5,0,0.6,0c0.3,0,0.5-0.2,0.8-0.2c0.3-0.2,0.5-0.2,0.8-0.3c0.2,0,0.3-0.2,0.3-0.2
		c0.2,0,0.2-0.2,0.3-0.3c0.2-0.2,0.5-0.3,0.6-0.6c0.2-0.2,0.2-0.2,0.3-0.3c0-0.2,0.2-0.3,0.2-0.3c0-0.2,0.2-0.3,0.2-0.3
		c0-0.2,0-0.3,0.2-0.3c0.2-0.3,0.2-0.5,0.2-0.6c0-0.2,0-0.5,0-0.6s0-0.2,0-0.3v-0.2c0-0.3,0-0.5,0-0.5s0,0.2,0.2,0.5v0.2
		c0,0.2,0,0.2,0,0.3s0.2,0.5,0,0.6c0,0.3,0,0.5,0,0.8c0,0.2,0,0.3-0.2,0.5c0,0.2-0.2,0.3-0.2,0.5c0,0.2-0.2,0.3-0.2,0.5
		c-0.2,0.2-0.2,0.3-0.3,0.3c-0.2,0.3-0.5,0.5-0.6,0.6c-0.2,0.2-0.3,0.2-0.3,0.3c-0.2,0.2-0.3,0.2-0.5,0.3c-0.3,0.2-0.6,0.3-0.8,0.3
		c-0.6,0.2-1.1,0.2-1.6,0.2c-0.2,0-0.5-0.2-0.6-0.2c0,0,0,0-0.2,0l0.2,0.2l9,5.8c-0.2-0.2-0.3-0.2-0.3-0.2s0.2,0,0.3,0.2
		c0.2,0,0.3,0.2,0.5,0.2c0.2,0,0.3,0.2,0.6,0.2c0.2,0,0.5,0.2,0.6,0.2c0.3,0,0.5,0,0.8,0c0.3,0,0.5,0,0.8-0.2c0.2,0,0.3,0,0.5-0.2
		c0.2,0,0.3-0.2,0.3-0.2c0.3-0.2,0.5-0.3,0.8-0.5c0.2-0.2,0.2-0.2,0.3-0.3c0.2-0.2,0.2-0.2,0.3-0.3c0.2-0.2,0.2-0.2,0.3-0.3
		c0-0.2,0.2-0.2,0.2-0.3c0.2-0.2,0.2-0.5,0.3-0.6c0.2-0.2,0.2-0.5,0.2-0.6c0-0.2,0-0.2,0-0.3v-0.2c0-0.3,0-0.5,0-0.5s0,0.2,0,0.5
		v0.2c0,0.2,0,0.2,0,0.3c0,0.2,0,0.5-0.2,0.6c0,0.2-0.2,0.5-0.3,0.8c0,0.2-0.2,0.2-0.2,0.3c-0.2,0.2-0.2,0.3-0.3,0.3
		c-0.2,0.2-0.2,0.2-0.3,0.3c-0.2,0.2-0.2,0.2-0.3,0.3c-0.3,0.2-0.5,0.3-0.8,0.5c-0.2,0-0.3,0.2-0.5,0.2c-0.2,0-0.3,0.2-0.5,0.2
		c-0.3,0.2-0.6,0.2-0.9,0.2c-0.6,0-1.1-0.2-1.6-0.3c0,0-0.2,0-0.2-0.2l0.5,0.3c1.1,0.6,2.2,0.8,3.3,0.5l15.9,10.2h0.2
		c0.2,0,0.2,0,0.3,0c0.2,0,0.2,0,0.3,0l0.3-0.2c0.2,0,0.2-0.2,0.3-0.2c0.2-0.2,0.3-0.3,0.6-0.3c0-0.2,0.2-0.2,0.2-0.3l0.2-0.2
		c0,0,0-0.2,0.2-0.2c0.2-0.2,0.2-0.3,0.3-0.5c0-0.2,0-0.2,0.2-0.3c0-0.2,0-0.2,0-0.2c0-0.2,0-0.3,0-0.3c0-0.2,0-0.3,0-0.3
		s0,0.2,0,0.3s0,0.3,0,0.5c0,0.2,0,0.2,0,0.3s0,0.2,0,0.3c0,0.2-0.2,0.5-0.2,0.6c-0.2,0.2-0.3,0.5-0.5,0.6c-0.2,0.2-0.2,0.2-0.3,0.3
		l-0.2,0.2l-0.2,0.2c-0.2,0-0.2,0.2-0.3,0.2L181,124c-0.2,0-0.3,0-0.5,0c-0.2,0-0.2,0-0.3,0c0.3,0.9,0.8,1.9,1.7,2.5l0,0l0,0
		c0.2,0,0.5,0,0.6,0c0.3,0,0.5-0.2,0.8-0.2c0.3-0.2,0.5-0.2,0.8-0.3c0.2,0,0.3-0.2,0.3-0.2c0.2,0,0.2-0.2,0.3-0.3
		c0.2-0.2,0.5-0.3,0.6-0.6c0.2-0.2,0.2-0.2,0.3-0.3c0-0.2,0.2-0.3,0.2-0.3c0-0.2,0.2-0.3,0.2-0.3c0-0.2,0-0.3,0.2-0.3
		c0.2-0.3,0.2-0.5,0.2-0.6s0-0.5,0-0.6c0-0.2,0-0.2,0-0.3v-0.2c0-0.3,0-0.5,0-0.5s0,0.2,0.2,0.3v0.2c0,0.2,0,0.2,0,0.3
		c0,0.2,0.2,0.5,0,0.6c0,0.3,0,0.5,0,0.8c0,0.2,0,0.3-0.2,0.5c0,0.2-0.2,0.3-0.2,0.5c0,0.2-0.2,0.3-0.2,0.5
		c-0.2,0.2-0.2,0.3-0.3,0.3c-0.2,0.3-0.5,0.5-0.6,0.6c-0.2,0.2-0.3,0.2-0.3,0.3c-0.2,0.2-0.3,0.2-0.5,0.3c-0.3,0.2-0.6,0.3-0.8,0.3
		c-0.5,0.2-0.8,0.2-1.1,0.2l12.9,8.2h-0.2c0,0,0.2,0.2,0.5,0.2c0.2,0,0.3,0.2,0.5,0.2c0.2,0.2,0.5,0.2,0.6,0.2
		c0.3,0,0.5,0.2,0.8,0.2s0.6,0,0.9,0h0.3h0.2c0.2,0,0.3-0.2,0.5-0.2c0.3-0.2,0.6-0.3,0.8-0.5c0.3-0.2,0.5-0.3,0.6-0.6
		c0.2-0.2,0.5-0.2,0.6-0.3c-0.2,0.2-0.2,0.5-0.3,0.6c-0.5,0.8-1.3,1.3-2,1.6l1.4,6.8c0.3,1.3,0.8,2.5,1.4,3.9v0.2
		c-0.2,0.3-0.3,0.9-0.6,1.6c-0.3,0.6-0.5,1.6-0.8,2.5c-0.2,0.5-0.3,0.9-0.5,1.6c-0.9-1.7-1.7-3.6-2.5-5.3c-0.6-1.9-1.3-3.6-1.7-5.5
		c0-0.2,0.2-0.3,0.2-0.3c0.2-0.8,0.5-1.4,0.6-2c0.5-1.3,0.9-2.2,1.3-3.1h-0.2c-0.3,0.8-0.9,1.9-1.4,3c-0.2,0.5-0.5,1.1-0.6,1.7
		c0-0.2,0-0.2,0-0.3c-0.5-1.9-0.8-3.8-0.9-5.5l-0.6-0.3c0.2,1.9,0.3,3.9,0.8,6c0.2,0.5,0.2,0.9,0.3,1.4c-0.2,0.5-0.3,0.9-0.5,1.3
		c-0.2,0.8-0.5,1.6-0.8,2.5c-0.2,0.5-0.2,0.9-0.3,1.3c-0.2,0.5-0.2,0.9-0.3,1.4c-0.2,0.8-0.3,1.4-0.5,2.2c0-0.2-0.2-0.5-0.2-0.6
		c-0.2-0.6-0.3-1.3-0.6-1.9c-0.2-0.6-0.3-1.3-0.5-1.9c0-0.3-0.2-0.6-0.2-0.9c0-0.3-0.2-0.6-0.2-0.9c-0.2-0.6-0.3-1.3-0.3-1.9
		c-0.2-1.3-0.3-2.4-0.3-3.5c0-0.6,0-1.1,0-1.7c0-0.5,0-1.1,0-1.6c0-0.5,0-0.8,0-1.3c0-0.2,0.2-0.3,0.2-0.5c0.2-0.5,0.3-0.8,0.5-1.3
		l-0.5-0.3c0,0,0,0.2-0.2,0.2c0-0.2,0-0.2,0-0.3l-0.3-0.2c0,0.2,0,0.3,0,0.5c0,0.3-0.2,0.8-0.2,1.1c-0.8,1.9-1.6,3.9-2.2,6.1
		c-0.2,0.6-0.3,1.1-0.5,1.7c-0.2,0.6-0.3,1.1-0.5,1.7c-0.3,1.3-0.5,2.4-0.6,3.6c0-0.5-0.2-0.9-0.2-1.3s0-0.8,0-1.1
		c0-0.3,0-0.6,0-1.1c0-0.6,0-1.4,0-2c0.2-1.3,0.2-2.7,0.3-3.8c0.2-0.6,0.2-1.3,0.3-1.7c0.2-0.6,0.3-1.1,0.3-1.6
		c0.2-0.5,0.3-1.1,0.3-1.6c0.2-0.5,0.3-0.9,0.5-1.4c0-0.2,0.2-0.5,0.2-0.6l-0.2-0.2c-0.2,0.2-0.2,0.5-0.3,0.6
		c-0.2,0.5-0.3,0.9-0.5,1.4c-0.2,0.5-0.3,0.9-0.5,1.6c-0.2,0.5-0.3,1.1-0.5,1.6c-0.2,0.6-0.2,1.1-0.3,1.7c-0.3,1.3-0.3,2.5-0.5,3.9
		c-0.2,0.6,0,1.4,0,2c0,0.3,0,0.8,0,1.1c0,0.3,0,0.8,0,1.1c0,0.8,0.2,1.4,0.2,2.2v0.6l0.2,0.6c0,0.2,0,0.3,0,0.5
		c-0.2,1.7-0.3,3.5-0.3,5.3c0,1.4,0,2.7,0.2,4.1c0,1.4,0.3,2.7,0.5,4.1c0.2,0.6,0.3,1.3,0.3,2l0.2,0.9v0.2l0,0l0,0l0,0v0.3l0.2,0.5
		c0.2,0.6,0.3,1.3,0.6,1.9c0.3,0.6,0.5,1.3,0.8,1.9c0.2,0.5,0.3,0.8,0.6,1.3c-0.5-0.8-0.8-1.4-1.3-2.2c-0.9-1.9-1.9-3.9-2.7-6
		c-0.8-2-1.4-4.1-1.7-6c-0.5-2-0.8-4.1-0.9-6c-0.2-2-0.2-3.9,0-5.8c0.3-3.8,1.1-7.4,2.4-10.4c0.8-2,1.7-3.8,2.8-5.3l-0.6-0.5
		c-1.1,1.6-2.2,3.5-3,5.5c-1.4,3.1-2.4,6.8-2.8,10.7c-0.3,3.9-0.2,8.2,0.6,12.3c0.5,2,1.1,4.2,1.7,6.3c0.8,2,1.6,4.1,2.7,6.1
		c2,3.9,4.6,7.9,7.6,11.3c3,3.5,6.3,6.6,9.8,9.4c1.9,1.4,3.8,2.5,5.7,3.6c2,0.9,4.1,1.9,6.1,2.5c4.1,1.3,8.3,1.7,12.3,1.7
		c3.9,0,7.6-0.5,11-1.3c3.3-0.8,6.3-1.6,9-2.7c1.1-0.5,2.2-0.8,3.1-1.3c0.6-0.3,1.4-0.5,1.9-0.8c1.1-0.5,2-0.9,2.8-1.3
		c2,0.5,3.8,0.3,5-0.5C262.4,190.7,264.3,188.8,263.3,184.4z M167.5,107.9c-0.2-1.1-0.8-2.2-1.9-2.8l-10.2-6.6
		c-1.1-0.6-2.2-0.8-3.3-0.5l-0.2-0.2c0.6-0.3,1.3-0.5,1.9-0.3c0.6,0,1.3,0.3,1.9,0.6l10.2,6.6c1.1,0.8,1.7,2,1.7,3.3L167.5,107.9z
		 M196.4,123.5c0.2-0.3,0.3-0.6,0.5-0.8c0,0.2,0.2,0.3,0.2,0.6l0,0c0,0.2,0,0.2,0,0.3l0.2,0.8l-0.9-0.6
		C196.3,123.5,196.4,123.5,196.4,123.5z M187,118.8c-1.1-0.6-2.2-0.8-3.3-0.5l-0.2-0.2c1.3-0.5,2.7-0.5,3.8,0.3l10.2,6.6l0.2,0.6
		L187,118.8z M243.6,151.2c0.2,0.2,0.5,0.5,0.8,0.6c0.3,0.3,0.6,0.5,0.9,0.9c0.3,0.3,0.6,0.6,1.1,1.1c0.5,0.3,0.8,0.8,1.3,1.3
		c0.5,0.5,0.8,0.9,1.3,1.4c0.3,0.5,0.8,0.9,1.3,1.4c0.5,0.5,0.8,0.9,1.1,1.6c0.3,0.5,0.8,0.9,1.1,1.6c0.3,0.5,0.6,0.9,0.9,1.4
		c0.3,0.5,0.5,0.9,0.8,1.4c0.2,0.5,0.5,0.8,0.6,1.1c0.2,0.3,0.3,0.6,0.5,0.9c0.2,0.5,0.3,0.8,0.3,0.8s-0.2-0.3-0.5-0.8
		c-0.2-0.3-0.3-0.5-0.5-0.9c-0.2-0.3-0.5-0.6-0.6-1.1c-0.3-0.5-0.5-0.8-0.8-1.3s-0.6-0.9-0.9-1.4c-0.3-0.5-0.6-0.9-1.1-1.4
		c-0.3-0.5-0.8-0.9-1.1-1.6c-0.3-0.5-0.8-0.9-1.1-1.4c-0.3-0.5-0.8-0.9-1.1-1.4s-0.8-0.9-1.1-1.3c-0.3-0.5-0.8-0.8-1.1-1.1
		C244.6,152.1,244,151.5,243.6,151.2c-0.5-0.3-0.6-0.6-0.6-0.6S243.3,150.7,243.6,151.2z M201.6,122.6v-0.2c-0.2-1.1-0.2-1.6,0-1.7
		c0.5-0.2,2.8,0.2,7.2,3.6l31.8,25.2c6.8,5.3,13.5,14.8,14.8,20.3l3.3,15.6v0.2c0.3,1.4,0,1.9,0,1.9c-0.5,0.3-2.8,0-7.1-3.1
		l-31.5-23.6c-6.8-5-13.4-14-14.6-19.5L201.6,122.6z M239.4,180.9c0,0.2-0.2,0.5-0.2,0.8c-0.2,0.3-0.2,0.6-0.3,1.1
		c-0.2,0.3-0.2,0.8-0.3,1.3c-0.2,0.5-0.2,0.9-0.2,1.4c0,0.2,0,0.3,0,0.3c-0.3,0-0.5,0-0.8,0c-1.6,0-3.1-0.2-4.9-0.3
		c0-0.2,0-0.5,0-0.6c0-0.6,0-1.4,0-2c0-0.6,0-1.3,0-1.9s0-1.1,0.2-1.6c0,0,0,0,0.2,0c0.3,0,0.8,0.2,1.1,0.2c0.6,0.2,1.3,0.2,1.9,0.3
		c0.9,0.2,1.6,0.2,2.2,0.2l7.2,5.5c-0.3,0-0.6,0.2-1.1,0.2c-0.5,0-1.1,0.2-1.7,0.2c-0.9,0.2-2,0.2-3.1,0.2c0-0.2,0-0.2,0-0.3
		c0-0.5,0-0.9,0-1.4c0-0.5,0-0.8,0.2-1.3c0-0.6,0.2-1.3,0.2-1.7C239.4,180.9,239.4,180.9,239.4,180.9z M238.3,191.5v0.2
		c-0.8,0-1.6,0.2-2.5,0.2s-1.9,0-2.8,0c0-0.3,0-0.8-0.2-1.1c0-0.6-0.2-1.3-0.2-2c0-0.6,0-1.4-0.2-2c0-0.3,0-0.6,0-0.9
		c1.7,0.2,3.5,0.2,4.9,0.2c0.3,0,0.5,0,0.8,0c0,0.3,0,0.5,0,0.8c0,0.5,0,1.1-0.2,1.6c0,0.5,0,1.1,0,1.6
		C238.1,190.4,238.3,191,238.3,191.5z M225.2,181.9c0,0.6,0,1.4,0,2c-0.3-0.2-0.6-0.2-0.9-0.3c-1.3-0.5-2.5-0.9-3.6-1.4
		c-0.2-0.2-0.5-0.2-0.6-0.3c-0.2-0.8-0.2-1.6-0.2-2.5c0-0.9-0.2-2-0.2-3c0-0.5,0-0.9,0-1.4c0-0.3,0-0.5,0-0.8
		c0.5,0.3,0.9,0.5,1.4,0.8c0.9,0.5,1.9,0.9,2.8,1.4c0.5,0.2,1.1,0.5,1.6,0.6c-0.2,0.8-0.2,1.4-0.2,2.2
		C225.4,180.1,225.2,180.9,225.2,181.9z M224.1,175.9c-0.9-0.5-1.9-0.9-2.8-1.6c-0.6-0.3-1.1-0.6-1.7-1.1c0-0.8,0-1.6,0.2-2.2
		c0-0.8,0.2-1.4,0.2-2c0-0.6,0.2-1.1,0.2-1.6c0-0.5,0.2-0.8,0.2-1.1l6.4,4.7c0,0.2-0.2,0.5-0.2,0.8c-0.2,0.3-0.2,0.8-0.3,1.3
		c0,0.3-0.2,0.5-0.2,0.8c0,0.3-0.2,0.6-0.2,0.9c0,0.5-0.2,0.9-0.2,1.6C225.1,176.4,224.6,176,224.1,175.9z M219.9,167.4
		c-0.2,0.5-0.2,0.9-0.3,1.6c0,0.3-0.2,0.6-0.2,0.9s-0.2,0.8-0.2,1.1s-0.2,0.8-0.2,1.3c0,0.2,0,0.5,0,0.6c-0.2-0.2-0.3-0.2-0.5-0.3
		c-0.9-0.6-1.9-1.4-2.8-2c-0.8-0.6-1.6-1.3-2.4-2l0,0c0-0.5,0-0.9,0-1.4c0-0.5,0-0.8,0-1.3c0-0.5,0-0.8,0.2-1.1
		c0-0.8,0.2-1.3,0.2-1.9c0.2-0.6,0.2-1.3,0.2-1.4c1.1,1.1,2.4,2,3.6,3l2.7,2C220.2,166.6,220,166.9,219.9,167.4z M218.9,179.3
		c0,0.6,0,1.3,0.2,1.9c0,0-0.2,0-0.2-0.2c-0.6-0.3-1.3-0.6-1.9-0.9c-0.6-0.3-1.3-0.8-1.7-1.1c-0.3-0.2-0.6-0.3-0.9-0.6
		c-0.2-0.2-0.5-0.3-0.6-0.5c0-0.5-0.2-0.9-0.2-1.6c-0.2-1.1-0.2-2.2-0.3-3.3c0-0.5,0-1.1,0-1.6s0-1.1,0-1.6c0-0.2,0-0.2,0-0.3
		c0.6,0.5,1.3,1.1,1.9,1.6c0.5,0.3,0.9,0.8,1.4,1.1c0.5,0.3,0.9,0.6,1.4,0.9c0.3,0.2,0.6,0.3,0.9,0.5c0,0.8-0.2,1.7-0.2,2.7
		C218.9,177.3,218.8,178.2,218.9,179.3z M213.6,162.8c-0.2,0.5-0.3,1.1-0.3,1.9c0,0.3-0.2,0.8-0.2,1.1c0,0.5-0.2,0.8-0.2,1.3
		c0,0.3,0,0.6-0.2,0.9c-0.8-0.8-1.7-1.6-2.5-2.5c-0.5-0.5-0.9-0.9-1.3-1.4c-0.5-0.5-0.8-0.9-1.3-1.4c-0.3-0.5-0.8-0.8-1.1-1.3v-0.2
		c0-0.5,0.2-1.1,0.2-1.6s0.2-0.9,0.2-1.4c0-0.5,0.2-0.8,0.2-1.3c0-0.3,0.2-0.8,0.2-0.9c0.2-0.8,0.3-1.4,0.3-1.7
		c1.9,2.5,4.1,4.9,6.3,6.9C213.9,161.6,213.8,162,213.6,162.8z M207,163.3c0.5,0.5,0.8,0.9,1.3,1.4c0.5,0.5,0.9,0.9,1.3,1.4
		c0.9,1.1,2,2,3,2.8c0,0.3,0,0.6,0,0.8c0,0.5,0,1.1,0,1.6s0,1.1,0,1.6c0,1.1,0,2.2,0.2,3.5c0,0.2,0,0.5,0,0.6
		c-0.3-0.3-0.6-0.5-1.1-0.8c-0.6-0.5-1.1-0.9-1.7-1.4c-0.3-0.3-0.6-0.5-0.8-0.8l-0.8-0.8c-0.5-0.5-1.1-1.1-1.6-1.6
		c-0.2-1.1-0.2-2.4-0.3-3.5c0-0.6,0-1.3,0-1.9c0-0.3,0-0.6,0-0.9c0-0.3,0-0.6,0-0.9c0-0.6,0-1.3,0-1.7v-0.2
		C206.7,163,206.8,163.1,207,163.3z M206.7,177c0.3,1.4,0.6,2.8,1.1,4.1c0.2,0.8,0.5,1.6,0.8,2.5l-0.6-0.5c-0.3-0.3-0.6-0.6-1.1-0.8
		l-0.9-0.8l-0.5-0.5c-0.2-0.2-0.3-0.3-0.5-0.5c-0.6-0.6-1.3-1.3-1.9-1.9l-0.6-0.6c0-0.2-0.2-0.3-0.2-0.5c-0.5-1.6-0.9-3.3-1.3-4.9
		c-0.3-1.7-0.6-3.3-0.8-5c0-0.8-0.2-1.7-0.2-2.5c0.9,1.4,2,2.8,3.1,4.1c0.9,1.1,1.9,2.2,2.8,3.1c0,0.2,0,0.3,0,0.3
		C206.2,174.2,206.5,175.6,206.7,177z M208.7,180.8c-0.5-1.3-0.8-2.7-1.1-4.1c-0.2-1.1-0.5-2.2-0.6-3.5c0.3,0.3,0.5,0.5,0.8,0.8
		l0.8,0.8c0.3,0.3,0.6,0.5,0.8,0.8c0.6,0.5,1.1,0.9,1.7,1.4c0.6,0.5,1.1,0.8,1.7,1.3c0,0.6,0.2,1.1,0.3,1.7c0.3,1.1,0.5,2.4,0.8,3.5
		c0.3,1.1,0.6,2.2,0.9,3.3c0.2,0.3,0.2,0.5,0.3,0.8c-1.7-0.9-3.6-2-5.3-3.1C209.5,183.3,209,182,208.7,180.8z M214.7,183.3
		c-0.3-1.1-0.5-2.2-0.6-3.5c0-0.3,0-0.5-0.2-0.8c0.3,0.2,0.6,0.3,0.9,0.6c0.6,0.3,1.3,0.8,1.9,1.1c0.6,0.3,1.3,0.6,1.9,0.9
		c0.2,0.2,0.5,0.2,0.6,0.3c0,0.2,0,0.2,0,0.3c0.2,0.9,0.3,2,0.5,3c0.2,0.9,0.5,1.9,0.6,2.8c0.2,0.5,0.3,0.9,0.5,1.4v0.2
		c-0.2,0-0.3-0.2-0.6-0.2c-0.8-0.3-1.6-0.5-2.4-0.8c-0.6-0.3-1.3-0.5-1.9-0.8c-0.2-0.5-0.3-0.9-0.5-1.6
		C215.3,185.5,215,184.4,214.7,183.3z M220.5,185.2c-0.2-0.9-0.3-1.7-0.5-2.7c0.2,0,0.2,0.2,0.3,0.2c1.3,0.6,2.5,0.9,3.8,1.4
		c0.3,0.2,0.8,0.3,1.1,0.3c0.2,0.8,0.2,1.6,0.3,2.4c0,0.8,0.3,1.6,0.5,2.4c0,0.3,0.2,0.8,0.2,1.1c0,0.2,0,0.3,0.2,0.6
		c0,0.2,0,0.2,0,0.3c-0.5-0.2-0.9-0.2-1.6-0.3c-0.8-0.2-1.6-0.3-2.4-0.6c-0.3-0.2-0.6-0.2-0.9-0.3c0-0.2-0.2-0.5-0.2-0.8
		c-0.2-0.5-0.2-0.9-0.3-1.4C221,187.2,220.7,186.3,220.5,185.2z M226.3,184.7c1.7,0.5,3.5,0.8,5.2,0.9c0.2,0,0.3,0,0.3,0
		c0,0.3,0,0.6,0,0.9c0,0.6,0.2,1.4,0.2,2c0,0.6,0.2,1.4,0.2,2c0,0.3,0.2,0.6,0.2,0.9c-1.6,0-3.3-0.2-5-0.5l0,0
		c0-0.2-0.2-0.3-0.2-0.5c0-0.2,0-0.3-0.2-0.6c0-0.3-0.2-0.8-0.2-1.1c-0.2-0.8-0.3-1.6-0.3-2.4C226.5,186.1,226.3,185.5,226.3,184.7z
		 M232.2,180.8c-0.2,0.6-0.2,1.3-0.2,1.9c0,0.6-0.2,1.3-0.2,2c0,0.2,0,0.3,0,0.6c-0.2,0-0.2,0-0.3,0c-1.7-0.3-3.5-0.6-5.2-1.1
		c0-0.8,0-1.6,0-2.4s0-1.6,0-2.4c0-0.5,0-0.8,0-1.1c0-0.3,0-0.6,0-0.8c0.2,0,0.3,0.2,0.5,0.2c0.9,0.3,1.7,0.6,2.7,0.8
		c0.5,0.2,0.8,0.2,1.3,0.3c0.5,0.2,0.8,0.2,1.3,0.3c0.2,0,0.3,0,0.5,0.2l0,0C232.3,179.7,232.2,180.1,232.2,180.8z M231.8,178.7
		c-0.3-0.2-0.8-0.2-1.1-0.3c-0.5-0.2-0.8-0.2-1.3-0.3c-0.8-0.3-1.7-0.6-2.5-0.9c-0.2-0.2-0.5-0.2-0.6-0.3c0-0.6,0-1.3,0.2-1.7
		c0-0.3,0-0.6,0-0.9c0-0.3,0-0.6,0.2-0.8c0-0.5,0.2-0.9,0.2-1.3c0-0.3,0-0.5,0-0.8l6.3,4.7c0,0.2-0.2,0.3-0.2,0.6
		c0,0.3-0.2,0.6-0.3,1.1c0,0.2-0.2,0.5-0.2,0.6c0,0.2,0,0.3,0,0.5C232.2,178.7,232,178.7,231.8,178.7z M233.1,176.7
		c0-0.3,0-0.5,0-0.6l4.9,3.6c-0.5,0-1.3-0.2-2-0.2c-0.6-0.2-1.1-0.2-1.9-0.3c-0.3,0-0.6-0.2-1.1-0.2h-0.2c0-0.5,0-0.8,0.2-1.1
		C232.9,177.3,233.1,177,233.1,176.7z M240.7,177.5c-2.5-1.9-5.7-4.1-8.8-6.6c-3.1-2.4-6.6-5-10.1-7.6c-1.7-1.3-3.5-2.7-5-4.1
		s-3-3-4.2-4.4c-1.3-1.6-2.5-3.1-3.5-4.6c-1.1-1.6-1.9-3-2.7-4.4s-1.3-2.8-1.7-4.1c-0.5-1.3-0.6-2.4-0.8-3.3
		c-0.3-1.9-0.6-2.8-0.6-2.8s0.3,1.1,0.6,2.8c0.2,0.9,0.5,2,0.9,3.3c0.5,1.3,1.1,2.5,1.7,3.9c0.8,1.4,1.7,2.8,2.7,4.4
		c1.1,1.6,2.2,3,3.6,4.6c1.3,1.6,2.7,3,4.2,4.4c1.6,1.4,3.1,2.7,4.9,3.9c3.5,2.5,6.8,5.2,10.1,7.6c3.1,2.4,6.1,4.7,8.8,6.6
		c5,3.9,8.5,6.6,8.5,6.6S245.8,181.2,240.7,177.5z M201,152.1c0.2-0.6,0.2-1.1,0.3-1.6c0.3-0.9,0.5-1.9,0.6-2.7
		c0.2-0.8,0.3-1.3,0.5-1.7V146c1.3,2.7,3,5.5,5,8.3c-0.2,0.3-0.3,0.8-0.5,1.7c0,0.3-0.2,0.6-0.3,0.9c0,0.3-0.2,0.8-0.3,1.3
		c-0.2,0.5-0.2,0.9-0.3,1.4c0,0.3-0.2,0.8-0.2,1.3c-0.3-0.3-0.6-0.8-0.8-1.1c-0.5-0.5-0.8-1.1-1.1-1.6c-0.3-0.5-0.8-1.1-1.1-1.6
		s-0.6-1.1-0.9-1.6c-0.3-0.5-0.6-1.1-0.9-1.6c-0.2-0.2-0.3-0.5-0.3-0.6C200.9,152.4,200.9,152.3,201,152.1z M200.7,154
		c0.3,0.5,0.5,0.9,0.8,1.4c0.3,0.5,0.6,1.1,0.9,1.7c0.3,0.5,0.8,1.1,1.1,1.6c0.3,0.5,0.6,1.1,1.1,1.6c0.5,0.6,0.9,1.3,1.4,1.9
		c0,0.3,0,0.5-0.2,0.8c0,0.6-0.2,1.1-0.2,1.7c0,0.3,0,0.6,0,0.9s0,0.6,0,0.9c0,0.6,0,1.3,0,2s0,1.6,0.2,2.4c-0.6-0.8-1.4-1.6-2-2.4
		c-1.4-1.7-2.7-3.5-3.9-5.2c0-0.2,0-0.5,0-0.6c0-1.6,0-3.1,0.2-4.6C200.2,156.5,200.4,155.3,200.7,154z M194.1,151
		c0.2-0.9,0.3-1.9,0.5-2.8c0-0.5,0.2-0.9,0.3-1.4c0.2-0.5,0.2-0.9,0.3-1.3c0.2-0.8,0.5-1.7,0.6-2.5c0-0.2,0.2-0.3,0.2-0.6
		c0.3,1.4,0.8,3,1.4,4.4c0.8,2.2,1.7,4.2,2.8,6.3c0,0.2-0.2,0.3-0.2,0.6c-0.3,1.3-0.5,2.7-0.6,4.1c-0.2,1.3-0.3,2.7-0.3,4.1
		c-0.2-0.3-0.3-0.6-0.6-0.9c-1.6-2.5-2.8-5.2-3.9-7.7c-0.3-0.6-0.5-1.1-0.6-1.7C194.1,151.5,194.1,151.3,194.1,151z M193.8,154
		c0-0.2,0-0.3,0-0.5c0,0.2,0,0.2,0.2,0.3c1.1,2.7,2.4,5.3,3.9,7.9c0.5,0.6,0.8,1.4,1.3,2c0,1.3,0,2.7,0.2,3.9c0.2,1.7,0.5,3.5,0.8,5
		c0.3,1.3,0.6,2.5,0.9,3.8c-2.4-2.5-4.4-5.3-6.3-8.2c-0.2-0.2-0.3-0.5-0.5-0.6c0-0.3-0.2-0.6-0.2-0.8c-0.3-2.2-0.5-4.2-0.6-6.4
		C193.6,158.1,193.6,156.1,193.8,154z M187.8,146.9c0.2-1.3,0.5-2.5,0.6-3.6c0.2-0.6,0.3-1.1,0.5-1.7s0.3-1.1,0.5-1.7
		c0.5-1.6,0.9-3,1.4-4.4c0,0.5,0,0.9,0,1.6c0,0.5,0,1.1,0,1.7c0,1.1,0.2,2.4,0.3,3.6c0,0.6,0.2,1.3,0.3,1.9c0,0.3,0.2,0.6,0.2,0.9
		s0.2,0.6,0.2,0.9c0.3,1.9,0.9,3.9,1.7,6c0,0.2,0,0.3-0.2,0.5c0,0.5-0.2,0.9-0.2,1.6c-0.2,2-0.3,4.2-0.3,6.3c0,1.7,0.2,3.5,0.3,5.2
		c-1.1-2-2.2-4.2-3-6.4c-0.3-0.8-0.6-1.6-0.8-2.4c-0.3-0.8-0.5-1.6-0.8-2.4c-0.3-1.6-0.8-3-1.1-4.6
		C187.6,149,187.6,147.9,187.8,146.9z M205.4,189.9c-0.5-0.3-0.8-0.6-1.3-0.9l-1.3-1.1c-0.8-0.8-1.6-1.4-2.4-2.2
		c-1.4-1.4-2.8-2.8-4.1-4.2c-0.9-1.3-1.9-2.5-2.8-3.9c-1.4-2.2-2.5-4.4-3.5-6.9c-0.2-0.6-0.5-1.3-0.6-1.9c-0.2-0.6-0.3-1.3-0.6-1.9
		l-0.2-0.5V166l0,0l0,0l0,0v-0.2l-0.2-0.9c-0.2-0.6-0.3-1.3-0.3-2c-0.2-1.3-0.3-2.7-0.5-3.9c-0.2-1.3-0.2-2.7-0.2-3.9
		c0-0.6,0-1.4,0-2c0.2,0.6,0.3,1.4,0.5,2c0.5,1.6,0.9,3.1,1.6,4.7c1.1,2.8,2.4,5.7,4.1,8.3c0.2,0.8,0.3,1.6,0.5,2.4
		c0.2,0.5,0.3,1.1,0.3,1.6l0.2,0.8l0.2,0.5v0.2c0,0.2,0,0.2,0,0.2c0.6,2,1.4,4.1,2.5,6c0.9,1.9,2,3.5,3.3,5c1.1,1.4,2.4,2.8,3.5,3.9
		c0.8,0.8,1.6,1.6,2.4,2.2C206,190.2,205.7,190,205.4,189.9z M210.9,193.2c-0.8-0.5-1.7-0.9-2.5-1.4c-0.3-0.3-0.6-0.5-0.9-0.8
		c-0.9-0.9-2-2-3.1-3.1c-1.1-1.3-2.2-2.5-3.3-4.1c-1.1-1.6-2.2-3.1-3.1-5c-0.9-1.7-1.7-3.8-2.4-5.8v-0.2v-0.2l-0.2-0.5l-0.2-0.8
		c-0.2-0.5-0.3-1.1-0.3-1.6v-0.2c1.7,2.7,3.6,5.2,5.8,7.6l1.1,1.3c0.5,1.3,0.9,2.7,1.6,3.8c0.6,1.4,1.4,2.8,2.2,4.1
		c0.3,0.6,0.8,1.3,1.3,1.7c0.5,0.6,0.8,1.1,1.3,1.6c0.5,0.5,0.8,0.9,1.3,1.4c0.5,0.5,0.8,0.8,1.1,1.3c0.3,0.3,0.8,0.6,1.1,0.9
		c0,0,0.2,0,0.2,0.2C211.2,193.5,211.1,193.3,210.9,193.2z M212.2,194c-0.2-0.2-0.5-0.5-0.6-0.6c-0.3-0.3-0.6-0.6-0.9-1.1
		c-0.3-0.3-0.6-0.8-1.1-1.3c-0.3-0.5-0.8-0.9-1.1-1.4c-0.8-1.1-1.6-2.2-2.2-3.5c-0.8-1.3-1.4-2.7-2-4.1c-0.3-0.6-0.6-1.4-0.8-2
		c0.5,0.3,0.8,0.8,1.3,1.1c0.2,0.2,0.3,0.3,0.5,0.5l0.5,0.5l1.1,0.8c0.3,0.3,0.6,0.6,1.1,0.8l1.1,0.8c0.2,0.2,0.5,0.3,0.6,0.5l0,0
		c0.3,0.6,0.6,1.3,0.8,1.7c0.2,0.3,0.3,0.6,0.5,0.9c0.2,0.3,0.3,0.6,0.5,0.8c0.3,0.5,0.6,1.1,0.9,1.6c0.3,0.5,0.6,0.9,0.9,1.4
		c0.3,0.5,0.6,0.9,0.9,1.3c0.3,0.3,0.6,0.8,0.9,1.1c0.3,0.3,0.5,0.6,0.8,0.9c0.2,0.2,0.3,0.5,0.5,0.6
		C214.5,194.9,213.4,194.4,212.2,194z M216.6,195.7c-0.2,0-0.3-0.2-0.5-0.2l0,0c-0.2-0.3-0.5-0.5-0.6-0.8c-0.2-0.3-0.5-0.6-0.6-0.9
		c-0.3-0.3-0.5-0.8-0.8-1.1c-0.3-0.5-0.5-0.8-0.8-1.3c-0.3-0.5-0.6-0.9-0.8-1.4c-0.3-0.5-0.5-1.1-0.8-1.6c-0.2-0.3-0.3-0.5-0.5-0.8
		c-0.2-0.3-0.3-0.6-0.3-0.9c-0.2-0.2-0.2-0.5-0.3-0.6c1.7,1.1,3.3,2,5.2,2.8c0,0.2,0.2,0.3,0.2,0.3c0.2,0.3,0.2,0.5,0.3,0.6
		c0.2,0.5,0.5,0.9,0.6,1.4c0.2,0.5,0.5,0.8,0.6,1.3c0.2,0.3,0.5,0.8,0.6,1.1c0.2,0.3,0.5,0.6,0.6,0.9c0.2,0.3,0.3,0.6,0.5,0.8
		c0.2,0.3,0.3,0.5,0.5,0.6c0.2,0.2,0.3,0.5,0.5,0.6C218.9,196.3,217.8,196,216.6,195.7z M220.2,196.6c-0.2-0.2-0.3-0.5-0.5-0.8
		c-0.2-0.2-0.3-0.5-0.5-0.8c-0.2-0.3-0.3-0.6-0.5-0.9c-0.2-0.3-0.3-0.6-0.5-0.9c-0.2-0.3-0.3-0.8-0.5-1.1c-0.2-0.5-0.3-0.8-0.6-1.3
		c-0.2-0.5-0.3-0.9-0.5-1.4c0-0.2-0.2-0.3-0.2-0.5c0.3,0.2,0.8,0.3,1.1,0.5c0.8,0.3,1.6,0.6,2.4,0.8c0.3,0.2,0.8,0.3,1.1,0.3v0.2
		c0.2,0.5,0.3,0.8,0.5,1.3c0.2,0.3,0.3,0.8,0.5,1.1c0.2,0.3,0.3,0.6,0.5,0.9c0.2,0.3,0.3,0.6,0.5,0.9c0.2,0.3,0.3,0.5,0.5,0.8
		c0.2,0.3,0.3,0.5,0.3,0.6c0.2,0.3,0.3,0.5,0.5,0.8C222.9,197.1,221.6,197,220.2,196.6z M228.4,197.6c-1.3,0-2.7-0.2-4.1-0.3
		c-0.2-0.2-0.2-0.5-0.3-0.8c-0.2-0.2-0.2-0.5-0.3-0.6c-0.2-0.3-0.2-0.5-0.3-0.8c-0.2-0.3-0.3-0.6-0.3-0.9c-0.2-0.3-0.3-0.6-0.3-1.1
		c-0.2-0.3-0.3-0.8-0.3-1.1c-0.2-0.3-0.2-0.6-0.3-0.9c0.2,0,0.3,0,0.5,0.2c0.8,0.2,1.6,0.3,2.4,0.5c0.6,0.2,1.3,0.2,1.9,0.3
		c0.2,0.5,0.3,1.1,0.5,1.6c0.2,0.3,0.2,0.6,0.3,0.9c0.2,0.3,0.2,0.5,0.3,0.8c0.2,0.5,0.3,0.9,0.5,1.3c0.3,0.6,0.5,1.1,0.5,1.1
		s-0.2-0.5-0.3-1.1c-0.2-0.3-0.2-0.8-0.3-1.3c0-0.3-0.2-0.5-0.2-0.8s-0.2-0.6-0.2-0.9c-0.2-0.5-0.2-0.9-0.3-1.3
		c1.7,0.2,3.5,0.3,5,0.3c0,0.2,0,0.2,0,0.3c0.2,0.6,0.3,1.1,0.3,1.7c0,0.3,0.2,0.5,0.2,0.8c0,0.2,0.2,0.5,0.2,0.6
		c0.2,0.5,0.3,0.8,0.3,1.1c0.2,0.3,0.2,0.5,0.2,0.6C232,197.6,230.3,197.6,228.4,197.6z M239.1,196.6c-1.7,0.3-3.5,0.5-5.3,0.6
		c0-0.2,0-0.3-0.2-0.6c0-0.3-0.2-0.6-0.2-1.1c0-0.2,0-0.5-0.2-0.6c0-0.2,0-0.5-0.2-0.8c0-0.5-0.2-1.1-0.2-1.6v-0.2
		c0.9,0,1.9,0,2.8-0.2c0.8,0,1.7-0.2,2.5-0.2c0,0.3,0,0.5,0,0.8c0,0.5,0.2,0.9,0.2,1.3c0,0.3,0.2,0.8,0.2,1.1c0,0.3,0.2,0.6,0.2,0.8
		C239.1,196.3,239.1,196.6,239.1,196.6s0-0.3,0-0.8c0-0.5,0-1.1,0-1.9c0-0.3,0-0.8,0-1.3c0-0.3,0-0.5,0-0.8c1.4-0.2,2.8-0.5,4.1-0.6
		c0.8-0.2,1.4-0.3,2.2-0.5c0,0.5,0,0.8,0,1.3c0,0.3,0,0.6,0,0.9c0,0.3,0,0.6,0,0.8c0,0.5,0,0.9,0,1.3v0.2
		C243.3,195.9,241.3,196.3,239.1,196.6z M245.2,190.5c-0.6,0.2-1.4,0.3-2.2,0.5c-1.3,0.2-2.5,0.5-3.9,0.6v-0.2c0-0.9,0-2,0-3
		c0-0.8,0-1.6,0.2-2.4c1.3,0,2.2-0.2,3.1-0.3c0.6,0,1.3-0.2,1.7-0.2c0.5,0,0.8-0.2,1.3-0.2l0.6,0.5c0,0.2,0,0.3-0.2,0.5
		c0,0.3-0.2,0.5-0.2,0.8c0,0.3-0.2,0.6-0.2,0.9c-0.2,0.6-0.2,1.3-0.3,2C245.4,190.2,245.4,190.4,245.2,190.5z M246,187.2
		c0-0.3,0-0.6,0.2-0.8c0-0.2,0-0.3,0-0.5l2.8,2c0.6,0.5,1.1,0.8,1.6,1.1c-0.6,0.2-1.3,0.3-2,0.6c-0.8,0.2-1.7,0.5-2.8,0.6
		c0-0.2,0-0.2,0-0.3c0-0.6,0.2-1.4,0.2-2C246,187.7,246,187.4,246,187.2z M247.9,194.4c-0.8,0.3-1.7,0.5-2.7,0.8v-0.2
		c0-0.3,0-0.8,0.2-1.3c0-0.3,0-0.5,0-0.8c0-0.3,0-0.6,0.2-0.9c0-0.5,0-0.9,0.2-1.4c1.1-0.3,2-0.5,2.8-0.8c0.8-0.2,1.4-0.5,2-0.6
		c0,0,0,0,0.2,0c0.6,0.3,1.1,0.6,1.6,0.9c0,0.2,0,0.2,0,0.3c-0.2,0.6-0.2,1.3-0.2,1.7c0,0.3,0,0.6,0,0.8
		C250.9,193.5,249.5,194,247.9,194.4z M254.5,192.1c-0.8,0.3-1.6,0.6-2.4,0.9c0-0.2,0.2-0.3,0.2-0.6c0.2-0.5,0.3-1.1,0.3-1.7v-0.2
		c0.9,0.5,1.9,0.9,2.7,1.1C255.1,191.8,254.8,191.9,254.5,192.1z M263.1,186.9c-0.2,0.8-0.3,1.6-0.8,2.2c-0.5,0.6-1.1,1.3-1.9,1.7
		c-0.8,0.3-1.7,0.5-2.5,0.5c-0.9,0-1.7-0.2-2.5-0.5c-0.8-0.2-1.6-0.6-2.4-0.9c-1.4-0.8-2.7-1.6-3.8-2.4c-1.1-0.8-1.9-1.4-2.4-1.9
		c-0.6-0.5-0.9-0.8-0.9-0.8s1.4,0.9,3.5,2.4c0.5,0.3,1.1,0.8,1.7,1.1c0.6,0.3,1.3,0.8,2,1.1s1.4,0.6,2.2,0.9
		c0.8,0.2,1.6,0.3,2.4,0.5c0.8,0,1.6-0.2,2.4-0.5c0.8-0.3,1.4-0.9,1.7-1.6c0.5-0.6,0.6-1.4,0.8-2c0.2-0.6,0.2-1.4,0.2-2
		c-0.2-1.3-0.3-2.4-0.5-3c-0.2-0.8-0.2-1.1-0.2-1.1s0.2,0.5,0.3,1.1c0.2,0.3,0.2,0.8,0.3,1.3c0.2,0.5,0.3,1.1,0.3,1.7
		C263.1,185.3,263.1,186.1,263.1,186.9z"/>
	<path d="M50.8,35.1c0,0.2-0.2,0.5-0.3,0.8c0,0.2-0.2,0.2-0.2,0.3c-0.2,0.2-0.2,0.3-0.3,0.3c-0.2,0.2-0.2,0.2-0.3,0.3
		c-0.2,0.2-0.2,0.2-0.3,0.3c-0.3,0.2-0.5,0.3-0.8,0.5c-0.2,0-0.3,0.2-0.5,0.2h-0.2L81.1,59c0.3-1.3,0.9-2.5,1.9-3.6
		c0.3-0.3,0.8-0.8,1.3-0.9L51.4,33.7c0-0.2,0-0.3,0-0.5l33.4,21.2c0.2-0.2,0.3-0.2,0.5-0.2L51.4,32.6c-0.2-1.3-0.8-2.4-1.9-3.1
		L8.1,2.8c-1.6-0.9-3.6-0.9-5,0.3C3,3.3,2.5,3.5,2.2,4.3C1.8,4.4,1.7,4.7,1.5,5C0.9,6,0.7,7.1,0.9,8C1.1,9,1.5,9.8,2.3,10.4
		c0.2,0,0.2,0,0.3,0.2c0.2,0,0.5,0.2,0.6,0.2c0.3,0,0.5,0,0.8,0s0.5,0,0.8-0.2c0.2,0,0.3,0,0.5-0.2c0.2,0,0.3-0.2,0.3-0.2
		c0.3-0.2,0.5-0.3,0.8-0.5c0.2-0.2,0.2-0.2,0.3-0.3C6.9,9.3,6.9,9.3,7,9.1C7.2,9,7.2,9,7.4,8.8c0-0.2,0.2-0.2,0.2-0.3
		C7.7,8.3,7.7,8,7.8,7.9C8,7.7,8,7.4,8,7.2c0-0.2,0-0.2,0-0.3V6.8c0-0.3,0-0.5,0-0.5s0,0.2,0,0.5v0.2c0,0.2,0,0.2,0,0.3
		c0,0.2,0,0.5-0.2,0.6c0,0.2-0.2,0.5-0.3,0.8c0,0.2-0.2,0.2-0.2,0.3C7.2,9.1,7.2,9.3,7,9.3C6.9,9.4,6.9,9.4,6.7,9.6
		C6.6,9.8,6.6,9.8,6.4,9.9c-0.3,0.2-0.5,0.3-0.8,0.5c-0.2,0-0.3,0.2-0.5,0.2s-0.3,0.2-0.5,0.2C4.7,11,4.4,11,4.1,11
		c-0.3,0-0.6,0-0.9-0.2l41.2,26.4c-0.2,0-0.2-0.2-0.2-0.2s0.2,0,0.3,0.2c0.2,0,0.3,0.2,0.5,0.2c0.2,0,0.3,0.2,0.6,0.2
		c0.2,0,0.5,0.2,0.6,0.2c0.3,0,0.5,0,0.8,0s0.5,0,0.8-0.2c0.2,0,0.3,0,0.5-0.2c0.2,0,0.3-0.2,0.3-0.2c0.3-0.2,0.5-0.3,0.8-0.5
		c0.2-0.2,0.2-0.2,0.3-0.3c0.2-0.2,0.2-0.2,0.3-0.3c0.2-0.2,0.2-0.2,0.3-0.3c0-0.2,0.2-0.2,0.2-0.3c0.2-0.2,0.2-0.5,0.3-0.6
		c0.2-0.2,0.2-0.5,0.2-0.6c0-0.2,0-0.2,0-0.3v-0.2c0-0.3,0-0.5,0-0.5s0,0,0,0.2v0.2l0,0v0.2c0,0.2,0,0.2,0,0.3
		C50.9,34.8,50.9,34.9,50.8,35.1z M50.8,33.2c-0.2-1.1-0.8-2.2-1.9-2.8L7.2,3.6C6.1,3,4.8,2.8,3.7,3.2c1.3-0.8,2.8-0.8,4.1,0
		l41.4,26.7c1.3,0.8,1.9,2.2,1.7,3.5L50.8,33.2z"/>
	<g id="Light_Logo_1_">
		<g>
			<path d="M163.7,59.8c-4.2-2-2.5-11.8,10.4-14.3c18.9-3.6,42.8,28.6-9.4,42.9c0,0,15.1-4.7,21.2-12.9c11.6-15.4-3.8-23.8-9.8-21.2
				C169.4,57.4,168.9,62.3,163.7,59.8z"/>
			<path d="M59.3,59.8c4.2-2,2.5-11.8-10.4-14.3C30,41.8,6.1,74.1,58.3,88.4c0,0-15.1-4.7-21.2-12.9c-11.6-15.4,3.8-23.8,9.8-21.2
				C53.6,57.4,54.1,62.3,59.3,59.8z"/>
		</g>
		<path d="M159.3,59.3c-1.6-21.2-14.5-35.1-35.7-37.9c-2-0.3-6.6-0.6-12.1-0.8c-5.3,0-9.9,0.5-12.1,0.8
			c-11.3,1.4-20.5,6.1-26.6,13.4c-5.3,6.3-8.5,14.6-9.3,24.5c-2,26.7,25,46.9,25,46.9s-20.6-28.5-8.2-39.5
			c13.5-12.1,28.5,2,31.1,4.7c2.7-2.7,17.8-16.8,31.1-4.7c12.4,11.2-8.3,39.5-8.3,39.5S161.2,86.1,159.3,59.3z"/>
		<g>
			<path d="M120.9,87.5c0,0,7.1-17.1,16-4.4C137,82.9,135.3,89.4,120.9,87.5z"/>
			<path d="M101.9,87.5c0,0-7.1-17.1-16-4.4C86,82.9,87.7,89.4,101.9,87.5z"/>
		</g>
		<path d="M111.3,126.3c-6.8-0.3-15.1-1.9-25-5.5c0.5,6.3,6.9,12.7,25,16.2l0,0l0,0c18.1-3.6,24.5-9.9,25-16.2
			C126.6,124.4,118.3,125.9,111.3,126.3z"/>
		<path d="M91.8,121.5c1.1,0.2,2.2,0.3,3.1,0.5c1.1,0.2,2.2,0.3,3.3,0.5c4.2,0.5,8.7,0.6,13.1,0.6c4.4,0,8.7-0.3,13.1-0.8
			c4.1-0.5,8.2-1.3,12.1-2c0.9-14.3-25-30.7-25-30.7s-26.1,16.5-25,30.8C88.2,120.8,90.1,121.1,91.8,121.5z"/>
		<g>
			<path class="st1" d="M113.2,109c0,0,0.6-2.8,2.7-3.3c2-0.5,2.5-3.5,2.5-3.5S119.5,110.3,113.2,109z"/>
			<path class="st1" d="M109.8,109c0,0-0.6-2.8-2.7-3.3c-2-0.5-2.5-3.5-2.5-3.5S103.5,110.3,109.8,109z"/>
		</g>
		<g>
			<path d="M134.3,106.2c0,0,21.1,24.5-22.8,30.8c0,0,46.4,2.8,31.6-39L134.3,106.2z"/>
			<path d="M88.7,106.2c0,0-21.1,24.5,22.8,30.8c0,0-46.4,2.8-31.6-39L88.7,106.2z"/>
		</g>
		<path d="M104.3,22.2c0,0,6.4,0.2,6-4.4c-0.5-4.6-6.6-6.3-11.8-2.2c0,0,6.3-8.8,16-3.6c8.7,4.7,1.7,14,1.7,14"/>
	</g>
</g>
</svg>
