<?xml version="1.0" encoding="utf-8"?>
<!-- Generator: Adobe Illustrator 24.1.2, SVG Export Plug-In . SVG Version: 6.00 Build 0)  -->
<svg version="1.1" xmlns="http://www.w3.org/2000/svg" xmlns:xlink="http://www.w3.org/1999/xlink" x="0px" y="0px"
	 viewBox="0 0 265 202" style="enable-background:new 0 0 265 202;" xml:space="preserve">
<style type="text/css">
	.st0{fill:#020202;}
	.st1{fill:#FFFFFF;}
	.st2{fill:#010101;}
</style>
<g id="Layer_2">
	<rect y="-27" class="st0" width="265" height="253"/>
</g>
<g id="Layer_1">
	<path class="st1" d="M263.5,184.4l-3.3-15.6c-1.4-6.6-8.7-16.8-16.5-23l-31.8-25.2c-5.3-4.2-9.8-5.7-12.6-3.9
		c-1.1,0.6-2.7,2.2-2.2,5.8c0-0.3-0.2-0.6-0.2-1.1c0-0.6-0.2-1.4,0-2.2c0-0.2,0.2-0.5,0.2-0.6c0-0.2,0.2-0.5,0.2-0.6
		c0.2-0.5,0.3-0.8,0.6-1.1c0.6-0.8,1.4-1.3,2.4-1.6c0.9-0.3,2-0.2,3.1,0c2.2,0.6,4.4,1.9,6.4,3.3c1.1,0.8,2,1.6,3.1,2.5
		c1.1,0.8,2.2,1.7,3.3,2.7c4.4,3.6,9.3,7.4,14,11.2c2.4,1.9,4.7,3.8,7.1,5.7c1.1,0.9,2.4,1.9,3.5,2.8s2.4,1.9,3.5,2.7
		c2.2,1.9,4.1,3.8,5.8,5.8c1.7,2,3.3,3.9,4.6,5.8c1.3,1.9,2.4,3.8,3.1,5.3c0.8,1.7,1.4,3.1,1.7,4.6c0.3,1.3,0.5,2.4,0.6,3
		s0.3,1.1,0.3,1.1s0-0.3-0.2-1.1c-0.2-0.6-0.3-1.7-0.6-3c-0.3-1.3-0.8-2.8-1.6-4.6c-0.8-1.7-1.9-3.5-3.1-5.5
		c-1.3-1.9-2.8-3.9-4.6-5.8c-1.7-2-3.6-3.9-5.8-5.8c-1.1-0.9-2.2-1.9-3.5-2.7c-1.1-0.9-2.4-1.9-3.5-2.8c-2.4-1.9-4.7-3.8-7.1-5.7
		c-4.7-3.8-9.6-7.6-14-11.2c-1.1-0.9-2.2-1.7-3.3-2.7c-1.1-0.8-2.2-1.7-3.1-2.5c-2.2-1.6-4.4-2.8-6.6-3.3c-1.1-0.3-2.2-0.3-3.3,0
		c-1.1,0.3-1.9,0.9-2.5,1.6c-0.3,0.3-0.5,0.8-0.6,1.3c-0.2,0.2-0.2,0.5-0.2,0.6s-0.2,0.5-0.2,0.6c-0.2,0.8-0.2,1.6,0,2.2
		c0,0.5,0.2,0.8,0.2,1.1c-0.2,0.3-0.3,0.5-0.6,0.9l-0.2,0.2l-0.5-0.3c0.2-0.5,0.2-0.8,0.3-1.1c0.2-0.6,0.2-0.9,0.2-0.9
		s-0.2,0.3-0.3,0.9c0,0.3-0.2,0.6-0.3,0.9l-0.9-0.6c0,0,0,0,0.2-0.2c0.6-0.6,1.3-1.1,1.9-1.6c0,0,0-0.2-0.2-0.2
		c-0.3,0.3-0.6,0.5-1.1,0.8c-0.3,0.3-0.8,0.6-1.1,0.9l-6.6-4.4c-1.4-0.8-3-0.9-4.4-0.2l-14.9-9.6c0.2-1.6-0.6-3.1-2-3.9L156,97.8
		c-0.6-0.5-1.4-0.6-2-0.6c-0.5,0-0.9,0-1.4,0.2l-8.3-5.3c0,0.2,0,0.3,0,0.6l7.7,4.9c-0.2,0-0.3,0.2-0.5,0.2l-7.2-4.7
		c0,1.9-0.9,3.8-2.5,4.9l5.2,3.3c0.2,0.2,0.5,0.2,0.8,0.3c0.2,0.2,0.3,0.2,0.5,0.3c0.2,0,0.5,0.2,0.6,0.3c0.2,0,0.2,0,0.3,0
		c0.2,0,0.2,0,0.3,0c0.2,0,0.2,0,0.3,0c0.2,0,0.2,0,0.3,0l0.3-0.2c0.2,0,0.2-0.2,0.3-0.2c0.2-0.2,0.3-0.3,0.6-0.3
		c0-0.2,0.2-0.2,0.2-0.3l0.2-0.2c0,0,0-0.2,0.2-0.2c0.2-0.2,0.2-0.3,0.3-0.5c0-0.2,0-0.2,0.2-0.3c0-0.2,0-0.2,0-0.2
		c0-0.2,0-0.3,0-0.3c0-0.2,0-0.3,0-0.3s0,0.2,0,0.3c0,0.2,0,0.3,0,0.5c0,0.2,0,0.2,0,0.3c0,0.2,0,0.2,0,0.3s-0.2,0.5-0.2,0.6
		c-0.2,0.2-0.3,0.5-0.5,0.6c-0.2,0.2-0.2,0.2-0.3,0.3l-0.2,0.2l-0.2,0.2c-0.2,0-0.2,0.2-0.3,0.2l-0.3,0.2c-0.2,0-0.3,0-0.5,0
		c-0.2,0-0.3,0-0.5,0c-0.2,0-0.3,0-0.3,0s0,0,0,0.2c0.2,0.9,0.6,1.7,1.4,2.4c0.2,0,0.3,0,0.5,0.2c0.2,0,0.3,0,0.6,0
		c0.2,0,0.5,0,0.6,0c0.3,0,0.5-0.2,0.8-0.2c0.3-0.2,0.5-0.2,0.8-0.3c0.2,0,0.3-0.2,0.3-0.2c0.2,0,0.2-0.2,0.3-0.3
		c0.2-0.2,0.5-0.3,0.6-0.6c0.2-0.2,0.2-0.2,0.3-0.3c0-0.2,0.2-0.3,0.2-0.3c0-0.2,0.2-0.3,0.2-0.3c0-0.2,0-0.3,0.2-0.3
		c0.2-0.3,0.2-0.5,0.2-0.6s0-0.5,0-0.6c0-0.2,0-0.2,0-0.3v-0.2c0-0.3,0-0.5,0-0.5s0,0.2,0.2,0.5v0.2c0,0.2,0,0.2,0,0.3
		c0,0.2,0.2,0.5,0,0.6c0,0.3,0,0.5,0,0.8c0,0.2,0,0.3-0.2,0.5c0,0.2-0.2,0.3-0.2,0.5c0,0.2-0.2,0.3-0.2,0.5
		c-0.2,0.2-0.2,0.3-0.3,0.3c-0.2,0.3-0.5,0.5-0.6,0.6c-0.2,0.2-0.3,0.2-0.3,0.3c-0.2,0.2-0.3,0.2-0.5,0.3c-0.3,0.2-0.6,0.3-0.8,0.3
		c-0.6,0.2-1.1,0.2-1.6,0.2c-0.2,0-0.5-0.2-0.6-0.2c0,0,0,0-0.2,0l0.2,0.2l9,5.8c-0.2-0.2-0.3-0.2-0.3-0.2s0.2,0,0.3,0.2
		c0.2,0,0.3,0.2,0.5,0.2c0.2,0,0.3,0.2,0.6,0.2c0.2,0,0.5,0.2,0.6,0.2c0.3,0,0.5,0,0.8,0c0.3,0,0.5,0,0.8-0.2c0.2,0,0.3,0,0.5-0.2
		c0.2,0,0.3-0.2,0.3-0.2c0.3-0.2,0.5-0.3,0.8-0.5c0.2-0.2,0.2-0.2,0.3-0.3c0.2-0.2,0.2-0.2,0.3-0.3c0.2-0.2,0.2-0.2,0.3-0.3
		c0-0.2,0.2-0.2,0.2-0.3c0.2-0.2,0.2-0.5,0.3-0.6c0.2-0.2,0.2-0.5,0.2-0.6s0-0.2,0-0.3v-0.2c0-0.3,0-0.5,0-0.5s0,0.2,0,0.5v0.2
		c0,0.2,0,0.2,0,0.3s0,0.5-0.2,0.6c0,0.2-0.2,0.5-0.3,0.8c0,0.2-0.2,0.2-0.2,0.3c-0.2,0.2-0.2,0.3-0.3,0.3c-0.2,0.2-0.2,0.2-0.3,0.3
		c-0.2,0.2-0.2,0.2-0.3,0.3c-0.3,0.2-0.5,0.3-0.8,0.5c-0.2,0-0.3,0.2-0.5,0.2c-0.2,0-0.3,0.2-0.5,0.2c-0.3,0.2-0.6,0.2-0.9,0.2
		c-0.6,0-1.1-0.2-1.6-0.3c0,0-0.2,0-0.2-0.2l0.5,0.3c1.1,0.6,2.2,0.8,3.3,0.5l15.9,10.2h0.2c0.2,0,0.2,0,0.3,0c0.2,0,0.2,0,0.3,0
		l0.3-0.2c0.2,0,0.2-0.2,0.3-0.2c0.2-0.2,0.3-0.3,0.6-0.3c0-0.2,0.2-0.2,0.2-0.3l0.2-0.2c0,0,0-0.2,0.2-0.2c0.2-0.2,0.2-0.3,0.3-0.5
		c0-0.2,0-0.2,0.2-0.3c0-0.2,0-0.2,0-0.2c0-0.2,0-0.3,0-0.3c0-0.2,0-0.3,0-0.3s0,0.2,0,0.3c0,0.2,0,0.3,0,0.5c0,0.2,0,0.2,0,0.3
		c0,0.2,0,0.2,0,0.3s-0.2,0.5-0.2,0.6c-0.2,0.2-0.3,0.5-0.5,0.6s-0.2,0.2-0.3,0.3l-0.2,0.2l-0.2,0.2c-0.2,0-0.2,0.2-0.3,0.2
		l-0.3,0.2c-0.2,0-0.3,0-0.5,0c-0.2,0-0.2,0-0.3,0c0.3,0.9,0.8,1.9,1.7,2.5l0,0l0,0c0.2,0,0.5,0,0.6,0c0.3,0,0.5-0.2,0.8-0.2
		c0.3-0.2,0.5-0.2,0.8-0.3c0.2,0,0.3-0.2,0.3-0.2c0.2,0,0.2-0.2,0.3-0.3c0.2-0.2,0.5-0.3,0.6-0.6c0.2-0.2,0.2-0.2,0.3-0.3
		c0-0.2,0.2-0.3,0.2-0.3c0-0.2,0.2-0.3,0.2-0.3c0-0.2,0-0.3,0.2-0.3c0.2-0.3,0.2-0.5,0.2-0.6c0-0.2,0-0.5,0-0.6s0-0.2,0-0.3V122
		c0-0.3,0-0.5,0-0.5s0,0.2,0.2,0.3v0.2c0,0.2,0,0.2,0,0.3s0.2,0.5,0,0.6c0,0.3,0,0.5,0,0.8c0,0.2,0,0.3-0.2,0.5
		c0,0.2-0.2,0.3-0.2,0.5s-0.2,0.3-0.2,0.5c-0.2,0.2-0.2,0.3-0.3,0.3c-0.2,0.3-0.5,0.5-0.6,0.6c-0.2,0.2-0.3,0.2-0.3,0.3
		c-0.2,0.2-0.3,0.2-0.5,0.3c-0.3,0.2-0.6,0.3-0.8,0.3c-0.5,0.2-0.8,0.2-1.1,0.2l12.9,8.2h-0.2c0,0,0.2,0.2,0.5,0.2
		c0.2,0,0.3,0.2,0.5,0.2c0.2,0.2,0.5,0.2,0.6,0.2c0.3,0,0.5,0.2,0.8,0.2s0.6,0,0.9,0h0.3h0.2c0.2,0,0.3-0.2,0.5-0.2
		c0.3-0.2,0.6-0.3,0.8-0.5c0.3-0.2,0.5-0.3,0.6-0.6c0.2-0.2,0.5-0.2,0.6-0.3c-0.2,0.2-0.2,0.5-0.3,0.6c-0.5,0.8-1.3,1.3-2,1.6
		l1.4,6.8c0.3,1.3,0.8,2.5,1.4,3.9v0.2c-0.2,0.3-0.3,0.9-0.6,1.6c-0.3,0.6-0.5,1.6-0.8,2.5c-0.2,0.5-0.3,0.9-0.5,1.6
		c-0.9-1.7-1.7-3.6-2.5-5.3c-0.6-1.9-1.3-3.6-1.7-5.5c0-0.2,0.2-0.3,0.2-0.3c0.2-0.8,0.5-1.4,0.6-2c0.5-1.3,0.9-2.2,1.3-3.1h-0.2
		c-0.3,0.8-0.9,1.9-1.4,3c-0.2,0.5-0.5,1.1-0.6,1.7c0-0.2,0-0.2,0-0.3c-0.5-1.9-0.8-3.8-0.9-5.5l-0.6-0.3c0.2,1.9,0.3,3.9,0.8,6
		c0.2,0.5,0.2,0.9,0.3,1.4c-0.2,0.5-0.3,0.9-0.5,1.3c-0.2,0.8-0.5,1.6-0.8,2.5c-0.2,0.5-0.2,0.9-0.3,1.3c-0.2,0.5-0.2,0.9-0.3,1.4
		c-0.2,0.8-0.3,1.4-0.5,2.2c0-0.2-0.2-0.5-0.2-0.6c-0.2-0.6-0.3-1.3-0.6-1.9c-0.2-0.6-0.3-1.3-0.5-1.9c0-0.3-0.2-0.6-0.2-0.9
		c0-0.3-0.2-0.6-0.2-0.9c-0.2-0.6-0.3-1.3-0.3-1.9c-0.2-1.3-0.3-2.4-0.3-3.5c0-0.6,0-1.1,0-1.7c0-0.5,0-1.1,0-1.6c0-0.5,0-0.8,0-1.3
		c0-0.2,0.2-0.3,0.2-0.5c0.2-0.5,0.3-0.8,0.5-1.3l-0.5-0.3c0,0,0,0.2-0.2,0.2c0-0.2,0-0.2,0-0.3l-0.3-0.2c0,0.2,0,0.3,0,0.5
		c0,0.3-0.2,0.8-0.2,1.1c-0.8,1.9-1.6,3.9-2.2,6.1c-0.2,0.6-0.3,1.1-0.5,1.7c-0.2,0.6-0.3,1.1-0.5,1.7c-0.3,1.3-0.5,2.4-0.6,3.6
		c0-0.5-0.2-0.9-0.2-1.3c0-0.3,0-0.8,0-1.1s0-0.6,0-1.1c0-0.6,0-1.4,0-2c0.2-1.3,0.2-2.7,0.3-3.8c0.2-0.6,0.2-1.3,0.3-1.7
		c0.2-0.6,0.3-1.1,0.3-1.6c0.2-0.5,0.3-1.1,0.3-1.6c0.2-0.5,0.3-0.9,0.5-1.4c0-0.2,0.2-0.5,0.2-0.6l-0.2-0.2
		c-0.2,0.2-0.2,0.5-0.3,0.6c-0.2,0.5-0.3,0.9-0.5,1.4c-0.2,0.5-0.3,0.9-0.5,1.6c-0.2,0.5-0.3,1.1-0.5,1.6c-0.2,0.6-0.2,1.1-0.3,1.7
		c-0.3,1.3-0.3,2.5-0.5,3.9c-0.2,0.6,0,1.4,0,2c0,0.3,0,0.8,0,1.1s0,0.8,0,1.1c0,0.8,0.2,1.4,0.2,2.2v0.6l0.2,0.6c0,0.2,0,0.3,0,0.5
		c-0.2,1.7-0.3,3.5-0.3,5.3c0,1.4,0,2.7,0.2,4.1c0,1.4,0.3,2.7,0.5,4.1c0.2,0.6,0.3,1.3,0.3,2l0.2,0.9v0.2l0,0l0,0l0,0v0.3l0.2,0.5
		c0.2,0.6,0.3,1.3,0.6,1.9c0.3,0.6,0.5,1.3,0.8,1.9c0.2,0.5,0.3,0.8,0.6,1.3c-0.5-0.8-0.8-1.4-1.3-2.2c-0.9-1.9-1.9-3.9-2.7-6
		c-0.8-2-1.4-4.1-1.7-6c-0.5-2-0.8-4.1-0.9-6c-0.2-2-0.2-3.9,0-5.8c0.3-3.8,1.1-7.4,2.4-10.4c0.8-2,1.7-3.8,2.8-5.3l-0.6-0.5
		c-1.1,1.6-2.2,3.5-3,5.5c-1.4,3.1-2.4,6.8-2.8,10.7c-0.3,3.9-0.2,8.2,0.6,12.3c0.5,2,1.1,4.2,1.7,6.3c0.8,2,1.6,4.1,2.7,6.1
		c2,3.9,4.6,7.9,7.6,11.3c3,3.5,6.3,6.6,9.8,9.4c1.9,1.4,3.8,2.5,5.7,3.6c2,0.9,4.1,1.9,6.1,2.5c4.1,1.3,8.3,1.7,12.3,1.7
		c3.9,0,7.6-0.5,11-1.3c3.3-0.8,6.3-1.6,9-2.7c1.1-0.5,2.2-0.8,3.1-1.3c0.6-0.3,1.4-0.5,1.9-0.8c1.1-0.5,2-0.9,2.8-1.3
		c2,0.5,3.8,0.3,5-0.5C262.5,190.7,264.4,188.8,263.5,184.4z M167.7,108c-0.2-1.1-0.8-2.2-1.9-2.8l-10.2-6.6
		c-1.1-0.6-2.2-0.8-3.3-0.5l-0.2-0.2c0.6-0.3,1.3-0.5,1.9-0.3c0.6,0,1.3,0.3,1.9,0.6l10.2,6.6c1.1,0.8,1.7,2,1.7,3.3L167.7,108z
		 M196.6,123.6c0.2-0.3,0.3-0.6,0.5-0.8c0,0.2,0.2,0.3,0.2,0.6l0,0c0,0.2,0,0.2,0,0.3l0.2,0.8l-0.9-0.6
		C196.4,123.6,196.6,123.6,196.6,123.6z M187.2,118.8c-1.1-0.6-2.2-0.8-3.3-0.5l-0.2-0.2c1.3-0.5,2.7-0.5,3.8,0.3l10.2,6.6l0.2,0.6
		L187.2,118.8z M243.8,151.2c0.2,0.2,0.5,0.5,0.8,0.6c0.3,0.3,0.6,0.5,0.9,0.9c0.3,0.3,0.6,0.6,1.1,1.1c0.5,0.3,0.8,0.8,1.3,1.3
		c0.5,0.5,0.8,0.9,1.3,1.4c0.3,0.5,0.8,0.9,1.3,1.4c0.5,0.5,0.8,0.9,1.1,1.6c0.3,0.5,0.8,0.9,1.1,1.6c0.3,0.5,0.6,0.9,0.9,1.4
		s0.5,0.9,0.8,1.4c0.2,0.5,0.5,0.8,0.6,1.1c0.2,0.3,0.3,0.6,0.5,0.9c0.2,0.5,0.3,0.8,0.3,0.8s-0.2-0.3-0.5-0.8
		c-0.2-0.3-0.3-0.5-0.5-0.9c-0.2-0.3-0.5-0.6-0.6-1.1c-0.3-0.5-0.5-0.8-0.8-1.3c-0.3-0.5-0.6-0.9-0.9-1.4c-0.3-0.5-0.6-0.9-1.1-1.4
		c-0.3-0.5-0.8-0.9-1.1-1.6c-0.3-0.5-0.8-0.9-1.1-1.4s-0.8-0.9-1.1-1.4c-0.3-0.5-0.8-0.9-1.1-1.3c-0.3-0.5-0.8-0.8-1.1-1.1
		C244.7,152.2,244.1,151.6,243.8,151.2c-0.5-0.3-0.6-0.6-0.6-0.6S243.5,150.8,243.8,151.2z M201.8,122.6v-0.2
		c-0.2-1.1-0.2-1.6,0-1.7c0.5-0.2,2.8,0.2,7.2,3.6l31.8,25.2c6.8,5.3,13.5,14.8,14.8,20.3l3.3,15.6v0.2c0.3,1.4,0,1.9,0,1.9
		c-0.5,0.3-2.8,0-7.1-3.1l-31.5-23.6c-6.8-5-13.4-14-14.6-19.5L201.8,122.6z M239.5,181c0,0.2-0.2,0.5-0.2,0.8
		c-0.2,0.3-0.2,0.6-0.3,1.1c-0.2,0.3-0.2,0.8-0.3,1.3c-0.2,0.5-0.2,0.9-0.2,1.4c0,0.2,0,0.3,0,0.3c-0.3,0-0.5,0-0.8,0
		c-1.6,0-3.1-0.2-4.9-0.3c0-0.2,0-0.5,0-0.6c0-0.6,0-1.4,0-2c0-0.6,0-1.3,0-1.9c0-0.6,0-1.1,0.2-1.6c0,0,0,0,0.2,0
		c0.3,0,0.8,0.2,1.1,0.2c0.6,0.2,1.3,0.2,1.9,0.3c0.9,0.2,1.6,0.2,2.2,0.2l7.2,5.5c-0.3,0-0.6,0.2-1.1,0.2c-0.5,0-1.1,0.2-1.7,0.2
		c-0.9,0.2-2,0.2-3.1,0.2c0-0.2,0-0.2,0-0.3c0-0.5,0-0.9,0-1.4s0-0.8,0.2-1.3c0-0.6,0.2-1.3,0.2-1.7C239.5,181,239.5,181,239.5,181z
		 M238.4,191.5v0.2c-0.8,0-1.6,0.2-2.5,0.2s-1.9,0-2.8,0c0-0.3,0-0.8-0.2-1.1c0-0.6-0.2-1.3-0.2-2c0-0.6,0-1.4-0.2-2
		c0-0.3,0-0.6,0-0.9c1.7,0.2,3.5,0.2,4.9,0.2c0.3,0,0.5,0,0.8,0c0,0.3,0,0.5,0,0.8c0,0.5,0,1.1-0.2,1.6c0,0.5,0,1.1,0,1.6
		C238.3,190.4,238.4,191,238.4,191.5z M225.4,181.9c0,0.6,0,1.4,0,2c-0.3-0.2-0.6-0.2-0.9-0.3c-1.3-0.5-2.5-0.9-3.6-1.4
		c-0.2-0.2-0.5-0.2-0.6-0.3c-0.2-0.8-0.2-1.6-0.2-2.5c0-0.9-0.2-2-0.2-3c0-0.5,0-0.9,0-1.4c0-0.3,0-0.5,0-0.8
		c0.5,0.3,0.9,0.5,1.4,0.8c0.9,0.5,1.9,0.9,2.8,1.4c0.5,0.2,1.1,0.5,1.6,0.6c-0.2,0.8-0.2,1.4-0.2,2.2
		C225.5,180.2,225.4,181,225.4,181.9z M224.3,175.9c-0.9-0.5-1.9-0.9-2.8-1.6c-0.6-0.3-1.1-0.6-1.7-1.1c0-0.8,0-1.6,0.2-2.2
		c0-0.8,0.2-1.4,0.2-2s0.2-1.1,0.2-1.6s0.2-0.8,0.2-1.1l6.4,4.7c0,0.2-0.2,0.5-0.2,0.8c-0.2,0.3-0.2,0.8-0.3,1.3
		c0,0.3-0.2,0.5-0.2,0.8s-0.2,0.6-0.2,0.9c0,0.5-0.2,0.9-0.2,1.6C225.2,176.4,224.8,176.1,224.3,175.9z M220,167.4
		c-0.2,0.5-0.2,0.9-0.3,1.6c0,0.3-0.2,0.6-0.2,0.9c0,0.3-0.2,0.8-0.2,1.1s-0.2,0.8-0.2,1.3c0,0.2,0,0.5,0,0.6
		c-0.2-0.2-0.3-0.2-0.5-0.3c-0.9-0.6-1.9-1.4-2.8-2c-0.8-0.6-1.6-1.3-2.4-2l0,0c0-0.5,0-0.9,0-1.4s0-0.8,0-1.3c0-0.5,0-0.8,0.2-1.1
		c0-0.8,0.2-1.3,0.2-1.9c0.2-0.6,0.2-1.3,0.2-1.4c1.1,1.1,2.4,2,3.6,3l2.7,2C220.4,166.7,220.2,167,220,167.4z M219.1,179.4
		c0,0.6,0,1.3,0.2,1.9c0,0-0.2,0-0.2-0.2c-0.6-0.3-1.3-0.6-1.9-0.9c-0.6-0.3-1.3-0.8-1.7-1.1c-0.3-0.2-0.6-0.3-0.9-0.6
		c-0.2-0.2-0.5-0.3-0.6-0.5c0-0.5-0.2-0.9-0.2-1.6c-0.2-1.1-0.2-2.2-0.3-3.3c0-0.5,0-1.1,0-1.6c0-0.5,0-1.1,0-1.6c0-0.2,0-0.2,0-0.3
		c0.6,0.5,1.3,1.1,1.9,1.6c0.5,0.3,0.9,0.8,1.4,1.1c0.5,0.3,0.9,0.6,1.4,0.9c0.3,0.2,0.6,0.3,0.9,0.5c0,0.8-0.2,1.7-0.2,2.7
		C219.1,177.4,218.9,178.3,219.1,179.4z M213.7,162.9c-0.2,0.5-0.3,1.1-0.3,1.9c0,0.3-0.2,0.8-0.2,1.1c0,0.5-0.2,0.8-0.2,1.3
		c0,0.3,0,0.6-0.2,0.9c-0.8-0.8-1.7-1.6-2.5-2.5c-0.5-0.5-0.9-0.9-1.3-1.4c-0.5-0.5-0.8-0.9-1.3-1.4c-0.3-0.5-0.8-0.8-1.1-1.3v-0.2
		c0-0.5,0.2-1.1,0.2-1.6c0-0.5,0.2-0.9,0.2-1.4c0-0.5,0.2-0.8,0.2-1.3c0-0.3,0.2-0.8,0.2-0.9c0.2-0.8,0.3-1.4,0.3-1.7
		c1.9,2.5,4.1,4.9,6.3,6.9C214.1,161.6,213.9,162.1,213.7,162.9z M207.1,163.4c0.5,0.5,0.8,0.9,1.3,1.4s0.9,0.9,1.3,1.4
		c0.9,1.1,2,2,3,2.8c0,0.3,0,0.6,0,0.8c0,0.5,0,1.1,0,1.6c0,0.5,0,1.1,0,1.6c0,1.1,0,2.2,0.2,3.5c0,0.2,0,0.5,0,0.6
		c-0.3-0.3-0.6-0.5-1.1-0.8c-0.6-0.5-1.1-0.9-1.7-1.4c-0.3-0.3-0.6-0.5-0.8-0.8l-0.8-0.8c-0.5-0.5-1.1-1.1-1.6-1.6
		c-0.2-1.1-0.2-2.4-0.3-3.5c0-0.6,0-1.3,0-1.9c0-0.3,0-0.6,0-0.9s0-0.6,0-0.9c0-0.6,0-1.3,0-1.7v-0.2
		C206.8,163,207,163.2,207.1,163.4z M206.8,177c0.3,1.4,0.6,2.8,1.1,4.1c0.2,0.8,0.5,1.6,0.8,2.5l-0.6-0.5c-0.3-0.3-0.6-0.6-1.1-0.8
		l-0.9-0.8l-0.5-0.5c-0.2-0.2-0.3-0.3-0.5-0.5c-0.6-0.6-1.3-1.3-1.9-1.9l-0.6-0.6c0-0.2-0.2-0.3-0.2-0.5c-0.5-1.6-0.9-3.3-1.3-4.9
		c-0.3-1.7-0.6-3.3-0.8-5c0-0.8-0.2-1.7-0.2-2.5c0.9,1.4,2,2.8,3.1,4.1c0.9,1.1,1.9,2.2,2.8,3.1c0,0.2,0,0.3,0,0.3
		C206.4,174.2,206.7,175.6,206.8,177z M208.9,180.8c-0.5-1.3-0.8-2.7-1.1-4.1c-0.2-1.1-0.5-2.2-0.6-3.5c0.3,0.3,0.5,0.5,0.8,0.8
		l0.8,0.8c0.3,0.3,0.6,0.5,0.8,0.8c0.6,0.5,1.1,0.9,1.7,1.4c0.6,0.5,1.1,0.8,1.7,1.3c0,0.6,0.2,1.1,0.3,1.7c0.3,1.1,0.5,2.4,0.8,3.5
		c0.3,1.1,0.6,2.2,0.9,3.3c0.2,0.3,0.2,0.5,0.3,0.8c-1.7-0.9-3.6-2-5.3-3.1C209.7,183.3,209.2,182.1,208.9,180.8z M214.8,183.3
		c-0.3-1.1-0.5-2.2-0.6-3.5c0-0.3,0-0.5-0.2-0.8c0.3,0.2,0.6,0.3,0.9,0.6c0.6,0.3,1.3,0.8,1.9,1.1c0.6,0.3,1.3,0.6,1.9,0.9
		c0.2,0.2,0.5,0.2,0.6,0.3c0,0.2,0,0.2,0,0.3c0.2,0.9,0.3,2,0.5,3c0.2,0.9,0.5,1.9,0.6,2.8c0.2,0.5,0.3,0.9,0.5,1.4v0.2
		c-0.2,0-0.3-0.2-0.6-0.2c-0.8-0.3-1.6-0.5-2.4-0.8c-0.6-0.3-1.3-0.5-1.9-0.8c-0.2-0.5-0.3-0.9-0.5-1.6
		C215.5,185.5,215.2,184.4,214.8,183.3z M220.7,185.2c-0.2-0.9-0.3-1.7-0.5-2.7c0.2,0,0.2,0.2,0.3,0.2c1.3,0.6,2.5,0.9,3.8,1.4
		c0.3,0.2,0.8,0.3,1.1,0.3c0.2,0.8,0.2,1.6,0.3,2.4c0,0.8,0.3,1.6,0.5,2.4c0,0.3,0.2,0.8,0.2,1.1c0,0.2,0,0.3,0.2,0.6
		c0,0.2,0,0.2,0,0.3c-0.5-0.2-0.9-0.2-1.6-0.3c-0.8-0.2-1.6-0.3-2.4-0.6c-0.3-0.2-0.6-0.2-0.9-0.3c0-0.2-0.2-0.5-0.2-0.8
		c-0.2-0.5-0.2-0.9-0.3-1.4C221.1,187.3,220.8,186.3,220.7,185.2z M226.5,184.7c1.7,0.5,3.5,0.8,5.2,0.9c0.2,0,0.3,0,0.3,0
		c0,0.3,0,0.6,0,0.9c0,0.6,0.2,1.4,0.2,2c0,0.6,0.2,1.4,0.2,2c0,0.3,0.2,0.6,0.2,0.9c-1.6,0-3.3-0.2-5-0.5l0,0
		c0-0.2-0.2-0.3-0.2-0.5c0-0.2,0-0.3-0.2-0.6c0-0.3-0.2-0.8-0.2-1.1c-0.2-0.8-0.3-1.6-0.3-2.4C226.6,186.2,226.5,185.5,226.5,184.7z
		 M232.3,180.8c-0.2,0.6-0.2,1.3-0.2,1.9c0,0.6-0.2,1.3-0.2,2c0,0.2,0,0.3,0,0.6c-0.2,0-0.2,0-0.3,0c-1.7-0.3-3.5-0.6-5.2-1.1
		c0-0.8,0-1.6,0-2.4s0-1.6,0-2.4c0-0.5,0-0.8,0-1.1s0-0.6,0-0.8c0.2,0,0.3,0.2,0.5,0.2c0.9,0.3,1.7,0.6,2.7,0.8
		c0.5,0.2,0.8,0.2,1.3,0.3c0.5,0.2,0.8,0.2,1.3,0.3c0.2,0,0.3,0,0.5,0.2l0,0C232.5,179.7,232.3,180.2,232.3,180.8z M232,178.8
		c-0.3-0.2-0.8-0.2-1.1-0.3c-0.5-0.2-0.8-0.2-1.3-0.3c-0.8-0.3-1.7-0.6-2.5-0.9c-0.2-0.2-0.5-0.2-0.6-0.3c0-0.6,0-1.3,0.2-1.7
		c0-0.3,0-0.6,0-0.9s0-0.6,0.2-0.8c0-0.5,0.2-0.9,0.2-1.3s0-0.5,0-0.8l6.3,4.7c0,0.2-0.2,0.3-0.2,0.6c0,0.3-0.2,0.6-0.3,1.1
		c0,0.2-0.2,0.5-0.2,0.6s0,0.3,0,0.5C232.3,178.8,232.2,178.8,232,178.8z M233.3,176.7c0-0.3,0-0.5,0-0.6l4.9,3.6
		c-0.5,0-1.3-0.2-2-0.2c-0.6-0.2-1.1-0.2-1.9-0.3c-0.3,0-0.6-0.2-1.1-0.2h-0.2c0-0.5,0-0.8,0.2-1.1
		C233.1,177.4,233.3,177,233.3,176.7z M240.8,177.5c-2.5-1.9-5.7-4.1-8.8-6.6c-3.1-2.4-6.6-5-10.1-7.6c-1.7-1.3-3.5-2.7-5-4.1
		c-1.6-1.4-3-3-4.2-4.4c-1.3-1.6-2.5-3.1-3.5-4.6c-1.1-1.6-1.9-3-2.7-4.4s-1.3-2.8-1.7-4.1c-0.5-1.3-0.6-2.4-0.8-3.3
		c-0.3-1.9-0.6-2.8-0.6-2.8s0.3,1.1,0.6,2.8c0.2,0.9,0.5,2,0.9,3.3c0.5,1.3,1.1,2.5,1.7,3.9c0.8,1.4,1.7,2.8,2.7,4.4
		c1.1,1.6,2.2,3,3.6,4.6c1.3,1.6,2.7,3,4.2,4.4c1.6,1.4,3.1,2.7,4.9,3.9c3.5,2.5,6.8,5.2,10.1,7.6c3.1,2.4,6.1,4.7,8.8,6.6
		c5,3.9,8.5,6.6,8.5,6.6S246,181.3,240.8,177.5z M201.2,152.2c0.2-0.6,0.2-1.1,0.3-1.6c0.3-0.9,0.5-1.9,0.6-2.7
		c0.2-0.8,0.3-1.3,0.5-1.7V146c1.3,2.7,3,5.5,5,8.3c-0.2,0.3-0.3,0.8-0.5,1.7c0,0.3-0.2,0.6-0.3,0.9c0,0.3-0.2,0.8-0.3,1.3
		c-0.2,0.5-0.2,0.9-0.3,1.4c0,0.3-0.2,0.8-0.2,1.3c-0.3-0.3-0.6-0.8-0.8-1.1c-0.5-0.5-0.8-1.1-1.1-1.6c-0.3-0.5-0.8-1.1-1.1-1.6
		s-0.6-1.1-0.9-1.6c-0.3-0.5-0.6-1.1-0.9-1.6c-0.2-0.2-0.3-0.5-0.3-0.6C201,152.5,201,152.3,201.2,152.2z M200.8,154.1
		c0.3,0.5,0.5,0.9,0.8,1.4c0.3,0.5,0.6,1.1,0.9,1.7c0.3,0.5,0.8,1.1,1.1,1.6c0.3,0.5,0.6,1.1,1.1,1.6c0.5,0.6,0.9,1.3,1.4,1.9
		c0,0.3,0,0.5-0.2,0.8c0,0.6-0.2,1.1-0.2,1.7c0,0.3,0,0.6,0,0.9s0,0.6,0,0.9c0,0.6,0,1.3,0,2s0,1.6,0.2,2.4c-0.6-0.8-1.4-1.6-2-2.4
		c-1.4-1.7-2.7-3.5-3.9-5.2c0-0.2,0-0.5,0-0.6c0-1.6,0-3.1,0.2-4.6C200.4,156.6,200.5,155.3,200.8,154.1z M194.2,151.1
		c0.2-0.9,0.3-1.9,0.5-2.8c0-0.5,0.2-0.9,0.3-1.4c0.2-0.5,0.2-0.9,0.3-1.3c0.2-0.8,0.5-1.7,0.6-2.5c0-0.2,0.2-0.3,0.2-0.6
		c0.3,1.4,0.8,3,1.4,4.4c0.8,2.2,1.7,4.2,2.8,6.3c0,0.2-0.2,0.3-0.2,0.6c-0.3,1.3-0.5,2.7-0.6,4.1c-0.2,1.3-0.3,2.7-0.3,4.1
		c-0.2-0.3-0.3-0.6-0.6-0.9c-1.6-2.5-2.8-5.2-3.9-7.7c-0.3-0.6-0.5-1.1-0.6-1.7C194.2,151.6,194.2,151.4,194.2,151.1z M193.9,154.1
		c0-0.2,0-0.3,0-0.5c0,0.2,0,0.2,0.2,0.3c1.1,2.7,2.4,5.3,3.9,7.9c0.5,0.6,0.8,1.4,1.3,2c0,1.3,0,2.7,0.2,3.9c0.2,1.7,0.5,3.5,0.8,5
		c0.3,1.3,0.6,2.5,0.9,3.8c-2.4-2.5-4.4-5.3-6.3-8.2c-0.2-0.2-0.3-0.5-0.5-0.6c0-0.3-0.2-0.6-0.2-0.8c-0.3-2.2-0.5-4.2-0.6-6.4
		C193.8,158.2,193.8,156.1,193.9,154.1z M187.9,147c0.2-1.3,0.5-2.5,0.6-3.6c0.2-0.6,0.3-1.1,0.5-1.7s0.3-1.1,0.5-1.7
		c0.5-1.6,0.9-3,1.4-4.4c0,0.5,0,0.9,0,1.6c0,0.5,0,1.1,0,1.7c0,1.1,0.2,2.4,0.3,3.6c0,0.6,0.2,1.3,0.3,1.9c0,0.3,0.2,0.6,0.2,0.9
		c0,0.3,0.2,0.6,0.2,0.9c0.3,1.9,0.9,3.9,1.7,6c0,0.2,0,0.3-0.2,0.5c0,0.5-0.2,0.9-0.2,1.6c-0.2,2-0.3,4.2-0.3,6.3
		c0,1.7,0.2,3.5,0.3,5.2c-1.1-2-2.2-4.2-3-6.4c-0.3-0.8-0.6-1.6-0.8-2.4c-0.3-0.8-0.5-1.6-0.8-2.4c-0.3-1.6-0.8-3-1.1-4.6
		C187.8,149,187.8,147.9,187.9,147z M205.6,189.9c-0.5-0.3-0.8-0.6-1.3-0.9l-1.3-1.1c-0.8-0.8-1.6-1.4-2.4-2.2
		c-1.4-1.4-2.8-2.8-4.1-4.2c-0.9-1.3-1.9-2.5-2.8-3.9c-1.4-2.2-2.5-4.4-3.5-6.9c-0.2-0.6-0.5-1.3-0.6-1.9c-0.2-0.6-0.3-1.3-0.6-1.9
		l-0.2-0.5V166l0,0l0,0l0,0v-0.2l-0.2-0.9c-0.2-0.6-0.3-1.3-0.3-2c-0.2-1.3-0.3-2.7-0.5-3.9c-0.2-1.3-0.2-2.7-0.2-3.9
		c0-0.6,0-1.4,0-2c0.2,0.6,0.3,1.4,0.5,2c0.5,1.6,0.9,3.1,1.6,4.7c1.1,2.8,2.4,5.7,4.1,8.3c0.2,0.8,0.3,1.6,0.5,2.4
		c0.2,0.5,0.3,1.1,0.3,1.6l0.2,0.8l0.2,0.5v0.2c0,0.2,0,0.2,0,0.2c0.6,2,1.4,4.1,2.5,6c0.9,1.9,2,3.5,3.3,5c1.1,1.4,2.4,2.8,3.5,3.9
		c0.8,0.8,1.6,1.6,2.4,2.2C206.2,190.3,205.9,190.1,205.6,189.9z M211.1,193.2c-0.8-0.5-1.7-0.9-2.5-1.4c-0.3-0.3-0.6-0.5-0.9-0.8
		c-0.9-0.9-2-2-3.1-3.1c-1.1-1.3-2.2-2.5-3.3-4.1c-1.1-1.6-2.2-3.1-3.1-5c-0.9-1.7-1.7-3.8-2.4-5.8v-0.2v-0.2l-0.2-0.5l-0.2-0.8
		c-0.2-0.5-0.3-1.1-0.3-1.6v-0.2c1.7,2.7,3.6,5.2,5.8,7.6l1.1,1.3c0.5,1.3,0.9,2.7,1.6,3.8c0.6,1.4,1.4,2.8,2.2,4.1
		c0.3,0.6,0.8,1.3,1.3,1.7c0.5,0.6,0.8,1.1,1.3,1.6c0.5,0.5,0.8,0.9,1.3,1.4c0.5,0.5,0.8,0.8,1.1,1.3c0.3,0.3,0.8,0.6,1.1,0.9
		c0,0,0.2,0,0.2,0.2C211.4,193.6,211.2,193.4,211.1,193.2z M212.3,194c-0.2-0.2-0.5-0.5-0.6-0.6c-0.3-0.3-0.6-0.6-0.9-1.1
		c-0.3-0.3-0.6-0.8-1.1-1.3c-0.3-0.5-0.8-0.9-1.1-1.4c-0.8-1.1-1.6-2.2-2.2-3.5c-0.8-1.3-1.4-2.7-2-4.1c-0.3-0.6-0.6-1.4-0.8-2
		c0.5,0.3,0.8,0.8,1.3,1.1c0.2,0.2,0.3,0.3,0.5,0.5l0.5,0.5l1.1,0.8c0.3,0.3,0.6,0.6,1.1,0.8l1.1,0.8c0.2,0.2,0.5,0.3,0.6,0.5l0,0
		c0.3,0.6,0.6,1.3,0.8,1.7c0.2,0.3,0.3,0.6,0.5,0.9c0.2,0.3,0.3,0.6,0.5,0.8c0.3,0.5,0.6,1.1,0.9,1.6c0.3,0.5,0.6,0.9,0.9,1.4
		c0.3,0.5,0.6,0.9,0.9,1.3c0.3,0.3,0.6,0.8,0.9,1.1c0.3,0.3,0.5,0.6,0.8,0.9c0.2,0.2,0.3,0.5,0.5,0.6
		C214.7,195,213.6,194.5,212.3,194z M216.7,195.8c-0.2,0-0.3-0.2-0.5-0.2l0,0c-0.2-0.3-0.5-0.5-0.6-0.8c-0.2-0.3-0.5-0.6-0.6-0.9
		c-0.3-0.3-0.5-0.8-0.8-1.1c-0.3-0.5-0.5-0.8-0.8-1.3c-0.3-0.5-0.6-0.9-0.8-1.4c-0.3-0.5-0.5-1.1-0.8-1.6c-0.2-0.3-0.3-0.5-0.5-0.8
		c-0.2-0.3-0.3-0.6-0.3-0.9c-0.2-0.2-0.2-0.5-0.3-0.6c1.7,1.1,3.3,2,5.2,2.8c0,0.2,0.2,0.3,0.2,0.3c0.2,0.3,0.2,0.5,0.3,0.6
		c0.2,0.5,0.5,0.9,0.6,1.4c0.2,0.5,0.5,0.8,0.6,1.3c0.2,0.3,0.5,0.8,0.6,1.1c0.2,0.3,0.5,0.6,0.6,0.9c0.2,0.3,0.3,0.6,0.5,0.8
		c0.2,0.3,0.3,0.5,0.5,0.6c0.2,0.2,0.3,0.5,0.5,0.6C219.1,196.4,218,196.1,216.7,195.8z M220.4,196.7c-0.2-0.2-0.3-0.5-0.5-0.8
		c-0.2-0.2-0.3-0.5-0.5-0.8c-0.2-0.3-0.3-0.6-0.5-0.9c-0.2-0.3-0.3-0.6-0.5-0.9c-0.2-0.3-0.3-0.8-0.5-1.1c-0.2-0.5-0.3-0.8-0.6-1.3
		c-0.2-0.5-0.3-0.9-0.5-1.4c0-0.2-0.2-0.3-0.2-0.5c0.3,0.2,0.8,0.3,1.1,0.5c0.8,0.3,1.6,0.6,2.4,0.8c0.3,0.2,0.8,0.3,1.1,0.3v0.2
		c0.2,0.5,0.3,0.8,0.5,1.3c0.2,0.3,0.3,0.8,0.5,1.1c0.2,0.3,0.3,0.6,0.5,0.9c0.2,0.3,0.3,0.6,0.5,0.9c0.2,0.3,0.3,0.5,0.5,0.8
		c0.2,0.3,0.3,0.5,0.3,0.6c0.2,0.3,0.3,0.5,0.5,0.8C223,197.2,221.8,197,220.4,196.7z M228.5,197.6c-1.3,0-2.7-0.2-4.1-0.3
		c-0.2-0.2-0.2-0.5-0.3-0.8c-0.2-0.2-0.2-0.5-0.3-0.6c-0.2-0.3-0.2-0.5-0.3-0.8c-0.2-0.3-0.3-0.6-0.3-0.9c-0.2-0.3-0.3-0.6-0.3-1.1
		c-0.2-0.3-0.3-0.8-0.3-1.1c-0.2-0.3-0.2-0.6-0.3-0.9c0.2,0,0.3,0,0.5,0.2c0.8,0.2,1.6,0.3,2.4,0.5c0.6,0.2,1.3,0.2,1.9,0.3
		c0.2,0.5,0.3,1.1,0.5,1.6c0.2,0.3,0.2,0.6,0.3,0.9c0.2,0.3,0.2,0.5,0.3,0.8c0.2,0.5,0.3,0.9,0.5,1.3c0.3,0.6,0.5,1.1,0.5,1.1
		s-0.2-0.5-0.3-1.1c-0.2-0.3-0.2-0.8-0.3-1.3c0-0.3-0.2-0.5-0.2-0.8c0-0.3-0.2-0.6-0.2-0.9c-0.2-0.5-0.2-0.9-0.3-1.3
		c1.7,0.2,3.5,0.3,5,0.3c0,0.2,0,0.2,0,0.3c0.2,0.6,0.3,1.1,0.3,1.7c0,0.3,0.2,0.5,0.2,0.8c0,0.2,0.2,0.5,0.2,0.6
		c0.2,0.5,0.3,0.8,0.3,1.1c0.2,0.3,0.2,0.5,0.2,0.6C232.2,197.6,230.4,197.6,228.5,197.6z M239.2,196.7c-1.7,0.3-3.5,0.5-5.3,0.6
		c0-0.2,0-0.3-0.2-0.6c0-0.3-0.2-0.6-0.2-1.1c0-0.2,0-0.5-0.2-0.6c0-0.2,0-0.5-0.2-0.8c0-0.5-0.2-1.1-0.2-1.6v-0.2
		c0.9,0,1.9,0,2.8-0.2c0.8,0,1.7-0.2,2.5-0.2c0,0.3,0,0.5,0,0.8c0,0.5,0.2,0.9,0.2,1.3c0,0.3,0.2,0.8,0.2,1.1c0,0.3,0.2,0.6,0.2,0.8
		C239.2,196.4,239.2,196.7,239.2,196.7s0-0.3,0-0.8c0-0.5,0-1.1,0-1.9c0-0.3,0-0.8,0-1.3c0-0.3,0-0.5,0-0.8c1.4-0.2,2.8-0.5,4.1-0.6
		c0.8-0.2,1.4-0.3,2.2-0.5c0,0.5,0,0.8,0,1.3c0,0.3,0,0.6,0,0.9c0,0.3,0,0.6,0,0.8c0,0.5,0,0.9,0,1.3v0.2
		C243.5,195.9,241.4,196.4,239.2,196.7z M245.4,190.6c-0.6,0.2-1.4,0.3-2.2,0.5c-1.3,0.2-2.5,0.5-3.9,0.6v-0.2c0-0.9,0-2,0-3
		c0-0.8,0-1.6,0.2-2.4c1.3,0,2.2-0.2,3.1-0.3c0.6,0,1.3-0.2,1.7-0.2c0.5,0,0.8-0.2,1.3-0.2l0.6,0.5c0,0.2,0,0.3-0.2,0.5
		c0,0.3-0.2,0.5-0.2,0.8s-0.2,0.6-0.2,0.9c-0.2,0.6-0.2,1.3-0.3,2C245.5,190.3,245.5,190.4,245.4,190.6z M246.2,187.3
		c0-0.3,0-0.6,0.2-0.8c0-0.2,0-0.3,0-0.5l2.8,2c0.6,0.5,1.1,0.8,1.6,1.1c-0.6,0.2-1.3,0.3-2,0.6c-0.8,0.2-1.7,0.5-2.8,0.6
		c0-0.2,0-0.2,0-0.3c0-0.6,0.2-1.4,0.2-2C246.2,187.7,246.2,187.4,246.2,187.3z M248,194.5c-0.8,0.3-1.7,0.5-2.7,0.8v-0.2
		c0-0.3,0-0.8,0.2-1.3c0-0.3,0-0.5,0-0.8s0-0.6,0.2-0.9c0-0.5,0-0.9,0.2-1.4c1.1-0.3,2-0.5,2.8-0.8c0.8-0.2,1.4-0.5,2-0.6
		c0,0,0,0,0.2,0c0.6,0.3,1.1,0.6,1.6,0.9c0,0.2,0,0.2,0,0.3c-0.2,0.6-0.2,1.3-0.2,1.7c0,0.3,0,0.6,0,0.8
		C251,193.6,249.6,194,248,194.5z M254.6,192.1c-0.8,0.3-1.6,0.6-2.4,0.9c0-0.2,0.2-0.3,0.2-0.6c0.2-0.5,0.3-1.1,0.3-1.7v-0.2
		c0.9,0.5,1.9,0.9,2.7,1.1C255.3,191.8,255,192,254.6,192.1z M263.3,186.9c-0.2,0.8-0.3,1.6-0.8,2.2c-0.5,0.6-1.1,1.3-1.9,1.7
		c-0.8,0.3-1.7,0.5-2.5,0.5c-0.9,0-1.7-0.2-2.5-0.5c-0.8-0.2-1.6-0.6-2.4-0.9c-1.4-0.8-2.7-1.6-3.8-2.4c-1.1-0.8-1.9-1.4-2.4-1.9
		c-0.6-0.5-0.9-0.8-0.9-0.8s1.4,0.9,3.5,2.4c0.5,0.3,1.1,0.8,1.7,1.1c0.6,0.3,1.3,0.8,2,1.1c0.8,0.3,1.4,0.6,2.2,0.9
		c0.8,0.2,1.6,0.3,2.4,0.5c0.8,0,1.6-0.2,2.4-0.5s1.4-0.9,1.7-1.6c0.5-0.6,0.6-1.4,0.8-2c0.2-0.6,0.2-1.4,0.2-2
		c-0.2-1.3-0.3-2.4-0.5-3c-0.2-0.8-0.2-1.1-0.2-1.1s0.2,0.5,0.3,1.1c0.2,0.3,0.2,0.8,0.3,1.3c0.2,0.5,0.3,1.1,0.3,1.7
		C263.3,185.4,263.3,186.2,263.3,186.9z"/>
	<path class="st1" d="M50.9,35.1c0,0.2-0.2,0.5-0.3,0.8c0,0.2-0.2,0.2-0.2,0.3c-0.2,0.2-0.2,0.3-0.3,0.3c-0.2,0.2-0.2,0.2-0.3,0.3
		c-0.2,0.2-0.2,0.2-0.3,0.3c-0.3,0.2-0.5,0.3-0.8,0.5c-0.2,0-0.3,0.2-0.5,0.2h-0.2l33.2,21.2c0.3-1.3,0.9-2.5,1.9-3.6
		c0.3-0.3,0.8-0.8,1.3-0.9L51.6,33.7c0-0.2,0-0.3,0-0.5l33.4,21.2c0.2-0.2,0.3-0.2,0.5-0.2L51.6,32.6c-0.2-1.3-0.8-2.4-1.9-3.1
		L8.3,2.9c-1.6-0.9-3.6-0.9-5,0.3C3.1,3.4,2.6,3.5,2.3,4.3C2,4.5,1.8,4.8,1.7,5.1c-0.6,0.9-0.8,2-0.6,3s0.6,1.7,1.4,2.4
		c0.2,0,0.2,0,0.3,0.2c0.2,0,0.5,0.2,0.6,0.2c0.3,0,0.5,0,0.8,0s0.5,0,0.8-0.2c0.2,0,0.3,0,0.5-0.2c0.2,0,0.3-0.2,0.3-0.2
		c0.3-0.2,0.5-0.3,0.8-0.5c0.2-0.2,0.2-0.2,0.3-0.3C7,9.3,7,9.3,7.2,9.2C7.3,9,7.3,9,7.5,8.9c0-0.2,0.2-0.2,0.2-0.3
		C7.8,8.4,7.8,8.1,8,7.9c0.2-0.2,0.2-0.5,0.2-0.6c0-0.2,0-0.2,0-0.3V6.8c0-0.3,0-0.5,0-0.5s0,0.2,0,0.5V7c0,0.2,0,0.2,0,0.3
		c0,0.2,0,0.5-0.2,0.6c0,0.2-0.2,0.5-0.3,0.8c0,0.2-0.2,0.2-0.2,0.3C7.3,9.2,7.3,9.3,7.2,9.3C7,9.5,7,9.5,6.9,9.7
		C6.7,9.8,6.7,9.8,6.6,10c-0.3,0.2-0.5,0.3-0.8,0.5c-0.2,0-0.3,0.2-0.5,0.2S5,10.8,4.8,10.8c0,0.3-0.3,0.3-0.6,0.3
		c-0.3,0-0.6,0-0.9-0.2l41.2,26.4c-0.2,0-0.2-0.2-0.2-0.2s0.2,0,0.3,0.2c0.2,0,0.3,0.2,0.5,0.2c0.2,0,0.3,0.2,0.6,0.2
		c0.2,0,0.5,0.2,0.6,0.2c0.3,0,0.5,0,0.8,0c0.3,0,0.5,0,0.8-0.2c0.2,0,0.3,0,0.5-0.2c0.2,0,0.3-0.2,0.3-0.2c0.3-0.2,0.5-0.3,0.8-0.5
		c0.2-0.2,0.2-0.2,0.3-0.3c0.2-0.2,0.2-0.2,0.3-0.3c0.2-0.2,0.2-0.2,0.3-0.3c0-0.2,0.2-0.2,0.2-0.3c0.2-0.2,0.2-0.5,0.3-0.6
		c0.2-0.2,0.2-0.5,0.2-0.6c0-0.2,0-0.2,0-0.3v-0.2c0-0.3,0-0.5,0-0.5s0,0,0,0.2v0.2l0,0v0.2c0,0.2,0,0.2,0,0.3
		C51.1,34.8,51.1,35,50.9,35.1z M50.9,33.3c-0.2-1.1-0.8-2.2-1.9-2.8L7.3,3.7C6.2,3,5,2.9,3.9,3.2c1.3-0.8,2.8-0.8,4.1,0l41.4,26.7
		c1.3,0.8,1.9,2.2,1.7,3.5L50.9,33.3z"/>
	<g id="Light_Logo">
		<g>
			<path class="st1" d="M163.9,59.8c-4.2-2-2.5-11.8,10.4-14.3c18.9-3.6,42.8,28.6-9.4,42.9c0,0,15.1-4.7,21.2-12.9
				c11.6-15.4-3.8-23.8-9.8-21.2C169.5,57.5,169.1,62.4,163.9,59.8z"/>
			<path class="st1" d="M59.4,59.8c4.2-2,2.5-11.8-10.4-14.3c-18.9-3.6-42.8,28.6,9.4,42.9c0,0-15.1-4.7-21.2-12.9
				C25.6,60.2,41,51.8,47,54.3C53.8,57.5,54.2,62.4,59.4,59.8z"/>
		</g>
		<path class="st1" d="M159.5,59.4c-1.6-21.2-14.5-35.1-35.7-37.9c-2-0.3-6.6-0.6-12.1-0.8c-5.3,0-9.9,0.5-12.1,0.8
			c-11.3,1.4-20.5,6.1-26.6,13.4c-5.3,6.3-8.5,14.6-9.3,24.5c-2,26.7,25,46.9,25,46.9s-20.6-28.5-8.2-39.5
			c13.5-12.1,28.5,2,31.1,4.7c2.7-2.7,17.8-16.8,31.1-4.7c12.4,11.2-8.3,39.5-8.3,39.5S161.4,86.1,159.5,59.4z"/>
		<g>
			<path class="st1" d="M121.1,87.5c0,0,7.1-17.1,16-4.4C137.1,83,135.4,89.4,121.1,87.5z"/>
			<path class="st1" d="M102.1,87.5c0,0-7.1-17.1-16-4.4C86.2,83,87.9,89.4,102.1,87.5z"/>
		</g>
		<path class="st1" d="M111.5,126.4c-6.8-0.3-15.1-1.9-25-5.5c0.5,6.3,6.9,12.7,25,16.2l0,0l0,0c18.1-3.6,24.5-9.9,25-16.2
			C126.8,124.5,118.4,125.9,111.5,126.4z"/>
		<path class="st1" d="M92,121.5c1.1,0.2,2.2,0.3,3.1,0.5c1.1,0.2,2.2,0.3,3.3,0.5c4.2,0.5,8.7,0.6,13.1,0.6c4.4,0,8.7-0.3,13.1-0.8
			c4.1-0.5,8.2-1.3,12.1-2c0.9-14.3-25-30.7-25-30.7s-26.1,16.5-25,30.8C88.4,120.9,90.3,121.2,92,121.5z"/>
		<g>
			<path class="st2" d="M113.4,109.1c0,0,0.6-2.8,2.7-3.3c2-0.5,2.5-3.5,2.5-3.5S119.7,110.3,113.4,109.1z"/>
			<path class="st2" d="M109.9,109.1c0,0-0.6-2.8-2.7-3.3c-2-0.5-2.5-3.5-2.5-3.5S103.6,110.3,109.9,109.1z"/>
		</g>
		<g>
			<path class="st1" d="M134.5,106.2c0,0,21.1,24.5-22.8,30.8c0,0,46.4,2.8,31.6-39L134.5,106.2z"/>
			<path class="st1" d="M88.8,106.2c0,0-21.1,24.5,22.8,30.8c0,0-46.4,2.8-31.6-39L88.8,106.2z"/>
		</g>
		<path class="st1" d="M104.4,22.2c0,0,6.4,0.2,6-4.4c-0.5-4.6-6.6-6.3-11.8-2.2c0,0,6.3-8.8,16-3.6c8.7,4.7,1.7,14,1.7,14"/>
	</g>
</g>
</svg>
