<?xml version="1.0" encoding="utf-8"?>
<!-- Generator: Adobe Illustrator 24.1.2, SVG Export Plug-In . SVG Version: 6.00 Build 0)  -->
<svg version="1.1" id="Layer_1" xmlns="http://www.w3.org/2000/svg" xmlns:xlink="http://www.w3.org/1999/xlink" x="0px" y="0px"
	 viewBox="0 0 800 137" style="enable-background:new 0 0 800 137;" xml:space="preserve">
<style type="text/css">
	.st0{fill:#FFFFFF;}
	.st1{fill:none;}
	.st2{fill:#010101;}
</style>
<g>
	<path class="st0" d="M213,68.8v22.8h-8.5V35.4h9.6c4.7,0,8.3,0.3,10.7,1c2.4,0.7,4.6,1.9,6.4,3.7c3.2,3.2,4.8,7.1,4.8,11.9
		c0,5.1-1.7,9.2-5.2,12.2c-3.4,3-8.1,4.5-13.9,4.5H213z M213,61h3.2c7.8,0,11.7-3,11.7-9c0-5.8-4-8.7-12.1-8.7H213V61z"/>
	<path class="st0" d="M242,63.3c0-7.9,2.9-14.7,8.7-20.4c5.8-5.7,12.7-8.5,20.8-8.5c8,0,14.9,2.9,20.6,8.6
		c5.8,5.7,8.6,12.6,8.6,20.6c0,8.1-2.9,14.9-8.7,20.6c-5.8,5.7-12.8,8.5-21,8.5c-7.3,0-13.8-2.5-19.6-7.5
		C245.2,79.6,242,72.3,242,63.3z M250.6,63.4c0,6.2,2.1,11.3,6.3,15.3c4.2,4,8.9,6,14.4,6c5.9,0,10.9-2,14.9-6.1
		c4.1-4.1,6.1-9.2,6.1-15.1c0-6-2-11-6-15.1c-4-4.1-8.9-6.1-14.8-6.1c-5.9,0-10.8,2-14.8,6.1C252.6,52.5,250.6,57.5,250.6,63.4z"/>
	<path class="st0" d="M308.7,63.3c0-7.9,2.9-14.7,8.7-20.4c5.8-5.7,12.7-8.5,20.8-8.5c8,0,14.9,2.9,20.6,8.6
		c5.8,5.7,8.6,12.6,8.6,20.6c0,8.1-2.9,14.9-8.7,20.6c-5.8,5.7-12.8,8.5-21,8.5c-7.3,0-13.8-2.5-19.6-7.5
		C311.8,79.6,308.7,72.3,308.7,63.3z M317.2,63.4c0,6.2,2.1,11.3,6.3,15.3c4.2,4,8.9,6,14.4,6c5.9,0,10.9-2,14.9-6.1
		c4.1-4.1,6.1-9.2,6.1-15.1c0-6-2-11-6-15.1c-4-4.1-8.9-6.1-14.8-6.1c-5.9,0-10.8,2-14.8,6.1C319.2,52.5,317.2,57.5,317.2,63.4z"/>
	<path class="st0" d="M386.6,35.4v48.2h16.5v8h-25V35.4H386.6z"/>
	<path class="st0" d="M431.6,91.7l11.8-60.4l19.3,43.7l20-43.7l10.6,60.4h-8.7l-5.4-33.9l-16.6,36.5l-16.2-36.6l-6,34H431.6z"/>
	<path class="st0" d="M502.4,63.3c0-7.9,2.9-14.7,8.7-20.4c5.8-5.7,12.7-8.5,20.8-8.5c8,0,14.9,2.9,20.6,8.6
		c5.8,5.7,8.6,12.6,8.6,20.6c0,8.1-2.9,14.9-8.7,20.6c-5.8,5.7-12.8,8.5-21,8.5c-7.3,0-13.8-2.5-19.6-7.5
		C505.6,79.6,502.4,72.3,502.4,63.3z M511,63.4c0,6.2,2.1,11.3,6.3,15.3c4.2,4,8.9,6,14.4,6c5.9,0,10.9-2,14.9-6.1
		c4.1-4.1,6.1-9.2,6.1-15.1c0-6-2-11-6-15.1c-4-4.1-8.9-6.1-14.8-6.1c-5.9,0-10.8,2-14.8,6.1C513,52.5,511,57.5,511,63.4z"/>
	<path class="st0" d="M571.9,91.7v-60l41,42.9V35.4h8.5v59.6l-41-42.8v39.4H571.9z"/>
	<path class="st0" d="M643.3,57.9l21.9-22.4h11.3l-25.4,25.5l25.6,30.8h-11.4l-20.2-25l-1.7,1.7v23.3h-8.5V35.4h8.5V57.9z"/>
	<path class="st0" d="M715.3,43.4h-22.5v13.5h21.9v8h-21.9v18.8h22.5v8h-31V35.4h31V43.4z"/>
	<path class="st0" d="M737.8,67.4l-18.4-31.9h9.8L742,57.9l12.9-22.5h9.8l-18.4,31.9v24.3h-8.5V67.4z"/>
</g>
<g>
	<rect x="2.9" y="84.6" class="st1" width="1" height="2"/>
	<path class="st2" d="M3,84.7L3,84.7L3,85.4h0.3v0.1H3V84.7z"/>
</g>
<path class="st0" d="M191.6,125.4l-2.1-9.9c-0.9-4.2-5.5-10.7-10.5-14.6l-20.2-16c-3.4-2.7-6.2-3.6-8-2.5c-0.7,0.4-1.7,1.4-1.4,3.7
	c0-0.2-0.1-0.4-0.1-0.7c0-0.4-0.1-0.9,0-1.4c0-0.1,0.1-0.3,0.1-0.4c0-0.1,0.1-0.3,0.1-0.4c0.1-0.3,0.2-0.5,0.4-0.7
	c0.4-0.5,0.9-0.8,1.5-1c0.6-0.2,1.3-0.1,2,0c1.4,0.4,2.8,1.2,4.1,2.1c0.7,0.5,1.3,1,2,1.6c0.7,0.5,1.4,1.1,2.1,1.7
	c2.8,2.3,5.9,4.7,8.9,7.1c1.5,1.2,3,2.4,4.5,3.6c0.7,0.6,1.5,1.2,2.2,1.8c0.7,0.6,1.5,1.2,2.2,1.7c1.4,1.2,2.6,2.4,3.7,3.7
	c1.1,1.3,2.1,2.5,2.9,3.7c0.8,1.2,1.5,2.4,2,3.4c0.5,1.1,0.9,2,1.1,2.9c0.2,0.8,0.3,1.5,0.4,1.9c0.1,0.4,0.2,0.7,0.2,0.7
	s0-0.2-0.1-0.7c-0.1-0.4-0.2-1.1-0.4-1.9c-0.2-0.8-0.5-1.8-1-2.9c-0.5-1.1-1.2-2.2-2-3.5c-0.8-1.2-1.8-2.5-2.9-3.7
	c-1.1-1.3-2.3-2.5-3.7-3.7c-0.7-0.6-1.4-1.2-2.2-1.7c-0.7-0.6-1.5-1.2-2.2-1.8c-1.5-1.2-3-2.4-4.5-3.6c-3-2.4-6.1-4.8-8.9-7.1
	c-0.7-0.6-1.4-1.1-2.1-1.7c-0.7-0.5-1.4-1.1-2-1.6c-1.4-1-2.8-1.8-4.2-2.1c-0.7-0.2-1.4-0.2-2.1,0c-0.7,0.2-1.2,0.6-1.6,1
	c-0.2,0.2-0.3,0.5-0.4,0.8c-0.1,0.1-0.1,0.3-0.1,0.4c0,0.1-0.1,0.3-0.1,0.4c-0.1,0.5-0.1,1,0,1.4c0,0.3,0.1,0.5,0.1,0.7
	c-0.1,0.2-0.2,0.3-0.4,0.6c0,0-0.1,0.1-0.1,0.1l-0.3-0.2c0.1-0.3,0.1-0.5,0.2-0.7c0.1-0.4,0.1-0.6,0.1-0.6s-0.1,0.2-0.2,0.6
	c0,0.2-0.1,0.4-0.2,0.7l-0.6-0.4c0,0,0,0,0.1-0.1c0.4-0.4,0.8-0.7,1.2-1c0,0,0-0.1-0.1-0.1c-0.2,0.2-0.4,0.3-0.7,0.5
	c-0.2,0.2-0.5,0.4-0.7,0.6l-4.4-2.8c-0.9-0.5-1.9-0.6-2.8-0.1l-9.5-6.1c0.1-1-0.4-2-1.3-2.5l-6.5-4.2c-0.4-0.3-0.9-0.4-1.3-0.4
	c-0.3,0-0.6,0-0.9,0.1l-5.3-3.4c0,0.1,0,0.2,0,0.4l4.9,3.1c-0.1,0-0.2,0.1-0.3,0.1l-4.6-3c0,1.2-0.6,2.4-1.6,3.1l3.3,2.1
	c0.1,0.1,0.3,0.1,0.5,0.2c0.1,0.1,0.2,0.1,0.3,0.2c0.1,0,0.3,0.1,0.4,0.2c0.1,0,0.1,0,0.2,0c0.1,0,0.1,0,0.2,0c0.1,0,0.1,0,0.2,0
	c0.1,0,0.1,0,0.2,0l0.2-0.1c0.1,0,0.1-0.1,0.2-0.1c0.1-0.1,0.2-0.2,0.4-0.2c0-0.1,0.1-0.1,0.1-0.2l0.1-0.1c0,0,0-0.1,0.1-0.1
	c0.1-0.1,0.1-0.2,0.2-0.3c0-0.1,0-0.1,0.1-0.2c0-0.1,0-0.1,0-0.1c0-0.1,0-0.2,0-0.2c0-0.1,0-0.2,0-0.2s0,0.1,0,0.2
	c0,0.1,0,0.2,0,0.3c0,0.1,0,0.1,0,0.2c0,0.1,0,0.1,0,0.2c0,0.1-0.1,0.3-0.1,0.4c-0.1,0.1-0.2,0.3-0.3,0.4c-0.1,0.1-0.1,0.1-0.2,0.2
	c0,0-0.1,0.1-0.1,0.1l-0.1,0.1c-0.1,0-0.1,0.1-0.2,0.1l-0.2,0.1c-0.1,0-0.2,0-0.3,0c-0.1,0-0.2,0-0.3,0c-0.1,0-0.2,0-0.2,0
	c0,0,0,0,0,0.1c0.1,0.6,0.4,1.1,0.9,1.5c0.1,0,0.2,0,0.3,0.1c0.1,0,0.2,0,0.4,0c0.1,0,0.3,0,0.4,0c0.2,0,0.3-0.1,0.5-0.1
	c0.2-0.1,0.3-0.1,0.5-0.2c0.1,0,0.2-0.1,0.2-0.1c0.1,0,0.1-0.1,0.2-0.2c0.1-0.1,0.3-0.2,0.4-0.4c0.1-0.1,0.1-0.1,0.2-0.2
	c0-0.1,0.1-0.2,0.1-0.2c0-0.1,0.1-0.2,0.1-0.2c0-0.1,0-0.2,0.1-0.2c0.1-0.2,0.1-0.3,0.1-0.4c0-0.1,0-0.3,0-0.4c0-0.1,0-0.1,0-0.2
	c0,0,0-0.1,0-0.1c0-0.2,0-0.3,0-0.3s0,0.1,0.1,0.3c0,0,0,0.1,0,0.1c0,0.1,0,0.1,0,0.2c0,0.1,0.1,0.3,0,0.4c0,0.2,0,0.3,0,0.5
	c0,0.1,0,0.2-0.1,0.3c0,0.1-0.1,0.2-0.1,0.3c0,0.1-0.1,0.2-0.1,0.3c-0.1,0.1-0.1,0.2-0.2,0.2c-0.1,0.2-0.3,0.3-0.4,0.4
	c-0.1,0.1-0.2,0.1-0.2,0.2c-0.1,0.1-0.2,0.1-0.3,0.2c-0.2,0.1-0.4,0.2-0.5,0.2c-0.4,0.1-0.7,0.1-1,0.1c-0.1,0-0.3-0.1-0.4-0.1
	c0,0,0,0-0.1,0c0,0,0.1,0.1,0.1,0.1l5.7,3.7c-0.1-0.1-0.2-0.1-0.2-0.1s0.1,0,0.2,0.1c0.1,0,0.2,0.1,0.3,0.1c0.1,0,0.2,0.1,0.4,0.1
	c0.1,0,0.3,0.1,0.4,0.1c0.2,0,0.3,0,0.5,0c0.2,0,0.3,0,0.5-0.1c0.1,0,0.2,0,0.3-0.1c0.1,0,0.2-0.1,0.2-0.1c0.2-0.1,0.3-0.2,0.5-0.3
	c0.1-0.1,0.1-0.1,0.2-0.2c0.1-0.1,0.1-0.1,0.2-0.2c0.1-0.1,0.1-0.1,0.2-0.2c0-0.1,0.1-0.1,0.1-0.2c0.1-0.1,0.1-0.3,0.2-0.4
	c0.1-0.1,0.1-0.3,0.1-0.4c0-0.1,0-0.1,0-0.2c0,0,0-0.1,0-0.1c0-0.2,0-0.3,0-0.3s0,0.1,0,0.3c0,0,0,0.1,0,0.1c0,0.1,0,0.1,0,0.2
	c0,0.1,0,0.3-0.1,0.4c0,0.1-0.1,0.3-0.2,0.5c0,0.1-0.1,0.1-0.1,0.2c-0.1,0.1-0.1,0.2-0.2,0.2c-0.1,0.1-0.1,0.1-0.2,0.2
	c-0.1,0.1-0.1,0.1-0.2,0.2c-0.2,0.1-0.3,0.2-0.5,0.3c-0.1,0-0.2,0.1-0.3,0.1c-0.1,0-0.2,0.1-0.3,0.1c-0.2,0.1-0.4,0.1-0.6,0.1
	c-0.4,0-0.7-0.1-1-0.2c0,0-0.1,0-0.1-0.1l0.3,0.2c0.7,0.4,1.4,0.5,2.1,0.3l10.1,6.5c0,0,0.1,0,0.1,0c0.1,0,0.1,0,0.2,0
	c0.1,0,0.1,0,0.2,0l0.2-0.1c0.1,0,0.1-0.1,0.2-0.1c0.1-0.1,0.2-0.2,0.4-0.2c0-0.1,0.1-0.1,0.1-0.2l0.1-0.1c0,0,0-0.1,0.1-0.1
	c0.1-0.1,0.1-0.2,0.2-0.3c0-0.1,0-0.1,0.1-0.2c0-0.1,0-0.1,0-0.1c0-0.1,0-0.2,0-0.2c0-0.1,0-0.2,0-0.2s0,0.1,0,0.2
	c0,0.1,0,0.2,0,0.3c0,0.1,0,0.1,0,0.2c0,0.1,0,0.1,0,0.2c0,0.1-0.1,0.3-0.1,0.4c-0.1,0.1-0.2,0.3-0.3,0.4c-0.1,0.1-0.1,0.1-0.2,0.2
	c0,0-0.1,0.1-0.1,0.1l-0.1,0.1c-0.1,0-0.1,0.1-0.2,0.1l-0.2,0.1c-0.1,0-0.2,0-0.3,0c-0.1,0-0.1,0-0.2,0c0.2,0.6,0.5,1.2,1.1,1.6l0,0
	c0,0,0,0,0,0c0.1,0,0.3,0,0.4,0c0.2,0,0.3-0.1,0.5-0.1c0.2-0.1,0.3-0.1,0.5-0.2c0.1,0,0.2-0.1,0.2-0.1c0.1,0,0.1-0.1,0.2-0.2
	c0.1-0.1,0.3-0.2,0.4-0.4c0.1-0.1,0.1-0.1,0.2-0.2c0-0.1,0.1-0.2,0.1-0.2c0-0.1,0.1-0.2,0.1-0.2c0-0.1,0-0.2,0.1-0.2
	c0.1-0.2,0.1-0.3,0.1-0.4c0-0.1,0-0.3,0-0.4c0-0.1,0-0.1,0-0.2c0,0,0-0.1,0-0.1c0-0.2,0-0.3,0-0.3s0,0.1,0.1,0.2c0,0,0,0.1,0,0.1
	c0,0.1,0,0.1,0,0.2c0,0.1,0.1,0.3,0,0.4c0,0.2,0,0.3,0,0.5c0,0.1,0,0.2-0.1,0.3c0,0.1-0.1,0.2-0.1,0.3c0,0.1-0.1,0.2-0.1,0.3
	c-0.1,0.1-0.1,0.2-0.2,0.2c-0.1,0.2-0.3,0.3-0.4,0.4c-0.1,0.1-0.2,0.1-0.2,0.2c-0.1,0.1-0.2,0.1-0.3,0.2c-0.2,0.1-0.4,0.2-0.5,0.2
	c-0.3,0.1-0.5,0.1-0.7,0.1l8.2,5.2c0,0-0.1,0-0.1,0s0.1,0.1,0.3,0.1c0.1,0,0.2,0.1,0.3,0.1c0.1,0.1,0.3,0.1,0.4,0.1
	c0.2,0,0.3,0.1,0.5,0.1c0.2,0,0.4,0,0.6,0l0.2,0l0.1,0c0.1,0,0.2-0.1,0.3-0.1c0.2-0.1,0.4-0.2,0.5-0.3c0.2-0.1,0.3-0.2,0.4-0.4
	c0.1-0.1,0.3-0.1,0.4-0.2c-0.1,0.1-0.1,0.3-0.2,0.4c-0.3,0.5-0.8,0.8-1.3,1l0.9,4.3c0.2,0.8,0.5,1.6,0.9,2.5c0,0,0,0.1,0,0.1
	c-0.1,0.2-0.2,0.6-0.4,1c-0.2,0.4-0.3,1-0.5,1.6c-0.1,0.3-0.2,0.6-0.3,1c-0.6-1.1-1.1-2.3-1.6-3.4c-0.4-1.2-0.8-2.3-1.1-3.5
	c0-0.1,0.1-0.2,0.1-0.2c0.1-0.5,0.3-0.9,0.4-1.3c0.3-0.8,0.6-1.4,0.8-2c0,0-0.1,0-0.1,0c-0.2,0.5-0.6,1.2-0.9,1.9
	c-0.1,0.3-0.3,0.7-0.4,1.1c0-0.1,0-0.1,0-0.2c-0.3-1.2-0.5-2.4-0.6-3.5l-0.4-0.2c0.1,1.2,0.2,2.5,0.5,3.8c0.1,0.3,0.1,0.6,0.2,0.9
	c-0.1,0.3-0.2,0.6-0.3,0.8c-0.1,0.5-0.3,1-0.5,1.6c-0.1,0.3-0.1,0.6-0.2,0.8c-0.1,0.3-0.1,0.6-0.2,0.9c-0.1,0.5-0.2,0.9-0.3,1.4
	c0-0.1-0.1-0.3-0.1-0.4c-0.1-0.4-0.2-0.8-0.4-1.2c-0.1-0.4-0.2-0.8-0.3-1.2c0-0.2-0.1-0.4-0.1-0.6c0-0.2-0.1-0.4-0.1-0.6
	c-0.1-0.4-0.2-0.8-0.2-1.2c-0.1-0.8-0.2-1.5-0.2-2.2c0-0.4,0-0.7,0-1.1c0-0.3,0-0.7,0-1c0-0.3,0-0.5,0-0.8c0-0.1,0.1-0.2,0.1-0.3
	c0.1-0.3,0.2-0.5,0.3-0.8l-0.3-0.2c0,0,0,0.1-0.1,0.1c0-0.1,0-0.1,0-0.2l-0.2-0.1c0,0.1,0,0.2,0,0.3c0,0.2-0.1,0.5-0.1,0.7
	c-0.5,1.2-1,2.5-1.4,3.9c-0.1,0.4-0.2,0.7-0.3,1.1c-0.1,0.4-0.2,0.7-0.3,1.1c-0.2,0.8-0.3,1.5-0.4,2.3c0-0.3-0.1-0.6-0.1-0.8
	c0-0.2,0-0.5,0-0.7c0-0.2,0-0.4,0-0.7c0-0.4,0-0.9,0-1.3c0.1-0.8,0.1-1.7,0.2-2.4c0.1-0.4,0.1-0.8,0.2-1.1c0.1-0.4,0.2-0.7,0.2-1
	c0.1-0.3,0.2-0.7,0.2-1c0.1-0.3,0.2-0.6,0.3-0.9c0-0.1,0.1-0.3,0.1-0.4l-0.1-0.1c-0.1,0.1-0.1,0.3-0.2,0.4c-0.1,0.3-0.2,0.6-0.3,0.9
	c-0.1,0.3-0.2,0.6-0.3,1c-0.1,0.3-0.2,0.7-0.3,1c-0.1,0.4-0.1,0.7-0.2,1.1c-0.2,0.8-0.2,1.6-0.3,2.5c-0.1,0.4,0,0.9,0,1.3
	c0,0.2,0,0.5,0,0.7c0,0.2,0,0.5,0,0.7c0,0.5,0.1,0.9,0.1,1.4l0,0.4l0.1,0.4c0,0.1,0,0.2,0,0.3c-0.1,1.1-0.2,2.2-0.2,3.4
	c0,0.9,0,1.7,0.1,2.6c0,0.9,0.2,1.7,0.3,2.6c0.1,0.4,0.2,0.8,0.2,1.3l0.1,0.6l0,0.1l0,0c0,0,0,0,0,0l0,0l0,0.2l0.1,0.3
	c0.1,0.4,0.2,0.8,0.4,1.2c0.2,0.4,0.3,0.8,0.5,1.2c0.1,0.3,0.2,0.5,0.4,0.8c-0.3-0.5-0.5-0.9-0.8-1.4c-0.6-1.2-1.2-2.5-1.7-3.8
	c-0.5-1.3-0.9-2.6-1.1-3.8c-0.3-1.3-0.5-2.6-0.6-3.8c-0.1-1.3-0.1-2.5,0-3.7c0.2-2.4,0.7-4.7,1.5-6.6c0.5-1.3,1.1-2.4,1.8-3.4
	l-0.4-0.3c-0.7,1-1.4,2.2-1.9,3.5c-0.9,2-1.5,4.3-1.8,6.8c-0.2,2.5-0.1,5.2,0.4,7.8c0.3,1.3,0.7,2.7,1.1,4c0.5,1.3,1,2.6,1.7,3.9
	c1.3,2.5,2.9,5,4.8,7.2c1.9,2.2,4,4.2,6.2,6c1.2,0.9,2.4,1.6,3.6,2.3c1.3,0.6,2.6,1.2,3.9,1.6c2.6,0.8,5.3,1.1,7.8,1.1
	c2.5,0,4.8-0.3,7-0.8c2.1-0.5,4-1,5.7-1.7c0.7-0.3,1.4-0.5,2-0.8c0.4-0.2,0.9-0.3,1.2-0.5c0.7-0.3,1.3-0.6,1.8-0.8
	c1.3,0.3,2.4,0.2,3.2-0.3C191,129.4,192.2,128.2,191.6,125.4z M130.7,76.7c-0.1-0.7-0.5-1.4-1.2-1.8l-6.5-4.2
	c-0.7-0.4-1.4-0.5-2.1-0.3l-0.1-0.1c0.4-0.2,0.8-0.3,1.2-0.2c0.4,0,0.8,0.2,1.2,0.4l6.5,4.2c0.7,0.5,1.1,1.3,1.1,2.1L130.7,76.7z
	 M149.1,86.6c0.1-0.2,0.2-0.4,0.3-0.5c0,0.1,0.1,0.2,0.1,0.4c0,0,0,0,0,0c0,0.1,0,0.1,0,0.2l0.1,0.5l-0.6-0.4
	C149,86.7,149,86.7,149.1,86.6z M143.1,83.6c-0.7-0.4-1.4-0.5-2.1-0.3l-0.1-0.1c0.8-0.3,1.7-0.3,2.4,0.2l6.5,4.2l0.1,0.4L143.1,83.6
	z M179.1,104.2c0.1,0.1,0.3,0.3,0.5,0.4c0.2,0.2,0.4,0.3,0.6,0.6c0.2,0.2,0.4,0.4,0.7,0.7c0.3,0.2,0.5,0.5,0.8,0.8
	c0.3,0.3,0.5,0.6,0.8,0.9c0.2,0.3,0.5,0.6,0.8,0.9c0.3,0.3,0.5,0.6,0.7,1c0.2,0.3,0.5,0.6,0.7,1c0.2,0.3,0.4,0.6,0.6,0.9
	c0.2,0.3,0.3,0.6,0.5,0.9c0.1,0.3,0.3,0.5,0.4,0.7c0.1,0.2,0.2,0.4,0.3,0.6c0.1,0.3,0.2,0.5,0.2,0.5s-0.1-0.2-0.3-0.5
	c-0.1-0.2-0.2-0.3-0.3-0.6c-0.1-0.2-0.3-0.4-0.4-0.7c-0.2-0.3-0.3-0.5-0.5-0.8c-0.2-0.3-0.4-0.6-0.6-0.9c-0.2-0.3-0.4-0.6-0.7-0.9
	c-0.2-0.3-0.5-0.6-0.7-1c-0.2-0.3-0.5-0.6-0.7-0.9c-0.2-0.3-0.5-0.6-0.7-0.9c-0.2-0.3-0.5-0.6-0.7-0.8c-0.2-0.3-0.5-0.5-0.7-0.7
	C179.7,104.9,179.3,104.5,179.1,104.2c-0.3-0.2-0.4-0.4-0.4-0.4S178.8,104,179.1,104.2z M152.4,86.1c0,0,0-0.1,0-0.1
	c-0.1-0.7-0.1-1,0-1.1c0.3-0.1,1.8,0.1,4.6,2.3l20.2,16c4.3,3.4,8.6,9.4,9.4,12.9l2.1,9.9c0,0,0,0.1,0,0.1c0.2,0.9,0,1.2,0,1.2
	c-0.3,0.2-1.8,0-4.5-2l-20-15c-4.3-3.2-8.5-8.9-9.3-12.4L152.4,86.1z M176.3,123.2c0,0.1-0.1,0.3-0.1,0.5c-0.1,0.2-0.1,0.4-0.2,0.7
	c-0.1,0.2-0.1,0.5-0.2,0.8c-0.1,0.3-0.1,0.6-0.1,0.9c0,0.1,0,0.2,0,0.2c-0.2,0-0.3,0-0.5,0c-1,0-2-0.1-3.1-0.2c0-0.1,0-0.3,0-0.4
	c0-0.4,0-0.9,0-1.3c0-0.4,0-0.8,0-1.2c0-0.4,0-0.7,0.1-1c0,0,0,0,0.1,0c0.2,0,0.5,0.1,0.7,0.1c0.4,0.1,0.8,0.1,1.2,0.2
	c0.6,0.1,1,0.1,1.4,0.1l4.6,3.5c-0.2,0-0.4,0.1-0.7,0.1c-0.3,0-0.7,0.1-1.1,0.1c-0.6,0.1-1.3,0.1-2,0.1c0-0.1,0-0.1,0-0.2
	c0-0.3,0-0.6,0-0.9c0-0.3,0-0.5,0.1-0.8c0-0.4,0.1-0.8,0.1-1.1C176.4,123.2,176.4,123.2,176.3,123.2z M175.7,129.8c0,0,0,0.1,0,0.1
	c-0.5,0-1,0.1-1.6,0.1c-0.6,0-1.2,0-1.8,0c0-0.2,0-0.5-0.1-0.7c0-0.4-0.1-0.8-0.1-1.3c0-0.4,0-0.9-0.1-1.3c0-0.2,0-0.4,0-0.6
	c1.1,0.1,2.2,0.1,3.1,0.1c0.2,0,0.3,0,0.5,0c0,0.2,0,0.3,0,0.5c0,0.3,0,0.7-0.1,1c0,0.3,0,0.7,0,1
	C175.6,129.2,175.6,129.5,175.7,129.8z M167.4,123.7c0,0.4,0,0.9,0,1.3c-0.2-0.1-0.4-0.1-0.6-0.2c-0.8-0.3-1.6-0.6-2.3-0.9
	c-0.1-0.1-0.3-0.1-0.4-0.2c-0.1-0.5-0.1-1-0.1-1.6c0-0.6-0.1-1.3-0.1-1.9c0-0.3,0-0.6,0-0.9c0-0.2,0-0.3,0-0.5
	c0.3,0.2,0.6,0.3,0.9,0.5c0.6,0.3,1.2,0.6,1.8,0.9c0.3,0.1,0.7,0.3,1,0.4c-0.1,0.5-0.1,0.9-0.1,1.4
	C167.4,122.7,167.4,123.2,167.4,123.7z M166.7,120c-0.6-0.3-1.2-0.6-1.8-1c-0.4-0.2-0.7-0.4-1.1-0.7c0-0.5,0-1,0.1-1.4
	c0-0.5,0.1-0.9,0.1-1.3c0-0.4,0.1-0.7,0.1-1c0-0.3,0.1-0.5,0.1-0.7l4.1,3c0,0.1-0.1,0.3-0.1,0.5c-0.1,0.2-0.1,0.5-0.2,0.8
	c0,0.2-0.1,0.3-0.1,0.5c0,0.2-0.1,0.4-0.1,0.6c0,0.3-0.1,0.6-0.1,1C167.3,120.2,167,120.1,166.7,120z M164,114.6
	c-0.1,0.3-0.1,0.6-0.2,1c0,0.2-0.1,0.4-0.1,0.6c0,0.2-0.1,0.5-0.1,0.7c0,0.2-0.1,0.5-0.1,0.8c0,0.1,0,0.3,0,0.4
	c-0.1-0.1-0.2-0.1-0.3-0.2c-0.6-0.4-1.2-0.9-1.8-1.3c-0.5-0.4-1-0.8-1.5-1.3c0,0,0,0,0,0c0-0.3,0-0.6,0-0.9c0-0.3,0-0.5,0-0.8
	c0-0.3,0-0.5,0.1-0.7c0-0.5,0.1-0.8,0.1-1.2c0.1-0.4,0.1-0.8,0.1-0.9c0.7,0.7,1.5,1.3,2.3,1.9l1.7,1.3
	C164.1,114.1,164.1,114.3,164,114.6z M163.4,122.2c0,0.4,0,0.8,0.1,1.2c0,0-0.1,0-0.1-0.1c-0.4-0.2-0.8-0.4-1.2-0.6
	c-0.4-0.2-0.8-0.5-1.1-0.7c-0.2-0.1-0.4-0.2-0.6-0.4c-0.1-0.1-0.3-0.2-0.4-0.3c0-0.3-0.1-0.6-0.1-1c-0.1-0.7-0.1-1.4-0.2-2.1
	c0-0.3,0-0.7,0-1c0-0.3,0-0.7,0-1c0-0.1,0-0.1,0-0.2c0.4,0.3,0.8,0.7,1.2,1c0.3,0.2,0.6,0.5,0.9,0.7c0.3,0.2,0.6,0.4,0.9,0.6
	c0.2,0.1,0.4,0.2,0.6,0.3c0,0.5-0.1,1.1-0.1,1.7C163.3,120.9,163.3,121.5,163.4,122.2z M160,111.7c-0.1,0.3-0.2,0.7-0.2,1.2
	c0,0.2-0.1,0.5-0.1,0.7c0,0.3-0.1,0.5-0.1,0.8c0,0.2,0,0.4-0.1,0.6c-0.5-0.5-1.1-1-1.6-1.6c-0.3-0.3-0.6-0.6-0.8-0.9
	c-0.3-0.3-0.5-0.6-0.8-0.9c-0.2-0.3-0.5-0.5-0.7-0.8c0,0,0-0.1,0-0.1c0-0.3,0.1-0.7,0.1-1c0-0.3,0.1-0.6,0.1-0.9
	c0-0.3,0.1-0.5,0.1-0.8c0-0.2,0.1-0.5,0.1-0.6c0.1-0.5,0.2-0.9,0.2-1.1c1.2,1.6,2.6,3.1,4,4.4C160.2,110.9,160.1,111.2,160,111.7z
	 M155.8,112c0.3,0.3,0.5,0.6,0.8,0.9c0.3,0.3,0.6,0.6,0.8,0.9c0.6,0.7,1.3,1.3,1.9,1.8c0,0.2,0,0.4,0,0.5c0,0.3,0,0.7,0,1
	c0,0.3,0,0.7,0,1c0,0.7,0,1.4,0.1,2.2c0,0.1,0,0.3,0,0.4c-0.2-0.2-0.4-0.3-0.7-0.5c-0.4-0.3-0.7-0.6-1.1-0.9
	c-0.2-0.2-0.4-0.3-0.5-0.5l-0.5-0.5c-0.3-0.3-0.7-0.7-1-1c-0.1-0.7-0.1-1.5-0.2-2.2c0-0.4,0-0.8,0-1.2c0-0.2,0-0.4,0-0.6
	c0-0.2,0-0.4,0-0.6c0-0.4,0-0.8,0-1.1c0,0,0-0.1,0-0.1C155.6,111.7,155.7,111.9,155.8,112z M155.6,120.6c0.2,0.9,0.4,1.8,0.7,2.6
	c0.1,0.5,0.3,1,0.5,1.6l-0.4-0.3c-0.2-0.2-0.4-0.4-0.7-0.5l-0.6-0.5l-0.3-0.3c-0.1-0.1-0.2-0.2-0.3-0.3c-0.4-0.4-0.8-0.8-1.2-1.2
	l-0.4-0.4c0-0.1-0.1-0.2-0.1-0.3c-0.3-1-0.6-2.1-0.8-3.1c-0.2-1.1-0.4-2.1-0.5-3.2c0-0.5-0.1-1.1-0.1-1.6c0.6,0.9,1.3,1.8,2,2.6
	c0.6,0.7,1.2,1.4,1.8,2c0,0.1,0,0.2,0,0.2C155.3,118.8,155.4,119.7,155.6,120.6z M156.8,123.1c-0.3-0.8-0.5-1.7-0.7-2.6
	c-0.1-0.7-0.3-1.4-0.4-2.2c0.2,0.2,0.3,0.3,0.5,0.5l0.5,0.5c0.2,0.2,0.4,0.3,0.5,0.5c0.4,0.3,0.7,0.6,1.1,0.9
	c0.4,0.3,0.7,0.5,1.1,0.8c0,0.4,0.1,0.7,0.2,1.1c0.2,0.7,0.3,1.5,0.5,2.2c0.2,0.7,0.4,1.4,0.6,2.1c0.1,0.2,0.1,0.3,0.2,0.5
	c-1.1-0.6-2.3-1.3-3.4-2C157.3,124.6,157.1,123.9,156.8,123.1z M160.7,124.7c-0.2-0.7-0.3-1.4-0.4-2.2c0-0.2,0-0.3-0.1-0.5
	c0.2,0.1,0.4,0.2,0.6,0.4c0.4,0.2,0.8,0.5,1.2,0.7c0.4,0.2,0.8,0.4,1.2,0.6c0.1,0.1,0.3,0.1,0.4,0.2c0,0.1,0,0.1,0,0.2
	c0.1,0.6,0.2,1.3,0.3,1.9c0.1,0.6,0.3,1.2,0.4,1.8c0.1,0.3,0.2,0.6,0.3,0.9c0,0,0,0.1,0,0.1c-0.1,0-0.2-0.1-0.4-0.1
	c-0.5-0.2-1-0.3-1.5-0.5c-0.4-0.2-0.8-0.3-1.2-0.5c-0.1-0.3-0.2-0.6-0.3-1C161.1,126.1,160.9,125.4,160.7,124.7z M164.4,125.9
	c-0.1-0.6-0.2-1.1-0.3-1.7c0.1,0,0.1,0.1,0.2,0.1c0.8,0.4,1.6,0.6,2.4,0.9c0.2,0.1,0.5,0.2,0.7,0.2c0.1,0.5,0.1,1,0.2,1.5
	c0,0.5,0.2,1,0.3,1.5c0,0.2,0.1,0.5,0.1,0.7c0,0.1,0,0.2,0.1,0.4c0,0.1,0,0.1,0,0.2c-0.3-0.1-0.6-0.1-1-0.2c-0.5-0.1-1-0.2-1.5-0.4
	c-0.2-0.1-0.4-0.1-0.6-0.2c0-0.1-0.1-0.3-0.1-0.5c-0.1-0.3-0.1-0.6-0.2-0.9C164.6,127.1,164.5,126.5,164.4,125.9z M168.1,125.6
	c1.1,0.3,2.2,0.5,3.3,0.6c0.1,0,0.2,0,0.2,0c0,0.2,0,0.4,0,0.6c0,0.4,0.1,0.9,0.1,1.3c0,0.4,0.1,0.9,0.1,1.3c0,0.2,0.1,0.4,0.1,0.6
	c-1,0-2.1-0.1-3.2-0.3c0,0,0,0,0,0c0-0.1-0.1-0.2-0.1-0.3c0-0.1,0-0.2-0.1-0.4c0-0.2-0.1-0.5-0.1-0.7c-0.1-0.5-0.2-1-0.2-1.5
	C168.1,126.5,168.1,126,168.1,125.6z M171.7,123.1c-0.1,0.4-0.1,0.8-0.1,1.2c0,0.4-0.1,0.8-0.1,1.3c0,0.1,0,0.2,0,0.4
	c-0.1,0-0.1,0-0.2,0c-1.1-0.2-2.2-0.4-3.3-0.7c0-0.5,0-1,0-1.5c0-0.5,0-1,0-1.5c0-0.3,0-0.5,0-0.7c0-0.2,0-0.4,0-0.5
	c0.1,0,0.2,0.1,0.3,0.1c0.6,0.2,1.1,0.4,1.7,0.5c0.3,0.1,0.5,0.1,0.8,0.2c0.3,0.1,0.5,0.1,0.8,0.2c0.1,0,0.2,0,0.3,0.1l0,0
	C171.8,122.4,171.8,122.7,171.7,123.1z M171.6,121.7c-0.2-0.1-0.5-0.1-0.7-0.2c-0.3-0.1-0.5-0.1-0.8-0.2c-0.5-0.2-1.1-0.4-1.6-0.6
	c-0.1-0.1-0.3-0.1-0.4-0.2c0-0.4,0-0.8,0.1-1.1c0-0.2,0-0.4,0-0.6c0-0.2,0-0.4,0.1-0.5c0-0.3,0.1-0.6,0.1-0.8c0-0.2,0-0.3,0-0.5l4,3
	c0,0.1-0.1,0.2-0.1,0.4c0,0.2-0.1,0.4-0.2,0.7c0,0.1-0.1,0.3-0.1,0.4c0,0.1,0,0.2,0,0.3C171.8,121.8,171.7,121.8,171.6,121.7z
	 M172.3,120.5c0-0.2,0-0.3,0-0.4l3.1,2.3c-0.3,0-0.8-0.1-1.3-0.1c-0.4-0.1-0.7-0.1-1.2-0.2c-0.2,0-0.4-0.1-0.7-0.1c0,0-0.1,0-0.1,0
	c0-0.3,0-0.5,0.1-0.7C172.3,120.9,172.3,120.7,172.3,120.5z M177.2,121c-1.6-1.2-3.6-2.6-5.6-4.2c-2-1.5-4.2-3.2-6.4-4.8
	c-1.1-0.8-2.2-1.7-3.2-2.6c-1-0.9-1.9-1.9-2.7-2.8c-0.8-1-1.6-2-2.2-2.9c-0.7-1-1.2-1.9-1.7-2.8c-0.5-0.9-0.8-1.8-1.1-2.6
	c-0.3-0.8-0.4-1.5-0.5-2.1c-0.2-1.2-0.4-1.8-0.4-1.8s0.2,0.7,0.4,1.8c0.1,0.6,0.3,1.3,0.6,2.1c0.3,0.8,0.7,1.6,1.1,2.5
	c0.5,0.9,1.1,1.8,1.7,2.8c0.7,1,1.4,1.9,2.3,2.9c0.8,1,1.7,1.9,2.7,2.8c1,0.9,2,1.7,3.1,2.5c2.2,1.6,4.3,3.3,6.4,4.8
	c2,1.5,3.9,3,5.6,4.2c3.2,2.5,5.4,4.2,5.4,4.2S180.5,123.4,177.2,121z M151.9,104.9c0.1-0.4,0.1-0.7,0.2-1c0.2-0.6,0.3-1.2,0.4-1.7
	c0.1-0.5,0.2-0.8,0.3-1.1c0,0,0-0.1,0-0.1c0.8,1.7,1.9,3.5,3.2,5.3c-0.1,0.2-0.2,0.5-0.3,1.1c0,0.2-0.1,0.4-0.2,0.6
	c0,0.2-0.1,0.5-0.2,0.8c-0.1,0.3-0.1,0.6-0.2,0.9c0,0.2-0.1,0.5-0.1,0.8c-0.2-0.2-0.4-0.5-0.5-0.7c-0.3-0.3-0.5-0.7-0.7-1
	c-0.2-0.3-0.5-0.7-0.7-1c-0.2-0.3-0.4-0.7-0.6-1c-0.2-0.3-0.4-0.7-0.6-1c-0.1-0.1-0.2-0.3-0.2-0.4
	C151.9,105.1,151.9,105,151.9,104.9z M151.7,106.1c0.2,0.3,0.3,0.6,0.5,0.9c0.2,0.3,0.4,0.7,0.6,1.1c0.2,0.3,0.5,0.7,0.7,1
	c0.2,0.3,0.4,0.7,0.7,1c0.3,0.4,0.6,0.8,0.9,1.2c0,0.2,0,0.3-0.1,0.5c0,0.4-0.1,0.7-0.1,1.1c0,0.2,0,0.4,0,0.6c0,0.2,0,0.4,0,0.6
	c0,0.4,0,0.8,0,1.3c0,0.5,0,1,0.1,1.5c-0.4-0.5-0.9-1-1.3-1.5c-0.9-1.1-1.7-2.2-2.5-3.3c0-0.1,0-0.3,0-0.4c0-1,0-2,0.1-2.9
	C151.5,107.7,151.6,106.9,151.7,106.1z M147.6,104.2c0.1-0.6,0.2-1.2,0.3-1.8c0-0.3,0.1-0.6,0.2-0.9c0.1-0.3,0.1-0.6,0.2-0.8
	c0.1-0.5,0.3-1.1,0.4-1.6c0-0.1,0.1-0.2,0.1-0.4c0.2,0.9,0.5,1.9,0.9,2.8c0.5,1.4,1.1,2.7,1.8,4c0,0.1-0.1,0.2-0.1,0.4
	c-0.2,0.8-0.3,1.7-0.4,2.6c-0.1,0.8-0.2,1.7-0.2,2.6c-0.1-0.2-0.2-0.4-0.4-0.6c-1-1.6-1.8-3.3-2.5-4.9c-0.2-0.4-0.3-0.7-0.4-1.1
	C147.6,104.5,147.6,104.3,147.6,104.2z M147.4,106.1c0-0.1,0-0.2,0-0.3c0,0.1,0,0.1,0.1,0.2c0.7,1.7,1.5,3.4,2.5,5
	c0.3,0.4,0.5,0.9,0.8,1.3c0,0.8,0,1.7,0.1,2.5c0.1,1.1,0.3,2.2,0.5,3.2c0.2,0.8,0.4,1.6,0.6,2.4c-1.5-1.6-2.8-3.4-4-5.2
	c-0.1-0.1-0.2-0.3-0.3-0.4c0-0.2-0.1-0.4-0.1-0.5c-0.2-1.4-0.3-2.7-0.4-4.1C147.3,108.7,147.3,107.4,147.4,106.1z M143.6,101.6
	c0.1-0.8,0.3-1.6,0.4-2.3c0.1-0.4,0.2-0.7,0.3-1.1c0.1-0.4,0.2-0.7,0.3-1.1c0.3-1,0.6-1.9,0.9-2.8c0,0.3,0,0.6,0,1
	c0,0.3,0,0.7,0,1.1c0,0.7,0.1,1.5,0.2,2.3c0,0.4,0.1,0.8,0.2,1.2c0,0.2,0.1,0.4,0.1,0.6c0,0.2,0.1,0.4,0.1,0.6
	c0.2,1.2,0.6,2.5,1.1,3.8c0,0.1,0,0.2-0.1,0.3c0,0.3-0.1,0.6-0.1,1c-0.1,1.3-0.2,2.7-0.2,4c0,1.1,0.1,2.2,0.2,3.3
	c-0.7-1.3-1.4-2.7-1.9-4.1c-0.2-0.5-0.4-1-0.5-1.5c-0.2-0.5-0.3-1-0.5-1.5c-0.2-1-0.5-1.9-0.7-2.9
	C143.4,102.8,143.5,102.2,143.6,101.6z M154.8,128.8c-0.3-0.2-0.5-0.4-0.8-0.6l-0.8-0.7c-0.5-0.5-1-0.9-1.5-1.4
	c-0.9-0.9-1.8-1.8-2.6-2.7c-0.6-0.8-1.2-1.6-1.8-2.5c-0.9-1.4-1.6-2.8-2.2-4.4c-0.1-0.4-0.3-0.8-0.4-1.2c-0.1-0.4-0.2-0.8-0.4-1.2
	l-0.1-0.3l0-0.2l0,0c0,0,0,0,0,0l0,0l0-0.1l-0.1-0.6c-0.1-0.4-0.2-0.8-0.2-1.3c-0.1-0.8-0.2-1.7-0.3-2.5c-0.1-0.8-0.1-1.7-0.1-2.5
	c0-0.4,0-0.9,0-1.3c0.1,0.4,0.2,0.9,0.3,1.3c0.3,1,0.6,2,1,3c0.7,1.8,1.5,3.6,2.6,5.3c0.1,0.5,0.2,1,0.3,1.5c0.1,0.3,0.2,0.7,0.2,1
	l0.1,0.5l0.1,0.3l0,0.1c0,0.1,0,0.1,0,0.1c0.4,1.3,0.9,2.6,1.6,3.8c0.6,1.2,1.3,2.2,2.1,3.2c0.7,0.9,1.5,1.8,2.2,2.5
	c0.5,0.5,1,1,1.5,1.4C155.1,129.1,155,129,154.8,128.8z M158.2,131c-0.5-0.3-1.1-0.6-1.6-0.9c-0.2-0.2-0.4-0.3-0.6-0.5
	c-0.6-0.6-1.3-1.3-2-2c-0.7-0.8-1.4-1.6-2.1-2.6c-0.7-1-1.4-2-2-3.2c-0.6-1.1-1.1-2.4-1.5-3.7l0-0.1l0-0.1l-0.1-0.3l-0.1-0.5
	c-0.1-0.3-0.2-0.7-0.2-1c0,0,0-0.1,0-0.1c1.1,1.7,2.3,3.3,3.7,4.8l0.7,0.8c0.3,0.8,0.6,1.7,1,2.4c0.4,0.9,0.9,1.8,1.4,2.6
	c0.2,0.4,0.5,0.8,0.8,1.1c0.3,0.4,0.5,0.7,0.8,1c0.3,0.3,0.5,0.6,0.8,0.9c0.3,0.3,0.5,0.5,0.7,0.8c0.2,0.2,0.5,0.4,0.7,0.6
	c0,0,0.1,0,0.1,0.1C158.5,131.1,158.4,131.1,158.2,131z M159.1,131.4c-0.1-0.1-0.3-0.3-0.4-0.4c-0.2-0.2-0.4-0.4-0.6-0.7
	c-0.2-0.2-0.4-0.5-0.7-0.8c-0.2-0.3-0.5-0.6-0.7-0.9c-0.5-0.7-1-1.4-1.4-2.2c-0.5-0.8-0.9-1.7-1.3-2.6c-0.2-0.4-0.4-0.9-0.5-1.3
	c0.3,0.2,0.5,0.5,0.8,0.7c0.1,0.1,0.2,0.2,0.3,0.3l0.3,0.3l0.7,0.5c0.2,0.2,0.4,0.4,0.7,0.5l0.7,0.5c0.1,0.1,0.3,0.2,0.4,0.3
	c0,0,0,0,0,0c0.2,0.4,0.4,0.8,0.5,1.1c0.1,0.2,0.2,0.4,0.3,0.6c0.1,0.2,0.2,0.4,0.3,0.5c0.2,0.3,0.4,0.7,0.6,1
	c0.2,0.3,0.4,0.6,0.6,0.9c0.2,0.3,0.4,0.6,0.6,0.8c0.2,0.2,0.4,0.5,0.6,0.7c0.2,0.2,0.3,0.4,0.5,0.6c0.1,0.1,0.2,0.3,0.3,0.4
	C160.6,132.1,159.9,131.8,159.1,131.4z M161.9,132.5c-0.1,0-0.2-0.1-0.3-0.1c0,0,0,0,0,0c-0.1-0.2-0.3-0.3-0.4-0.5
	c-0.1-0.2-0.3-0.4-0.4-0.6c-0.2-0.2-0.3-0.5-0.5-0.7c-0.2-0.3-0.3-0.5-0.5-0.8c-0.2-0.3-0.4-0.6-0.5-0.9c-0.2-0.3-0.3-0.7-0.5-1
	c-0.1-0.2-0.2-0.3-0.3-0.5c-0.1-0.2-0.2-0.4-0.2-0.6c-0.1-0.1-0.1-0.3-0.2-0.4c1.1,0.7,2.1,1.3,3.3,1.8c0,0.1,0.1,0.2,0.1,0.2
	c0.1,0.2,0.1,0.3,0.2,0.4c0.1,0.3,0.3,0.6,0.4,0.9c0.1,0.3,0.3,0.5,0.4,0.8c0.1,0.2,0.3,0.5,0.4,0.7c0.1,0.2,0.3,0.4,0.4,0.6
	c0.1,0.2,0.2,0.4,0.3,0.5c0.1,0.2,0.2,0.3,0.3,0.4c0.1,0.1,0.2,0.3,0.3,0.4C163.4,133,162.6,132.8,161.9,132.5z M164.2,133.1
	c-0.1-0.1-0.2-0.3-0.3-0.5c-0.1-0.1-0.2-0.3-0.3-0.5c-0.1-0.2-0.2-0.4-0.3-0.6c-0.1-0.2-0.2-0.4-0.3-0.6c-0.1-0.2-0.2-0.5-0.3-0.7
	c-0.1-0.3-0.2-0.5-0.4-0.8c-0.1-0.3-0.2-0.6-0.3-0.9c0-0.1-0.1-0.2-0.1-0.3c0.2,0.1,0.5,0.2,0.7,0.3c0.5,0.2,1,0.4,1.5,0.5
	c0.2,0.1,0.5,0.2,0.7,0.2c0,0,0,0.1,0,0.1c0.1,0.3,0.2,0.5,0.3,0.8c0.1,0.2,0.2,0.5,0.3,0.7c0.1,0.2,0.2,0.4,0.3,0.6
	c0.1,0.2,0.2,0.4,0.3,0.6c0.1,0.2,0.2,0.3,0.3,0.5c0.1,0.2,0.2,0.3,0.2,0.4c0.1,0.2,0.2,0.3,0.3,0.5
	C165.9,133.5,165,133.3,164.2,133.1z M169.4,133.8c-0.8,0-1.7-0.1-2.6-0.2c-0.1-0.1-0.1-0.3-0.2-0.5c-0.1-0.1-0.1-0.3-0.2-0.4
	c-0.1-0.2-0.1-0.3-0.2-0.5c-0.1-0.2-0.2-0.4-0.2-0.6c-0.1-0.2-0.2-0.4-0.2-0.7c-0.1-0.2-0.2-0.5-0.2-0.7c-0.1-0.2-0.1-0.4-0.2-0.6
	c0.1,0,0.2,0,0.3,0.1c0.5,0.1,1,0.2,1.5,0.3c0.4,0.1,0.8,0.1,1.2,0.2c0.1,0.3,0.2,0.7,0.3,1c0.1,0.2,0.1,0.4,0.2,0.6
	c0.1,0.2,0.1,0.3,0.2,0.5c0.1,0.3,0.2,0.6,0.3,0.8c0.2,0.4,0.3,0.7,0.3,0.7s-0.1-0.3-0.2-0.7c-0.1-0.2-0.1-0.5-0.2-0.8
	c0-0.2-0.1-0.3-0.1-0.5c0-0.2-0.1-0.4-0.1-0.6c-0.1-0.3-0.1-0.6-0.2-0.8c1.1,0.1,2.2,0.2,3.2,0.2c0,0.1,0,0.1,0,0.2
	c0.1,0.4,0.2,0.7,0.2,1.1c0,0.2,0.1,0.3,0.1,0.5c0,0.1,0.1,0.3,0.1,0.4c0.1,0.3,0.2,0.5,0.2,0.7c0.1,0.2,0.1,0.3,0.1,0.4
	C171.7,133.7,170.5,133.8,169.4,133.8z M176.2,133.2c-1.1,0.2-2.2,0.3-3.4,0.4c0-0.1,0-0.2-0.1-0.4c0-0.2-0.1-0.4-0.1-0.7
	c0-0.1,0-0.3-0.1-0.4c0-0.1,0-0.3-0.1-0.5c0-0.3-0.1-0.7-0.1-1c0,0,0-0.1,0-0.1c0.6,0,1.2,0,1.8-0.1c0.5,0,1.1-0.1,1.6-0.1
	c0,0.2,0,0.3,0,0.5c0,0.3,0.1,0.6,0.1,0.8c0,0.2,0.1,0.5,0.1,0.7c0,0.2,0.1,0.4,0.1,0.5C176.1,133,176.2,133.2,176.2,133.2
	c0,0,0-0.2,0-0.5c0-0.3,0-0.7,0-1.2c0-0.2,0-0.5,0-0.8c0-0.2,0-0.3,0-0.5c0.9-0.1,1.8-0.3,2.6-0.4c0.5-0.1,0.9-0.2,1.4-0.3
	c0,0.3,0,0.5,0,0.8c0,0.2,0,0.4,0,0.6c0,0.2,0,0.4,0,0.5c0,0.3,0,0.6,0,0.8c0,0,0,0.1,0,0.1C178.9,132.6,177.6,132.9,176.2,133.2z
	 M180.1,129.3c-0.4,0.1-0.9,0.2-1.4,0.3c-0.8,0.1-1.6,0.3-2.5,0.4c0,0,0-0.1,0-0.1c0-0.6,0-1.3,0-1.9c0-0.5,0-1,0.1-1.5
	c0.8,0,1.4-0.1,2-0.2c0.4,0,0.8-0.1,1.1-0.1c0.3,0,0.5-0.1,0.8-0.1l0.4,0.3c0,0.1,0,0.2-0.1,0.3c0,0.2-0.1,0.3-0.1,0.5
	c0,0.2-0.1,0.4-0.1,0.6c-0.1,0.4-0.1,0.8-0.2,1.3C180.1,129.1,180.1,129.2,180.1,129.3z M180.6,127.1c0-0.2,0-0.4,0.1-0.5
	c0-0.1,0-0.2,0-0.3l1.8,1.3c0.4,0.3,0.7,0.5,1,0.7c-0.4,0.1-0.8,0.2-1.3,0.4c-0.5,0.1-1.1,0.3-1.8,0.4c0-0.1,0-0.1,0-0.2
	c0-0.4,0.1-0.9,0.1-1.3C180.6,127.5,180.6,127.3,180.6,127.1z M181.8,131.8c-0.5,0.2-1.1,0.3-1.7,0.5c0,0,0-0.1,0-0.1
	c0-0.2,0-0.5,0.1-0.8c0-0.2,0-0.3,0-0.5c0-0.2,0-0.4,0.1-0.6c0-0.3,0-0.6,0.1-0.9c0.7-0.2,1.3-0.3,1.8-0.5c0.5-0.1,0.9-0.3,1.3-0.4
	c0,0,0,0,0.1,0c0.4,0.2,0.7,0.4,1,0.6c0,0.1,0,0.1,0,0.2c-0.1,0.4-0.1,0.8-0.1,1.1c0,0.2,0,0.4,0,0.5
	C183.7,131.2,182.8,131.5,181.8,131.8z M186,130.2c-0.5,0.2-1,0.4-1.5,0.6c0-0.1,0.1-0.2,0.1-0.4c0.1-0.3,0.2-0.7,0.2-1.1
	c0,0,0-0.1,0-0.1c0.6,0.3,1.2,0.6,1.7,0.7C186.4,130.1,186.2,130.1,186,130.2z M191.4,126.9c-0.1,0.5-0.2,1-0.5,1.4
	c-0.3,0.4-0.7,0.8-1.2,1.1c-0.5,0.2-1.1,0.3-1.6,0.3c-0.6,0-1.1-0.1-1.6-0.3c-0.5-0.1-1-0.4-1.5-0.6c-0.9-0.5-1.7-1-2.4-1.5
	c-0.7-0.5-1.2-0.9-1.5-1.2c-0.4-0.3-0.6-0.5-0.6-0.5s0.9,0.6,2.2,1.5c0.3,0.2,0.7,0.5,1.1,0.7c0.4,0.2,0.8,0.5,1.3,0.7
	c0.5,0.2,0.9,0.4,1.4,0.6c0.5,0.1,1,0.2,1.5,0.3c0.5,0,1-0.1,1.5-0.3c0.5-0.2,0.9-0.6,1.1-1c0.3-0.4,0.4-0.9,0.5-1.3
	c0.1-0.4,0.1-0.9,0.1-1.3c-0.1-0.8-0.2-1.5-0.3-1.9c-0.1-0.5-0.1-0.7-0.1-0.7s0.1,0.3,0.2,0.7c0.1,0.2,0.1,0.5,0.2,0.8
	c0.1,0.3,0.2,0.7,0.2,1.1C191.5,126,191.5,126.5,191.4,126.9z"/>
<path class="st0" d="M56.5,30.5c0,0.1-0.1,0.3-0.2,0.5c0,0.1-0.1,0.1-0.1,0.2c-0.1,0.1-0.1,0.2-0.2,0.2c-0.1,0.1-0.1,0.1-0.2,0.2
	c-0.1,0.1-0.1,0.1-0.2,0.2c-0.2,0.1-0.3,0.2-0.5,0.3c-0.1,0-0.2,0.1-0.3,0.1c0,0-0.1,0-0.1,0l21.1,13.5c0.2-0.8,0.6-1.6,1.2-2.3
	c0.2-0.2,0.5-0.5,0.8-0.6L56.9,29.5c0-0.1,0-0.2,0-0.3l21.2,13.5c0.1-0.1,0.2-0.1,0.3-0.1L56.9,28.9c-0.1-0.8-0.5-1.5-1.2-2L29.3,10
	c-1-0.6-2.3-0.6-3.2,0.2c-0.1,0.1-0.4,0.2-0.6,0.7c-0.2,0.1-0.3,0.3-0.4,0.5c-0.4,0.6-0.5,1.3-0.4,1.9c0.1,0.6,0.4,1.1,0.9,1.5
	c0.1,0,0.1,0,0.2,0.1c0.1,0,0.3,0.1,0.4,0.1c0.2,0,0.3,0,0.5,0c0.2,0,0.3,0,0.5-0.1c0.1,0,0.2,0,0.3-0.1c0.1,0,0.2-0.1,0.2-0.1
	c0.2-0.1,0.3-0.2,0.5-0.3c0.1-0.1,0.1-0.1,0.2-0.2c0.1-0.1,0.1-0.1,0.2-0.2c0.1-0.1,0.1-0.1,0.2-0.2c0-0.1,0.1-0.1,0.1-0.2
	c0.1-0.1,0.1-0.3,0.2-0.4c0.1-0.1,0.1-0.3,0.1-0.4c0-0.1,0-0.1,0-0.2c0,0,0-0.1,0-0.1c0-0.2,0-0.3,0-0.3s0,0.1,0,0.3
	c0,0,0,0.1,0,0.1c0,0.1,0,0.1,0,0.2c0,0.1,0,0.3-0.1,0.4c0,0.1-0.1,0.3-0.2,0.5c0,0.1-0.1,0.1-0.1,0.2c-0.1,0.1-0.1,0.2-0.2,0.2
	c-0.1,0.1-0.1,0.1-0.2,0.2c-0.1,0.1-0.1,0.1-0.2,0.2c-0.2,0.1-0.3,0.2-0.5,0.3c-0.1,0-0.2,0.1-0.3,0.1c-0.1,0-0.2,0.1-0.3,0.1
	c-0.2,0.1-0.4,0.1-0.6,0.1c-0.2,0-0.4,0-0.6-0.1l26.2,16.7c-0.1,0-0.1-0.1-0.1-0.1s0.1,0,0.2,0.1c0.1,0,0.2,0.1,0.3,0.1
	c0.1,0,0.2,0.1,0.4,0.1c0.1,0,0.3,0.1,0.4,0.1c0.2,0,0.3,0,0.5,0c0.2,0,0.3,0,0.5-0.1c0.1,0,0.2,0,0.3-0.1c0.1,0,0.2-0.1,0.2-0.1
	c0.2-0.1,0.3-0.2,0.5-0.3c0.1-0.1,0.1-0.1,0.2-0.2c0.1-0.1,0.1-0.1,0.2-0.2c0.1-0.1,0.1-0.1,0.2-0.2c0-0.1,0.1-0.1,0.1-0.2
	c0.1-0.1,0.1-0.3,0.2-0.4c0.1-0.1,0.1-0.3,0.1-0.4c0-0.1,0-0.1,0-0.2c0,0,0-0.1,0-0.1c0-0.2,0-0.3,0-0.3s0,0,0,0.1c0,0,0,0.1,0,0.1
	l0,0c0,0,0,0.1,0,0.1c0,0.1,0,0.1,0,0.2C56.6,30.2,56.6,30.4,56.5,30.5z M56.5,29.3c-0.1-0.7-0.5-1.4-1.2-1.8l-26.5-17
	c-0.7-0.4-1.5-0.5-2.2-0.3c0.8-0.5,1.8-0.5,2.6,0l26.3,16.9c0.8,0.5,1.2,1.4,1.1,2.2L56.5,29.3z"/>
<g id="Light_Logo">
	<g>
		<path class="st0" d="M128.3,46.2c-2.7-1.3-1.6-7.5,6.6-9.1c12-2.3,27.2,18.2-6,27.3c0,0,9.6-3,13.5-8.2c7.4-9.8-2.4-15.1-6.2-13.5
			C131.8,44.6,131.6,47.8,128.3,46.2z"/>
		<path class="st0" d="M61.9,46.2c2.7-1.3,1.6-7.5-6.6-9.1c-12-2.3-27.2,18.2,6,27.3c0,0-9.6-3-13.5-8.2c-7.4-9.8,2.4-15.1,6.2-13.5
			C58.3,44.6,58.6,47.8,61.9,46.2z"/>
	</g>
	<path class="st0" d="M125.5,45.9c-1-13.5-9.2-22.3-22.7-24.1c-1.3-0.2-4.2-0.4-7.7-0.5c-3.4,0-6.3,0.3-7.7,0.5
		c-7.2,0.9-13,3.9-16.9,8.5c-3.4,4-5.4,9.3-5.9,15.6c-1.3,17,15.9,29.8,15.9,29.8s-13.2-18.1-5.3-25.1c8.6-7.7,18.1,1.3,19.8,3
		c1.7-1.7,11.3-10.7,19.8-3c7.9,7.1-5.3,25.1-5.3,25.1S126.7,62.9,125.5,45.9z"/>
	<g>
		<path class="st0" d="M101.1,63.7c0,0,4.5-10.9,10.2-2.8C111.3,60.9,110.2,65,101.1,63.7z"/>
		<path class="st0" d="M89,63.7c0,0-4.5-10.9-10.2-2.8C78.9,60.9,79.9,65,89,63.7z"/>
	</g>
	<path class="st0" d="M95,88.4c-4.3-0.2-9.6-1.2-15.9-3.5c0.3,4,4.4,8.1,15.9,10.3c0,0,0,0,0,0c0,0,0,0,0,0
		C106.5,93,110.6,89,110.9,85C104.6,87.2,99.4,88.2,95,88.4z"/>
	<path class="st0" d="M82.6,85.4c0.7,0.1,1.4,0.2,2,0.3c0.7,0.1,1.4,0.2,2.1,0.3c2.7,0.3,5.5,0.4,8.3,0.4c2.8,0,5.5-0.2,8.3-0.5
		c2.6-0.3,5.2-0.8,7.7-1.3c0.6-9.1-15.9-19.5-15.9-19.5S78.5,75.6,79.2,84.6C80.3,84.9,81.4,85.2,82.6,85.4z"/>
	<g>
		<path d="M96.2,77.4c0,0,0.4-1.8,1.7-2.1c1.3-0.3,1.6-2.2,1.6-2.2S100.2,78.2,96.2,77.4z"/>
		<path d="M94,77.4c0,0-0.4-1.8-1.7-2.1c-1.3-0.3-1.6-2.2-1.6-2.2S90,78.2,94,77.4z"/>
	</g>
	<g>
		<path class="st0" d="M109.6,75.7c0,0,13.4,15.6-14.5,19.6c0,0,29.5,1.8,20.1-24.8L109.6,75.7z"/>
		<path class="st0" d="M80.6,75.7c0,0-13.4,15.6,14.5,19.6c0,0-29.5,1.8-20.1-24.8L80.6,75.7z"/>
	</g>
	<path class="st0" d="M90.4,22.3c0,0,4.1,0.1,3.8-2.8c-0.3-2.9-4.2-4-7.5-1.4c0,0,4-5.6,10.2-2.3c5.5,3,1.1,8.9,1.1,8.9"/>
</g>
<g>
</g>
<g>
</g>
<g>
</g>
<g>
</g>
<g>
</g>
<g>
</g>
</svg>
