<?xml version="1.0" encoding="utf-8"?>
<!-- Generator: Adobe Illustrator 24.1.2, SVG Export Plug-In . SVG Version: 6.00 Build 0)  -->
<svg version="1.1" xmlns="http://www.w3.org/2000/svg" xmlns:xlink="http://www.w3.org/1999/xlink" x="0px" y="0px"
	 viewBox="0 0 3354.1 713.5" style="enable-background:new 0 0 3354.1 713.5;" xml:space="preserve">
<style type="text/css">
	.st0{display:none;}
	.st1{display:inline;fill:#262827;}
	.st2{fill:#FFFFFF;}
</style>
<g id="Layer_2" class="st0">
	<rect x="-142.5" y="-102" class="st1" width="4065.9" height="1039.9"/>
</g>
<g id="Layer_1">
	<g>
		<path class="st2" d="M3335.3,476.8c-10.4,0-18.9,8.5-18.9,18.9s8.4,18.9,18.9,18.9c10.4,0,18.9-8.5,18.9-18.9
			C3354.1,485.2,3345.7,476.8,3335.3,476.8z M3335.3,511.5c-8.8,0-15.9-7.1-15.9-15.9c0-8.8,7.1-15.9,15.9-15.9
			c8.8,0,15.9,7.1,15.9,15.9C3351.2,504.4,3344,511.5,3335.3,511.5z M3341.4,492.4c0-3.4-2.4-5.5-6-5.5h-6v17.2h2.9v-6.2h3.2
			l3.1,6.2h3.2l-3.4-6.9C3340.2,496.4,3341.4,494.7,3341.4,492.4z M3335.3,495.2h-2.9v-5.7h2.9c2,0,3.2,1,3.2,2.8
			C3338.4,494.2,3337.2,495.2,3335.3,495.2z M1063.5,286v-45.6h-69.9v271.3h69.9V349c0-29.5,18.9-43.9,48.4-43.9h38.3v-64.7h-32.7
			C1091.8,240.4,1069.6,253.7,1063.5,286z M1215.6,133.1c-23.9,0-42.3,18.9-42.3,42.8c0,23.4,18.3,42.3,42.3,42.3
			s42.3-18.9,42.3-42.3C1257.9,151.9,1239.5,133.1,1215.6,133.1z M1180.7,511.6h69.8V240.4h-69.8V511.6z M1582.8,376
			c0,77.4-62.8,140.2-140.2,140.2c-31.3,0-59.6-10.2-82.3-27.5v102.6h-69.8V240.4h69.8v23c22.7-17.3,51.1-27.5,82.3-27.5
			C1520,235.8,1582.8,298.6,1582.8,376z M1512.6,376c0-42.1-34.1-76.2-76.2-76.2s-76.2,34.1-76.2,76.2c0,42.1,34.1,76.2,76.2,76.2
			C1478.5,452.2,1512.6,418.1,1512.6,376z M2795.2,352.2l-40.7-11.2c-26.8-7-37.2-15.2-37.2-29.3c0-13.8,14.7-23.4,35.6-23.4
			c20,0,35.6,13.1,35.6,29.8v1.6h64.3v-1.6c0-49.2-40.1-82.3-99.9-82.3c-59.2,0-102.2,33-102.2,78.6c0,35.4,23.5,62.1,64.5,73.2
			l39,10.6c29.6,8.2,40.6,17.3,40.6,33.6c0,17.2-15.9,28.7-39.6,28.7c-24.7,0-41.3-15.6-41.3-38.8v-1.6h-68.2v1.6
			c0,55.6,44.8,94.5,109,94.5c61.8,0,106.7-38,106.7-90.3C2861.3,400.4,2849.8,366.8,2795.2,352.2z M1830.2,240.4h69.8v271.3h-69.8
			v-23c-22.7,17.3-51.1,27.5-82.3,27.5c-77.4,0-140.2-62.8-140.2-140.2s62.8-140.2,140.2-140.2c31.2,0,59.6,10.2,82.3,27.5V240.4z
			 M1830.2,376L1830.2,376c0-42.1-34.1-76.2-76.2-76.2s-76.2,34.1-76.2,76.2c0,42.1,34.1,76.2,76.2,76.2
			C1796.1,452.2,1830.2,418.1,1830.2,376z M2151.9,143.8h69.8v367.9h-69.8v-23c-22.7,17.3-51.1,27.5-82.3,27.5
			c-77.4,0-140.2-62.8-140.2-140.2s62.8-140.2,140.2-140.2c31.2,0,59.6,10.2,82.3,27.5V143.8z M2151.9,376
			c0-42.1-34.1-76.2-76.2-76.2c-42.1,0-76.2,34.1-76.2,76.2c0,42.1,34.1,76.2,76.2,76.2C2117.7,452.2,2151.9,418.1,2151.9,376z
			 M2545.5,511.6h69.8V240.4h-69.8V511.6z M2580.3,133.1c-23.9,0-42.3,18.9-42.3,42.8c0,23.4,18.3,42.3,42.3,42.3
			s42.3-18.9,42.3-42.3C2622.6,151.9,2604.3,133.1,2580.3,133.1z M3162.8,376c0,77.4-62.8,140.2-140.2,140.2
			c-77.4,0-140.2-62.8-140.2-140.2s62.8-140.2,140.2-140.2C3100,235.8,3162.8,298.6,3162.8,376z M3098.8,376
			c0-42.1-34.1-76.2-76.2-76.2s-76.2,34.1-76.2,76.2c0,42.1,34.1,76.2,76.2,76.2C3064.6,452.2,3098.8,418.1,3098.8,376z
			 M1027.8,143.8H760.2V206h99.1v305.6h69.5V206h99.1L1027.8,143.8L1027.8,143.8z M2381,437.3l-62.1-197h-73.3l93.1,271.3h83.9
			l93.6-271.3h-73.3L2381,437.3z M3265,286v-45.6h-69.9v271.3h69.9V349c0-29.5,18.9-43.9,48.4-43.9h38.3v-64.7H3319
			C3293.4,240.4,3271.2,253.7,3265,286z"/>
		<circle class="st2" cx="356.7" cy="356.7" r="356.7"/>
		<path d="M577.1,287.2l43-46.8h-95.5c-47.8-32.6-105.5-51.7-167.9-51.7c-62.3,0-119.9,19.1-167.6,51.7H93.4l43,46.8
			c-26.4,24.1-42.9,58.8-42.9,97.3c0,72.7,58.9,131.6,131.6,131.6c34.5,0,66-13.3,89.4-35.1l42.2,45.9l42.2-45.9
			c23.5,21.8,54.9,35,89.4,35C561,516,620,457.1,620,384.4C620,345.9,603.5,311.2,577.1,287.2z M225.2,473.5c-49.2,0-89-39.9-89-89
			s39.9-89,89-89s89,39.9,89,89S274.4,473.5,225.2,473.5z M356.8,381.8c0-58.6-42.6-108.9-98.9-130.4c30.4-12.7,63.8-19.8,98.8-19.8
			s68.4,7.1,98.9,19.8C399.4,273,356.8,323.2,356.8,381.8z M488.4,473.5c-49.2,0-89-39.9-89-89s39.9-89,89-89s89,39.9,89,89
			S537.6,473.5,488.4,473.5z M488.4,337.7c-25.8,0-46.7,20.9-46.7,46.7c0,25.8,20.9,46.7,46.7,46.7c25.8,0,46.7-20.9,46.7-46.7
			C535,358.6,514.2,337.7,488.4,337.7z M271.8,384.4c0,25.8-20.9,46.7-46.7,46.7s-46.7-20.9-46.7-46.7c0-25.8,20.9-46.7,46.7-46.7
			C251,337.7,271.8,358.6,271.8,384.4z"/>
	</g>
</g>
</svg>
